SplineFontDB: 3.2
FontName: Quicksand-VariableFont_wght-W300
FullName: Quicksand-VariableFont_wght W300
FamilyName: Quicksand-VariableFont_wght
Weight: Regular
ItalicAngle: 0
UnderlinePosition: 0
UnderlineWidth: 0
Ascent: 800
Descent: 200
InvalidEm: 1
UFOAscent: 1000
UFODescent: -250
LayerCount: 4
Layer: 0 0 "Back" 1
Layer: 1 1 "public.default" 0 "glyphs"
Layer: 2 0 "Back 2" 1
Layer: 3 0 "Back 3" 1
PreferredKerning: 1
StyleMap: 0x0000
FSType: 0
OS2Version: 0
OS2_WeightWidthSlopeOnly: 0
OS2_UseTypoMetrics: 0
CreationTime: 1773233631
ModificationTime: 1777097913
PfmFamily: 16
TTFWeight: 300
TTFWidth: 5
LineGap: 0
VLineGap: 0
OS2TypoAscent: 0
OS2TypoAOffset: 1
OS2TypoDescent: 0
OS2TypoDOffset: 1
OS2TypoLinegap: 0
OS2WinAscent: 0
OS2WinAOffset: 1
OS2WinDescent: 0
OS2WinDOffset: 1
HheadAscent: 0
HheadAOffset: 1
HheadDescent: 0
HheadDOffset: 1
OS2CapHeight: 700
OS2XHeight: 503
OS2Vendor: 'PfEd'
DEI: 91125
PickledDataWithLists: "(dp0
Vpublic.glyphOrder
p1
(lp2
V.notdef
p3
aVA
p4
aVAacute
p5
aVAbreve
p6
aVuni1EAE
p7
aVuni1EB6
p8
aVuni1EB0
p9
aVuni1EB2
p10
aVuni1EB4
p11
aVuni01CD
p12
aVAcircumflex
p13
aVuni1EA4
p14
aVuni1EAC
p15
aVuni1EA6
p16
aVuni1EA8
p17
aVuni1EAA
p18
aVuni0200
p19
aVAdieresis
p20
aVuni1EA0
p21
aVAgrave
p22
aVuni1EA2
p23
aVuni0202
p24
aVAmacron
p25
aVAogonek
p26
aVAring
p27
aVAringacute
p28
aVAtilde
p29
aVAE
p30
aVAEacute
p31
aVB
p32
aVC
p33
aVCacute
p34
aVCcaron
p35
aVCcedilla
p36
aVuni1E08
p37
aVCcircumflex
p38
aVCdotaccent
p39
aVD
p40
aVuni01C4
p41
aVEth
p42
aVDcaron
p43
aVuni1E12
p44
aVDcroat
p45
aVuni1E0C
p46
aVuni1E0E
p47
aVuni01F2
p48
aVuni01C5
p49
aVE
p50
aVEacute
p51
aVEbreve
p52
aVEcaron
p53
aVuni1E1C
p54
aVEcircumflex
p55
aVuni1EBE
p56
aVuni1EC6
p57
aVuni1EC0
p58
aVuni1EC2
p59
aVuni1EC4
p60
aVuni0204
p61
aVEdieresis
p62
aVEdotaccent
p63
aVuni1EB8
p64
aVEgrave
p65
aVuni1EBA
p66
aVuni0206
p67
aVEmacron
p68
aVuni1E16
p69
aVuni1E14
p70
aVEogonek
p71
aVuni1EBC
p72
aVF
p73
aVG
p74
aVGbreve
p75
aVGcaron
p76
aVGcircumflex
p77
aVuni0122
p78
aVGdotaccent

StartChar: .notdef
Encoding: 0 -1 0
GlifName: .notdef
Width: 584
VWidth: 0
Flags: W
LayerCount: 4
Fore
SplineSet
40 665 m 257,0,1
 40 700 40 700 75 700 c 257,2,-1
 509 700 l 257,3,4
 544 700 544 700 544 665 c 257,5,-1
 544 35 l 257,6,7
 544 0 544 0 509 0 c 257,8,-1
 75 0 l 257,9,10
 40 0 40 0 40 35 c 257,11,-1
 40 665 l 257,0,1
95 670 m 257,12,13
 88 670 88 670 92 664 c 257,14,-1
 508 65 l 257,15,16
 510 62 510 62 512 62.5 c 128,-1,17
 514 63 514 63 514 67 c 257,18,-1
 514 665 l 257,19,20
 514 670 514 670 509 670 c 257,21,-1
 95 670 l 257,12,13
70 35 m 257,22,23
 70 30 70 30 75 30 c 257,24,-1
 488 30 l 257,25,26
 495 30 495 30 491 36 c 257,27,-1
 76 635 l 257,28,29
 74 638 74 638 72 637.5 c 128,-1,30
 70 637 70 637 70 633 c 257,31,-1
 70 35 l 257,22,23
EndSplineSet
EndChar

StartChar: A
Encoding: 1 65 1
GlifName: A
Width: 649
VWidth: 0
Flags: W
LayerCount: 4
Fore
SplineSet
327 649 m 257,0,-1
 74 13 l 257,1,2
 72 7 72 7 67 3.5 c 128,-1,3
 62 0 62 0 56 0 c 257,4,5
 46 0 46 0 41 5 c 128,-1,6
 36 10 36 10 35 17 c 257,7,8
 34 21 34 21 36 27 c 257,9,-1
 305 689 l 257,10,11
 308 697 308 697 312.5 699.5 c 128,-1,12
 317 702 317 702 324 702 c 257,13,14
 332 702 332 702 337 698.5 c 128,-1,15
 342 695 342 695 344 689 c 257,16,-1
 613 27 l 257,17,18
 614 24 614 24 614 19 c 257,19,20
 614 10 614 10 608 5 c 128,-1,21
 602 0 602 0 593 0 c 257,22,23
 586 0 586 0 580.5 3.5 c 128,-1,24
 575 7 575 7 573 13 c 257,25,-1
 312 657 l 257,26,-1
 327 649 l 257,0,-1
142 217 m 257,27,-1
 156 257 l 257,28,-1
 480 257 l 257,29,-1
 490 217 l 257,30,-1
 142 217 l 257,27,-1
EndSplineSet
EndChar

StartChar: Aacute
Encoding: 2 193 2
GlifName: Aacute
Width: 649
VWidth: 0
Flags: W
LayerCount: 4
Back
SplineSet
189 747 m 260
 185.666992188 748.333007812 183.666992188 750.333007812 183 753 c 4
 181.666992188 757.666992188 181.666992188 760.666992188 183 762 c 260
 184.333007812 764.666992188 187.666992188 768 193 772 c 262
 336 882 l 4
 347 891 l 262
 351 893.666992188 355.333007812 896 360 898 c 4
 365.333007812 900 371 899.666992188 377 897 c 260
 383.666992188 894.333007812 388.666992188 890.666992188 392 886 c 4
 395.333007812 880.666992188 395.333007812 873.666992188 392 865 c 260
 390.666992188 861.666992188 389.333007812 859.333007812 388 858 c 4
 386.666992188 856 384.333007812 854 381 852 c 261
 219 753 l 262
 213.666992188 749.666992188 209 747.666992188 205 747 c 4
 198.333007812 745.666992188 193 745.666992188 189 747 c 260
EndSplineSet
Fore
Refer: 740 769 S 1 0 0 1 170 192 2
Refer: 1 65 N 1 0 0 1 0 0 2
EndChar

StartChar: Agrave
Encoding: 19 192 19
GlifName: Agrave
Width: 649
VWidth: 0
Flags: W
LayerCount: 4
Back
SplineSet
429 747 m 260
 425.666992188 748.333007812 423.666992188 750.333007812 423 753 c 4
 421.666992188 757.666992188 421.666992188 760.666992188 423 762 c 260
 424.333007812 764.666992188 427.666992188 768 433 772 c 262
 576 882 l 4
 587 891 l 262
 591 893.666992188 595.333007812 896 600 898 c 4
 605.333007812 900 611 899.666992188 617 897 c 260
 623.666992188 894.333007812 628.666992188 890.666992188 632 886 c 4
 635.333007812 880.666992188 635.333007812 873.666992188 632 865 c 260
 630.666992188 861.666992188 629.333007812 859.333007812 628 858 c 4
 626.666992188 856 624.333007812 854 621 852 c 261
 459 753 l 262
 453.666992188 749.666992188 449 747.666992188 445 747 c 4
 438.333007812 745.666992188 433 745.666992188 429 747 c 260
EndSplineSet
Fore
Refer: 739 768 S 1 0 0 1 220 192 2
Refer: 1 65 N 1 0 0 1 0 0 2
EndChar

StartChar: Aogonek
Encoding: 23 260 23
GlifName: Aogonek
Width: 649
VWidth: 0
Flags: W
LayerCount: 4
Fore
SplineSet
574 -185 m 257,0,1
 541 -185 541 -185 513.5 -160 c 128,-1,2
 486 -135 486 -135 486 -93 c 257,3,4
 486 -70 486 -70 493.5 -51 c 128,-1,5
 501 -32 501 -32 513.5 -17 c 128,-1,6
 526 -2 526 -2 541 8 c 128,-1,7
 556 18 556 18 572 23 c 257,8,-1
 582 20 l 257,9,-1
 573 13 l 257,10,-1
 312 657 l 257,11,-1
 327 649 l 257,12,-1
 74 13 l 257,13,14
 72 7 72 7 67 3.5 c 128,-1,15
 62 0 62 0 56 0 c 257,16,17
 46 0 46 0 41 5 c 128,-1,18
 36 10 36 10 35 17 c 257,19,20
 34 21 34 21 36 27 c 257,21,-1
 305 689 l 257,22,23
 308 697 308 697 312.5 699.5 c 128,-1,24
 317 702 317 702 324 702 c 257,25,26
 332 702 332 702 337 698.5 c 128,-1,27
 342 695 342 695 344 689 c 257,28,-1
 613 27 l 257,29,30
 615 21 615 21 615 18 c 257,31,32
 615 9 615 9 609.5 5.5 c 128,-1,33
 604 2 604 2 595 0 c 257,34,35
 568 -5 568 -5 546 -30.5 c 128,-1,36
 524 -56 524 -56 524 -85 c 257,37,38
 524 -115 524 -115 541 -131.5 c 128,-1,39
 558 -148 558 -148 579 -148 c 257,40,41
 604 -148 604 -148 611 -136 c 257,42,43
 615 -130 615 -130 619 -126 c 128,-1,44
 623 -122 623 -122 630 -122 c 257,45,46
 637 -122 637 -122 641.5 -126.5 c 128,-1,47
 646 -131 646 -131 646 -136 c 257,48,49
 646 -149 646 -149 635.5 -160.5 c 128,-1,50
 625 -172 625 -172 608.5 -178.5 c 128,-1,51
 592 -185 592 -185 574 -185 c 257,0,1
142 217 m 257,52,-1
 156 257 l 257,53,-1
 480 257 l 257,54,-1
 490 217 l 257,55,-1
 142 217 l 257,52,-1
EndSplineSet
EndChar

StartChar: Aring
Encoding: 24 197 24
GlifName: Aring
Width: 649
VWidth: 0
Flags: W
LayerCount: 4
Fore
SplineSet
325 741 m 260,0,1
 299 741 299 741 276.5 753.5 c 132,-1,2
 254 766 254 766 240.5 787.5 c 132,-1,3
 227 809 227 809 227 835 c 260,4,5
 227 861 227 861 240.5 882.5 c 132,-1,6
 254 904 254 904 276.5 916.5 c 132,-1,7
 299 929 299 929 325 929 c 260,8,9
 351 929 351 929 373.5 916.5 c 132,-1,10
 396 904 396 904 409.5 882.5 c 132,-1,11
 423 861 423 861 423 835 c 260,12,13
 423 809 423 809 409.5 787.5 c 132,-1,14
 396 766 396 766 373.5 753.5 c 132,-1,15
 351 741 351 741 325 741 c 260,0,1
325 773 m 260,16,17
 351 773 351 773 369 791.5 c 132,-1,18
 387 810 387 810 387 835 c 260,19,20
 387 861 387 861 369 879 c 132,-1,21
 351 897 351 897 325 897 c 260,22,23
 300 897 300 897 281.5 879 c 132,-1,24
 263 861 263 861 263 835 c 260,25,26
 263 810 263 810 281.5 791.5 c 132,-1,27
 300 773 300 773 325 773 c 260,16,17
327 649 m 257,28,-1
 74 13 l 257,29,30
 72 7 72 7 67 3.5 c 128,-1,31
 62 0 62 0 56 0 c 257,32,33
 46 0 46 0 41 5 c 128,-1,34
 36 10 36 10 35 17 c 257,35,36
 34 21 34 21 36 27 c 257,37,-1
 305 689 l 257,38,39
 308 697 308 697 312.5 699.5 c 128,-1,40
 317 702 317 702 324 702 c 257,41,42
 332 702 332 702 337 698.5 c 128,-1,43
 342 695 342 695 344 689 c 257,44,-1
 613 27 l 257,45,46
 614 24 614 24 614 19 c 257,47,48
 614 10 614 10 608 5 c 128,-1,49
 602 0 602 0 593 0 c 257,50,51
 586 0 586 0 580.5 3.5 c 128,-1,52
 575 7 575 7 573 13 c 257,53,-1
 312 657 l 257,54,-1
 327 649 l 257,28,-1
142 217 m 257,55,-1
 156 257 l 257,56,-1
 480 257 l 257,57,-1
 490 217 l 257,58,-1
 142 217 l 257,55,-1
EndSplineSet
EndChar

StartChar: AE
Encoding: 27 198 27
GlifName: AE
Width: 931
VWidth: 0
Flags: W
LayerCount: 4
Fore
SplineSet
168 217 m 257,0,-1
 491 217 l 257,1,-1
 474 201 l 257,2,-1
 474 662 l 257,3,-1
 487 640 l 257,4,-1
 45 8 l 257,5,6
 39 -1 39 -1 28 -1 c 257,7,8
 21 -1 21 -1 15 5 c 128,-1,9
 9 11 9 11 9 20 c 257,10,11
 9 27 9 27 12 31 c 257,12,-1
 474 691 l 257,13,14
 478 696 478 696 482.5 698 c 128,-1,15
 487 700 487 700 492 700 c 257,16,-1
 861 700 l 257,17,18
 869 700 869 700 875 694 c 128,-1,19
 881 688 881 688 881 680 c 257,20,21
 881 671 881 671 875 665.5 c 128,-1,22
 869 660 869 660 861 660 c 257,23,-1
 507 660 l 257,24,-1
 514 670 l 257,25,-1
 514 371 l 257,26,-1
 508 381 l 257,27,-1
 816 381 l 257,28,29
 824 381 824 381 830 375 c 128,-1,30
 836 369 836 369 836 361 c 257,31,32
 836 352 836 352 830 346.5 c 128,-1,33
 824 341 824 341 816 341 c 257,34,-1
 506 341 l 257,35,-1
 514 350 l 257,36,-1
 514 30 l 257,37,-1
 508 40 l 257,38,-1
 861 40 l 257,39,40
 869 40 869 40 875 34 c 128,-1,41
 881 28 881 28 881 20 c 257,42,43
 881 11 881 11 875 5.5 c 128,-1,44
 869 0 869 0 861 0 c 257,45,-1
 494 0 l 257,46,47
 486 0 486 0 480 6 c 128,-1,48
 474 12 474 12 474 20 c 257,49,-1
 474 191 l 257,50,-1
 491 177 l 257,51,-1
 129 177 l 257,52,-1
 168 217 l 257,0,-1
EndSplineSet
EndChar

StartChar: B
Encoding: 29 66 29
GlifName: B
Width: 650
VWidth: 0
Flags: W
LayerCount: 4
Back
SplineSet
242 800 m 13
 242 779 l 277
 242 462 l 261
 242 444 l 261
 242 132 l 261
 242 100 l 5
 220 100 l 261
 214.666666667 100 210 102 206 106 c 132
 202 110 200 114.666666667 200 120 c 261
 200 780 l 261
 200 785.333333333 202 790 206 794 c 132
 210 798 214.666666667 800 220 800 c 261
 242 800 l 13
232 140 m 277
 491 140 l 261
 538.333333333 140 578 151.833333333 610 175.5 c 132
 642 199.166666667 658 237 658 289 c 261
 658 323.666666667 650.666666667 352 636 374 c 132
 621.333333333 396 601.333333333 412.166666667 576 422.5 c 132
 550.666666667 432.833333333 522.333333333 438 491 438 c 261
 232 438 l 261
 232 479 l 261
 484 479 l 261
 523.333333333 479.666666667 556.333333333 492.666666667 583 518 c 132
 609.666666667 543.333333333 623 581 623 631 c 261
 623 669.666666667 611 700.833333333 587 724.5 c 132
 563 748.166666667 528.666666667 760 484 760 c 261
 232 760 l 261
 232 800 l 5
 489 800 l 261
 542.333333333 800 585 784.666666667 617 754 c 132
 649 723.333333333 665 682 665 630 c 261
 665 602.666666667 659.5 576.166666667 648.5 550.5 c 132
 637.5 524.833333333 621.333333333 503.666666667 600 487 c 132
 578.666666667 470.333333333 552.333333333 460.666666667 521 458 c 261
 514 470 l 261
 540 470 564.333333333 466.166666667 587 458.5 c 132
 609.666666667 450.833333333 629.333333333 439.333333333 646 424 c 132
 662.666666667 408.666666667 675.833333333 389.833333333 685.5 367.5 c 132
 695.166666667 345.166666667 700 319 700 289 c 261
 700 257 694.666666667 229.166666667 684 205.5 c 132
 673.333333333 181.833333333 658.666666667 162.166666667 640 146.5 c 132
 621.333333333 130.833333333 599.666666667 119.166666667 575 111.5 c 132
 550.333333333 103.833333333 524 100 496 100 c 261
 232 100 l 13
 232 140 l 277
389 700 m 257
 442.333333333 700 485 684.666666667 517 654 c 128
 549 623.333333333 565 582 565 530 c 257
 565 502.666666667 559.5 476.166666667 548.5 450.5 c 128
 537.5 424.833333333 521.333333333 403.666666667 500 387 c 128
 478.666666667 370.333333333 452.333333333 360.666666667 421 358 c 257
 414 370 l 257
 440 370 464.333333333 366.166666667 487 358.5 c 128
 509.666666667 350.833333333 529.333333333 339.333333333 546 324 c 128
 562.666666667 308.666666667 575.833333333 289.833333333 585.5 267.5 c 128
 595.166666667 245.166666667 600 219 600 189 c 257
 600 157 594.666666667 129.166666667 584 105.5 c 128
 573.333333333 81.8333333333 558.666666667 62.1666666667 540 46.5 c 128
 521.333333333 30.8333333333 499.666666667 19.1666666667 475 11.5 c 128
 450.333333333 3.83333333333 424 0 396 0 c 257
 120 0 l 257
 114.666666667 0 110 2 106 6 c 128
 102 10 100 14.6666666667 100 20 c 257
 100 680 l 257
 100 685.333333333 102 690 106 694 c 128
 110 698 114.666666667 700 120 700 c 257
 389 700 l 257
384 660 m 257
 131 660 l 257
 142 679 l 257
 142 362 l 257
 132 379 l 257
 384 379 l 257
 423.333333333 379.666666667 456.333333333 392.666666667 483 418 c 128
 509.666666667 443.333333333 523 481 523 531 c 257
 523 569.666666667 511 600.833333333 487 624.5 c 128
 463 648.166666667 428.666666667 660 384 660 c 257
391 338 m 257
 138 338 l 257
 142 344 l 257
 142 32 l 257
 137 40 l 257
 391 40 l 257
 438.333333333 40 478 51.8333333333 510 75.5 c 128
 542 99.1666666667 558 137 558 189 c 257
 558 223.666666667 550.666666667 252 536 274 c 128
 521.333333333 296 501.333333333 312.166666667 476 322.5 c 128
 450.666666667 332.833333333 422.333333333 338 391 338 c 257
EndSplineSet
Fore
SplineSet
389 700 m 258,0,1
 469 700 469 700 517 654 c 128,-1,2
 565 608 565 608 565 530 c 256,3,4
 565 489 565 489 548.5 450.5 c 128,-1,5
 532 412 532 412 500 387 c 128,-1,6
 468 362 468 362 421 358 c 257,7,-1
 414 370 l 257,8,9
 453 370 453 370 487 358.5 c 128,-1,10
 521 347 521 347 546 324 c 128,-1,11
 571 301 571 301 585.5 267.5 c 128,-1,12
 600 234 600 234 600 189 c 256,13,14
 600 141 600 141 584 105.5 c 128,-1,15
 568 70 568 70 540 46.5 c 128,-1,16
 512 23 512 23 475 11.5 c 128,-1,17
 438 0 438 0 396 0 c 258,18,-1
 120 0 l 258,19,20
 112 0 112 0 106 6 c 128,-1,21
 100 12 100 12 100 20 c 258,22,-1
 100 680 l 258,23,24
 100 688 100 688 106 694 c 128,-1,25
 112 700 112 700 120 700 c 258,26,-1
 389 700 l 258,0,1
384 660 m 258,27,-1
 142 660 l 1,28,-1
 142 379 l 1,29,-1
 384 379 l 257,30,31
 443 380 443 380 483 418 c 128,-1,32
 523 456 523 456 523 531 c 256,33,34
 523 589 523 589 487 624.5 c 128,-1,35
 451 660 451 660 384 660 c 258,27,-1
391 338 m 258,36,-1
 142 338 l 1,37,-1
 142 32 l 257,38,-1
 137 40 l 257,39,-1
 391 40 l 258,40,41
 462 40 462 40 510 75.5 c 128,-1,42
 558 111 558 111 558 189 c 256,43,44
 558 241 558 241 536 274 c 128,-1,45
 514 307 514 307 476 322.5 c 128,-1,46
 438 338 438 338 391 338 c 258,36,-1
EndSplineSet
EndChar

StartChar: C
Encoding: 30 67 30
GlifName: C
Width: 662
VWidth: 0
Flags: W
LayerCount: 4
Fore
SplineSet
618 642 m 257,0,1
 626 636 626 636 627 628.5 c 128,-1,2
 628 621 628 621 623 613 c 257,3,4
 618 606 618 606 610.5 605.5 c 128,-1,5
 603 605 603 605 596 609 c 257,6,7
 554 638 554 638 504.5 655 c 128,-1,8
 455 672 455 672 399 672 c 257,9,10
 335 672 335 672 279.5 648.5 c 128,-1,11
 224 625 224 625 182 582 c 128,-1,12
 140 539 140 539 116 480 c 128,-1,13
 92 421 92 421 92 350 c 257,14,15
 92 279 92 279 116 220 c 128,-1,16
 140 161 140 161 182 118 c 128,-1,17
 224 75 224 75 279.5 51.5 c 128,-1,18
 335 28 335 28 399 28 c 257,19,20
 455 28 455 28 504 45 c 128,-1,21
 553 62 553 62 595 90 c 257,22,23
 602 95 602 95 610 94 c 128,-1,24
 618 93 618 93 623 86 c 257,25,26
 628 79 628 79 627 71 c 128,-1,27
 626 63 626 63 619 58 c 257,28,29
 595 41 595 41 558.5 25 c 128,-1,30
 522 9 522 9 481 -0.5 c 128,-1,31
 440 -10 440 -10 399 -10 c 257,32,33
 327 -10 327 -10 264 17 c 128,-1,34
 201 44 201 44 153 92.5 c 128,-1,35
 105 141 105 141 77.5 206.5 c 128,-1,36
 50 272 50 272 50 350 c 257,37,38
 50 428 50 428 77.5 493.5 c 128,-1,39
 105 559 105 559 153 607.5 c 128,-1,40
 201 656 201 656 264 683 c 128,-1,41
 327 710 327 710 399 710 c 257,42,43
 460 710 460 710 516.5 692 c 128,-1,44
 573 674 573 674 618 642 c 257,0,1
EndSplineSet
EndChar

StartChar: D
Encoding: 37 68 37
GlifName: D
Width: 720
VWidth: 0
Flags: W
LayerCount: 4
Back
SplineSet
380 700 m 261
 430 700 473.333333333 690.5 510 671.5 c 132
 546.666666667 652.5 576.833333333 626.5 600.5 593.5 c 132
 624.166666667 560.5 641.666666667 523 653 481 c 132
 664.333333333 439 670 395.333333333 670 350 c 261
 670 286 659.833333333 227.5 639.5 174.5 c 132
 619.166666667 121.5 587.666666667 79.1666666667 545 47.5 c 132
 502.333333333 15.8333333333 447.333333333 0 380 0 c 261
 120 0 l 261
 114.666666667 0 110 2 106 6 c 132
 102 10 100 14.6666666667 100 20 c 261
 100 680 l 261
 100 685.333333333 102 690 106 694 c 132
 110 698 114.666666667 700 120 700 c 261
 380 700 l 261
370 40 m 261
 431.333333333 40 480.833333333 53.8333333333 518.5 81.5 c 132
 556.166666667 109.166666667 583.833333333 146.5 601.5 193.5 c 132
 619.166666667 240.5 628 292.666666667 628 350 c 261
 628 390.666666667 623.166666667 429.666666667 613.5 467 c 132
 603.833333333 504.333333333 588.666666667 537.5 568 566.5 c 132
 547.333333333 595.5 520.666666667 618.333333333 488 635 c 132
 455.333333333 651.666666667 416 660 370 660 c 261
 136 660 l 261
 142 668 l 261
 142 31 l 261
 136 40 l 261
 370 40 l 261
EndSplineSet
Fore
SplineSet
380 700 m 257,0,1
 455 700 455 700 510 671.5 c 128,-1,2
 565 643 565 643 600.5 593.5 c 128,-1,3
 636 544 636 544 653 481 c 128,-1,4
 670 418 670 418 670 350 c 257,5,6
 670 254 670 254 639.5 174.5 c 128,-1,7
 609 95 609 95 545 47.5 c 128,-1,8
 481 0 481 0 380 0 c 257,9,-1
 120 0 l 257,10,11
 112 0 112 0 106 6 c 128,-1,12
 100 12 100 12 100 20 c 257,13,-1
 100 680 l 257,14,15
 100 688 100 688 106 694 c 128,-1,16
 112 700 112 700 120 700 c 257,17,-1
 380 700 l 257,0,1
370 40 m 257,18,19
 462 40 462 40 518.5 81.5 c 128,-1,20
 575 123 575 123 601.5 193.5 c 128,-1,21
 628 264 628 264 628 350 c 257,22,23
 628 411 628 411 613.5 467 c 128,-1,24
 599 523 599 523 568 566.5 c 128,-1,25
 537 610 537 610 488 635 c 128,-1,26
 439 660 439 660 370 660 c 257,27,-1
 142 660 l 1,28,-1
 142 31 l 257,29,-1
 136 40 l 257,30,-1
 370 40 l 257,18,19
EndSplineSet
EndChar

StartChar: E
Encoding: 47 69 47
GlifName: E
Width: 567
VWidth: 0
Flags: W
LayerCount: 4
Fore
SplineSet
120 700 m 257,0,-1
 497 700 l 257,1,2
 505 700 505 700 511 694 c 128,-1,3
 517 688 517 688 517 680 c 257,4,5
 517 671 517 671 511 665.5 c 128,-1,6
 505 660 505 660 497 660 c 257,7,-1
 132 660 l 257,8,-1
 142 677 l 257,9,-1
 142 367 l 257,10,-1
 130 381 l 257,11,-1
 452 381 l 257,12,13
 460 381 460 381 466 375 c 128,-1,14
 472 369 472 369 472 361 c 257,15,16
 472 352 472 352 466 346.5 c 128,-1,17
 460 341 460 341 452 341 c 257,18,-1
 132 341 l 257,19,-1
 142 352 l 257,20,-1
 142 35 l 257,21,-1
 138 40 l 257,22,-1
 497 40 l 257,23,24
 505 40 505 40 511 34 c 128,-1,25
 517 28 517 28 517 20 c 257,26,27
 517 11 517 11 511 5.5 c 128,-1,28
 505 0 505 0 497 0 c 257,29,-1
 120 0 l 257,30,31
 112 0 112 0 106 6 c 128,-1,32
 100 12 100 12 100 20 c 257,33,-1
 100 680 l 257,34,35
 100 688 100 688 106 694 c 128,-1,36
 112 700 112 700 120 700 c 257,0,-1
EndSplineSet
EndChar

StartChar: Eacute
Encoding: 48 201 48
GlifName: Eacute
Width: 567
VWidth: 0
Flags: W
LayerCount: 4
Back
SplineSet
229 747 m 260
 225.666992188 748.333007812 223.666992188 750.333007812 223 753 c 4
 221.666992188 757.666992188 221.666992188 760.666992188 223 762 c 260
 224.333007812 764.666992188 227.666992188 768 233 772 c 262
 376 882 l 4
 387 891 l 262
 391 893.666992188 395.333007812 896 400 898 c 4
 405.333007812 900 411 899.666992188 417 897 c 260
 423.666992188 894.333007812 428.666992188 890.666992188 432 886 c 4
 435.333007812 880.666992188 435.333007812 873.666992188 432 865 c 260
 430.666992188 861.666992188 429.333007812 859.333007812 428 858 c 4
 426.666992188 856 424.333007812 854 421 852 c 261
 259 753 l 262
 253.666992188 749.666992188 249 747.666992188 245 747 c 4
 238.333007812 745.666992188 233 745.666992188 229 747 c 260
EndSplineSet
Fore
Refer: 740 769 S 1 0 0 1 210 192 2
Refer: 47 69 N 1 0 0 1 0 0 2
EndChar

StartChar: uni1EBE
Encoding: 53 7870 53
GlifName: uni1EBE
Width: 567
VWidth: 0
Flags: W
LayerCount: 4
Back
SplineSet
169 885 m 260
 165.666992188 886.333007812 163.666992188 888.333007812 163 891 c 4
 161.666992188 895.666992188 161.666992188 898.666992188 163 900 c 260
 164.333007812 902.666992188 167.666992188 906 173 910 c 262
 316 1020 l 4
 327 1029 l 262
 331 1031.66699219 335.333007812 1034 340 1036 c 4
 345.333007812 1038 351 1037.66699219 357 1035 c 260
 363.666992188 1032.33300781 368.666992188 1028.66699219 372 1024 c 4
 375.333007812 1018.66699219 375.333007812 1011.66699219 372 1003 c 260
 370.666992188 999.666992188 369.333007812 997.333007812 368 996 c 4
 366.666992188 994 364.333007812 992 361 990 c 261
 199 891 l 262
 193.666992188 887.666992188 189 885.666992188 185 885 c 4
 178.333007812 883.666992188 173 883.666992188 169 885 c 260
EndSplineSet
Fore
Refer: 740 769 S 1 0 0 1 150 330 2
Refer: 47 69 N 1 0 0 1 0 0 2
Refer: 784 -1 N 1 0 0 1 165 90 2
EndChar

StartChar: uni1EC0
Encoding: 55 7872 55
GlifName: uni1EC0
Width: 567
VWidth: 0
Flags: W
LayerCount: 4
Back
SplineSet
459 885 m 260
 455.666992188 886.333007812 453.666992188 888.333007812 453 891 c 4
 451.666992188 895.666992188 451.666992188 898.666992188 453 900 c 260
 454.333007812 902.666992188 457.666992188 906 463 910 c 262
 606 1020 l 4
 617 1029 l 262
 621 1031.66699219 625.333007812 1034 630 1036 c 4
 635.333007812 1038 641 1037.66699219 647 1035 c 260
 653.666992188 1032.33300781 658.666992188 1028.66699219 662 1024 c 4
 665.333007812 1018.66699219 665.333007812 1011.66699219 662 1003 c 260
 660.666992188 999.666992188 659.333007812 997.333007812 658 996 c 4
 656.666992188 994 654.333007812 992 651 990 c 261
 489 891 l 262
 483.666992188 887.666992188 479 885.666992188 475 885 c 4
 468.333007812 883.666992188 463 883.666992188 459 885 c 260
EndSplineSet
Fore
Refer: 739 768 S 1 0 0 1 240 330 2
Refer: 47 69 N 1 0 0 1 0 0 2
Refer: 784 -1 N 1 0 0 1 165 90 2
EndChar

StartChar: Egrave
Encoding: 62 200 62
GlifName: Egrave
Width: 567
VWidth: 0
Flags: W
LayerCount: 4
Back
SplineSet
379 747 m 260
 375.666992188 748.333007812 373.666992188 750.333007812 373 753 c 4
 371.666992188 757.666992188 371.666992188 760.666992188 373 762 c 260
 374.333007812 764.666992188 377.666992188 768 383 772 c 262
 526 882 l 4
 537 891 l 262
 541 893.666992188 545.333007812 896 550 898 c 4
 555.333007812 900 561 899.666992188 567 897 c 260
 573.666992188 894.333007812 578.666992188 890.666992188 582 886 c 4
 585.333007812 880.666992188 585.333007812 873.666992188 582 865 c 260
 580.666992188 861.666992188 579.333007812 859.333007812 578 858 c 4
 576.666992188 856 574.333007812 854 571 852 c 261
 409 753 l 262
 403.666992188 749.666992188 399 747.666992188 395 747 c 4
 388.333007812 745.666992188 383 745.666992188 379 747 c 260
EndSplineSet
Fore
Refer: 739 768 S 1 0 0 1 160 191 2
Refer: 47 69 N 1 0 0 1 0 0 2
EndChar

StartChar: Eogonek
Encoding: 68 280 68
GlifName: Eogonek
Width: 581
VWidth: 0
Flags: W
LayerCount: 4
Fore
SplineSet
459 -185 m 257,0,1
 426 -185 426 -185 398.5 -160 c 128,-1,2
 371 -135 371 -135 371 -93 c 257,3,4
 371 -70 371 -70 378.5 -51.5 c 128,-1,5
 386 -33 386 -33 398.5 -20 c 128,-1,6
 411 -7 411 -7 426 2.5 c 128,-1,7
 441 12 441 12 457 17 c 257,8,-1
 465 0 l 257,9,-1
 120 0 l 257,10,11
 112 0 112 0 106 6 c 128,-1,12
 100 12 100 12 100 20 c 257,13,-1
 100 680 l 257,14,15
 100 688 100 688 106 694 c 128,-1,16
 112 700 112 700 120 700 c 257,17,-1
 497 700 l 257,18,19
 505 700 505 700 511 694 c 128,-1,20
 517 688 517 688 517 680 c 257,21,22
 517 671 517 671 511 665.5 c 128,-1,23
 505 660 505 660 497 660 c 257,24,-1
 132 660 l 257,25,-1
 142 677 l 257,26,-1
 142 367 l 257,27,-1
 130 381 l 257,28,-1
 452 381 l 257,29,30
 460 381 460 381 466 375 c 128,-1,31
 472 369 472 369 472 361 c 257,32,33
 472 352 472 352 466 346.5 c 128,-1,34
 460 341 460 341 452 341 c 257,35,-1
 132 341 l 257,36,-1
 142 352 l 257,37,-1
 142 35 l 257,38,-1
 138 40 l 257,39,-1
 497 40 l 257,40,41
 505 40 505 40 511 34 c 128,-1,42
 517 28 517 28 517 20 c 257,43,44
 517 11 517 11 510.5 5.5 c 128,-1,45
 504 0 504 0 492 -1 c 257,46,47
 474 -2 474 -2 455 -13.5 c 128,-1,48
 436 -25 436 -25 422.5 -43.5 c 128,-1,49
 409 -62 409 -62 409 -85 c 257,50,51
 409 -115 409 -115 426 -131.5 c 128,-1,52
 443 -148 443 -148 464 -148 c 257,53,54
 491 -148 491 -148 496 -137 c 257,55,56
 500 -130 500 -130 505 -126 c 128,-1,57
 510 -122 510 -122 517 -122 c 257,58,59
 524 -122 524 -122 527.5 -126.5 c 128,-1,60
 531 -131 531 -131 531 -136 c 257,61,62
 531 -149 531 -149 521.5 -160.5 c 128,-1,63
 512 -172 512 -172 496 -178.5 c 128,-1,64
 480 -185 480 -185 459 -185 c 257,0,1
EndSplineSet
EndChar

StartChar: F
Encoding: 70 70 70
GlifName: F
Width: 567
VWidth: 0
Flags: W
LayerCount: 4
Fore
SplineSet
120 0 m 257,0,1
 111 0 111 0 105.5 6 c 128,-1,2
 100 12 100 12 100 20 c 257,3,-1
 100 680 l 257,4,5
 100 688 100 688 106 694 c 128,-1,6
 112 700 112 700 120 700 c 257,7,-1
 497 700 l 257,8,9
 505 700 505 700 511 694 c 128,-1,10
 517 688 517 688 517 680 c 257,11,12
 517 671 517 671 511 665.5 c 128,-1,13
 505 660 505 660 497 660 c 257,14,-1
 137 660 l 257,15,-1
 140 664 l 257,16,-1
 140 376 l 257,17,-1
 136 384 l 257,18,-1
 452 384 l 257,19,20
 460 384 460 384 466 378 c 128,-1,21
 472 372 472 372 472 364 c 257,22,23
 472 355 472 355 466 349.5 c 128,-1,24
 460 344 460 344 452 344 c 257,25,-1
 134 344 l 257,26,-1
 140 352 l 257,27,-1
 140 20 l 257,28,29
 140 12 140 12 134.5 6 c 128,-1,30
 129 0 129 0 120 0 c 257,0,1
EndSplineSet
EndChar

StartChar: G
Encoding: 71 71 71
GlifName: G
Width: 694
VWidth: 0
Flags: W
LayerCount: 4
Fore
SplineSet
409 -10 m 257,0,1
 331 -10 331 -10 265.5 16.5 c 128,-1,2
 200 43 200 43 151.5 91.5 c 128,-1,3
 103 140 103 140 76.5 206 c 128,-1,4
 50 272 50 272 50 350 c 257,5,6
 50 428 50 428 76.5 494 c 128,-1,7
 103 560 103 560 151.5 608.5 c 128,-1,8
 200 657 200 657 265.5 683.5 c 128,-1,9
 331 710 331 710 409 710 c 257,10,11
 464 710 464 710 515 696.5 c 128,-1,12
 566 683 566 683 606 656 c 257,13,14
 611 653 611 653 613 648.5 c 128,-1,15
 615 644 615 644 615 639 c 257,16,17
 615 629 615 629 608 624 c 128,-1,18
 601 619 601 619 596 619 c 257,19,20
 592 619 592 619 589 620.5 c 128,-1,21
 586 622 586 622 583 623 c 257,22,23
 546 644 546 644 502 657 c 128,-1,24
 458 670 458 670 409 670 c 257,25,26
 316 670 316 670 244.5 628.5 c 128,-1,27
 173 587 173 587 132.5 515 c 128,-1,28
 92 443 92 443 92 350 c 257,29,30
 92 257 92 257 132.5 184.5 c 128,-1,31
 173 112 173 112 244.5 71 c 128,-1,32
 316 30 316 30 409 30 c 257,33,34
 459 30 459 30 507.5 45.5 c 128,-1,35
 556 61 556 61 593 86 c 257,36,-1
 589 68 l 257,37,-1
 589 318 l 257,38,-1
 603 305 l 257,39,-1
 409 305 l 257,40,41
 401 305 401 305 395 311 c 128,-1,42
 389 317 389 317 389 325 c 257,43,44
 389 334 389 334 395 339.5 c 128,-1,45
 401 345 401 345 409 345 c 257,46,-1
 609 345 l 257,47,48
 618 345 618 345 623.5 339 c 128,-1,49
 629 333 629 333 629 325 c 257,50,-1
 629 74 l 257,51,52
 629 70 629 70 627 65 c 128,-1,53
 625 60 625 60 620 56 c 257,54,55
 576 26 576 26 521.5 8 c 128,-1,56
 467 -10 467 -10 409 -10 c 257,0,1
EndSplineSet
EndChar

StartChar: H
Encoding: 78 72 78
GlifName: H
Width: 720
VWidth: 0
Flags: W
LayerCount: 4
Back
SplineSet
121 700 m 261
 127 700 132 698 136 694 c 132
 140 690 142 685 142 679 c 261
 142 21 l 261
 141.333333333 15 139 10 135 6 c 132
 131 2 126.333333333 0 121 0 c 261
 114.333333333 0 109.166666667 2 105.5 6 c 132
 101.833333333 10 100 15 100 21 c 261
 100 679 l 261
 100 685 102 690 106 694 c 132
 110 698 115 700 121 700 c 261
599 700 m 261
 605 700 610 698 614 694 c 132
 618 690 620 685 620 679 c 261
 620 21 l 261
 619.333333333 15 617 10 613 6 c 132
 609 2 604.333333333 0 599 0 c 261
 592.333333333 0 587.166666667 2 583.5 6 c 132
 579.833333333 10 578 15 578 21 c 261
 578 679 l 261
 578 685 580 690 584 694 c 132
 588 698 593 700 599 700 c 261
116 380 m 261
 601 380 l 261
 599 340 l 261
 110 340 l 261
 116 380 l 261
EndSplineSet
Fore
SplineSet
142 314 m 16,0,-1
 142 21 l 257,1,2
 141 12 141 12 135 6 c 128,-1,3
 129 0 129 0 121 0 c 257,4,5
 111 0 111 0 105.5 6 c 128,-1,6
 100 12 100 12 100 21 c 257,7,-1
 100 679 l 257,8,9
 100 688 100 688 106 694 c 128,-1,10
 112 700 112 700 121 700 c 257,11,12
 130 700 130 700 136 694 c 128,-1,13
 142 688 142 688 142 679 c 257,14,-1
 142 404 l 0,15,-1
 141.666666667 380 l 1,16,-1
 601 380 l 257,17,-1
 601 340 l 257,18,-1
 142.549804688 340 l 13,19,20
 142 340 142 340 142 314 c 16,0,-1
599 700 m 257,21,22
 608 700 608 700 614 694 c 128,-1,23
 620 688 620 688 620 679 c 257,24,-1
 620 21 l 257,25,26
 619 12 619 12 613 6 c 128,-1,27
 607 0 607 0 599 0 c 257,28,29
 589 0 589 0 583.5 6 c 128,-1,30
 578 12 578 12 578 21 c 257,31,-1
 578 679 l 257,32,33
 578 688 578 688 584 694 c 128,-1,34
 590 700 590 700 599 700 c 257,21,22
EndSplineSet
EndChar

StartChar: Hbar
Encoding: 79 294 79
GlifName: Hbar
Width: 841
VWidth: 0
Flags: W
LayerCount: 4
Fore
SplineSet
120 489 m 257,0,1
 112 489 112 489 106 495 c 128,-1,2
 100 501 100 501 100 509 c 257,3,4
 100 518 100 518 106 523.5 c 128,-1,5
 112 529 112 529 120 529 c 257,6,-1
 721 529 l 257,7,8
 729 529 729 529 735 523 c 128,-1,9
 741 517 741 517 741 509 c 257,10,11
 741 500 741 500 735 494.5 c 128,-1,12
 729 489 729 489 721 489 c 257,13,-1
 120 489 l 257,0,1
181 700 m 257,14,15
 190 700 190 700 196 694 c 128,-1,16
 202 688 202 688 202 679 c 257,17,-1
 202 21 l 257,18,19
 201 12 201 12 195 6 c 128,-1,20
 189 0 189 0 181 0 c 257,21,22
 171 0 171 0 165.5 6 c 128,-1,23
 160 12 160 12 160 21 c 257,24,-1
 160 679 l 257,25,26
 160 688 160 688 166 694 c 128,-1,27
 172 700 172 700 181 700 c 257,14,15
659 700 m 257,28,29
 668 700 668 700 674 694 c 128,-1,30
 680 688 680 688 680 679 c 257,31,-1
 680 21 l 257,32,33
 679 12 679 12 673 6 c 128,-1,34
 667 0 667 0 659 0 c 257,35,36
 649 0 649 0 643.5 6 c 128,-1,37
 638 12 638 12 638 21 c 257,38,-1
 638 679 l 257,39,40
 638 688 638 688 644 694 c 128,-1,41
 650 700 650 700 659 700 c 257,28,29
176 380 m 257,42,-1
 661 380 l 257,43,-1
 659 340 l 257,44,-1
 170 340 l 257,45,-1
 176 380 l 257,42,-1
EndSplineSet
EndChar

StartChar: I
Encoding: 83 73 83
GlifName: I
Width: 322
VWidth: 0
Flags: W
LayerCount: 4
Back
SplineSet
46 0 m 262
 40.6666666667 0 36.1666666667 2 32.5 6 c 132
 28.8333333333 10 27 15 27 21 c 260
 27 26.3333333333 28.8333333333 30.8333333333 32.5 34.5 c 132
 36.1666666667 38.1666666667 40.6666666667 40 46 40 c 262
 236 40 l 262
 241.333333333 40 245.833333333 38 249.5 34 c 132
 253.166666667 30 255 25 255 19 c 260
 255 13.6666666667 253.166666667 9.16666666667 249.5 5.5 c 132
 245.833333333 1.83333333333 241.333333333 0 236 0 c 262
 46 0 l 262
46 660 m 262
 40.6666666667 660 36.1666666667 662 32.5 666 c 132
 28.8333333333 670 27 675 27 681 c 260
 27 686.333333333 28.8333333333 690.833333333 32.5 694.5 c 132
 36.1666666667 698.166666667 40.6666666667 700 46 700 c 262
 236 700 l 262
 241.333333333 700 245.833333333 698 249.5 694 c 132
 253.166666667 690 255 685 255 679 c 260
 255 673.666666667 253.166666667 669.166666667 249.5 665.5 c 132
 245.833333333 661.833333333 241.333333333 660 236 660 c 262
 46 660 l 262
162 41 m 261
 161.333333333 35 159 30 155 26 c 132
 151 22 146.333333333 20 141 20 c 261
 134.333333333 20 129.166666667 22 125.5 26 c 132
 121.833333333 30 120 35 120 41 c 261
 120 659 l 261
 120 665 122 670 126 674 c 132
 130 678 135 680 141 680 c 261
 147 680 152 678 156 674 c 132
 160 670 162 665 162 659 c 261
 162 41 l 261
EndSplineSet
Fore
SplineSet
46 0 m 262,0,1
 38 0 38 0 32.5 6 c 132,-1,2
 27 12 27 12 27 21 c 260,3,4
 27 29 27 29 32.5 34.5 c 132,-1,5
 38 40 38 40 46 40 c 262,6,-1
 276 40 l 262,7,8
 284 40 284 40 289.5 34 c 132,-1,9
 295 28 295 28 295 19 c 260,10,11
 295 11 295 11 289.5 5.5 c 132,-1,12
 284 0 284 0 276 0 c 262,13,-1
 46 0 l 262,0,1
46 660 m 262,14,15
 38 660 38 660 32.5 666 c 132,-1,16
 27 672 27 672 27 681 c 260,17,18
 27 689 27 689 32.5 694.5 c 132,-1,19
 38 700 38 700 46 700 c 262,20,-1
 276 700 l 262,21,22
 284 700 284 700 289.5 694 c 132,-1,23
 295 688 295 688 295 679 c 260,24,25
 295 671 295 671 289.5 665.5 c 132,-1,26
 284 660 284 660 276 660 c 262,27,-1
 46 660 l 262,14,15
182 41 m 261,28,29
 181 32 181 32 175 26 c 132,-1,30
 169 20 169 20 161 20 c 261,31,32
 151 20 151 20 145.5 26 c 132,-1,33
 140 32 140 32 140 41 c 261,34,-1
 140 659 l 261,35,36
 140 668 140 668 146 674 c 132,-1,37
 152 680 152 680 161 680 c 261,38,39
 170 680 170 680 176 674 c 132,-1,40
 182 668 182 668 182 659 c 261,41,-1
 182 41 l 261,28,29
EndSplineSet
EndChar

StartChar: IJ
Encoding: 84 306 84
GlifName: IJ
Width: 603
VWidth: 0
Flags: W
LayerCount: 4
Fore
SplineSet
158 251 m 257,0,1
 157 242 157 242 151 236 c 128,-1,2
 145 230 145 230 137 230 c 257,3,4
 127 230 127 230 121.5 236 c 128,-1,5
 116 242 116 242 116 251 c 257,6,-1
 116 679 l 257,7,8
 116 688 116 688 122 694 c 128,-1,9
 128 700 128 700 137 700 c 257,10,11
 146 700 146 700 152 694 c 128,-1,12
 158 688 158 688 158 679 c 257,13,-1
 158 251 l 257,0,1
292 -10 m 257,14,15
 227 -10 227 -10 177 29 c 128,-1,16
 127 68 127 68 102 129 c 257,17,18
 100 135 100 135 100 139 c 257,19,20
 100 148 100 148 106.5 152.5 c 128,-1,21
 113 157 113 157 120 157 c 257,22,23
 128 157 128 157 132 153.5 c 128,-1,24
 136 150 136 150 139 144 c 257,25,26
 158 94 158 94 199 62 c 128,-1,27
 240 30 240 30 292 30 c 257,28,29
 344 30 344 30 381.5 51 c 128,-1,30
 419 72 419 72 440 110 c 128,-1,31
 461 148 461 148 461 199 c 257,32,-1
 461 680 l 257,33,34
 461 688 461 688 467 694 c 128,-1,35
 473 700 473 700 483 700 c 257,36,37
 492 700 492 700 497.5 694 c 128,-1,38
 503 688 503 688 503 680 c 257,39,-1
 503 199 l 257,40,41
 503 137 503 137 476.5 89.5 c 128,-1,42
 450 42 450 42 402.5 16 c 128,-1,43
 355 -10 355 -10 292 -10 c 257,14,15
EndSplineSet
EndChar

StartChar: Iacute
Encoding: 85 205 85
GlifName: Iacute
Width: 322
VWidth: 0
Flags: W
LayerCount: 4
Back
SplineSet
79 747 m 260
 75.6669921875 748.333007812 73.6669921875 750.333007812 73 753 c 4
 71.6669921875 757.666992188 71.6669921875 760.666992188 73 762 c 260
 74.3330078125 764.666992188 77.6669921875 768 83 772 c 262
 226 882 l 4
 237 891 l 262
 241 893.666992188 245.333007812 896 250 898 c 4
 255.333007812 900 261 899.666992188 267 897 c 260
 273.666992188 894.333007812 278.666992188 890.666992188 282 886 c 4
 285.333007812 880.666992188 285.333007812 873.666992188 282 865 c 260
 280.666992188 861.666992188 279.333007812 859.333007812 278 858 c 4
 276.666992188 856 274.333007812 854 271 852 c 261
 109 753 l 262
 103.666992188 749.666992188 99 747.666992188 95 747 c 4
 88.3330078125 745.666992188 83 745.666992188 79 747 c 260
EndSplineSet
Fore
Refer: 740 769 S 1 0 0 1 60 192 2
Refer: 83 73 N 1 0 0 1 0 0 2
EndChar

StartChar: Igrave
Encoding: 94 204 94
GlifName: Igrave
Width: 322
VWidth: 0
Flags: W
LayerCount: 4
Back
SplineSet
229 747 m 260
 225.666992188 748.333007812 223.666992188 750.333007812 223 753 c 4
 221.666992188 757.666992188 221.666992188 760.666992188 223 762 c 260
 224.333007812 764.666992188 227.666992188 768 233 772 c 262
 376 882 l 4
 387 891 l 262
 391 893.666992188 395.333007812 896 400 898 c 4
 405.333007812 900 411 899.666992188 417 897 c 260
 423.666992188 894.333007812 428.666992188 890.666992188 432 886 c 4
 435.333007812 880.666992188 435.333007812 873.666992188 432 865 c 260
 430.666992188 861.666992188 429.333007812 859.333007812 428 858 c 4
 426.666992188 856 424.333007812 854 421 852 c 261
 259 753 l 262
 253.666992188 749.666992188 249 747.666992188 245 747 c 4
 238.333007812 745.666992188 233 745.666992188 229 747 c 260
EndSplineSet
Fore
Refer: 739 768 S 1 0 0 1 20 191 2
Refer: 83 73 N 1 0 0 1 0 0 2
EndChar

StartChar: Iogonek
Encoding: 98 302 98
GlifName: Iogonek
Width: 322
VWidth: 0
Flags: W
LayerCount: 4
Fore
SplineSet
46 0 m 258,0,1
 38 0 38 0 32.5 6 c 128,-1,2
 27 12 27 12 27 21 c 256,3,4
 27 29 27 29 32.5 34.5 c 128,-1,5
 38 40 38 40 46 40 c 258,6,-1
 276 40 l 258,7,8
 284 40 284 40 289.5 34 c 128,-1,9
 295 28 295 28 295 19 c 256,10,11
 295 11 295 11 289.5 5.5 c 128,-1,12
 284 0 284 0 276 0 c 258,13,-1
 46 0 l 258,0,1
46 660 m 258,14,15
 38 660 38 660 32.5 666 c 128,-1,16
 27 672 27 672 27 681 c 256,17,18
 27 689 27 689 32.5 694.5 c 128,-1,19
 38 700 38 700 46 700 c 258,20,-1
 276 700 l 258,21,22
 284 700 284 700 289.5 694 c 128,-1,23
 295 688 295 688 295 679 c 256,24,25
 295 671 295 671 289.5 665.5 c 128,-1,26
 284 660 284 660 276 660 c 258,27,-1
 46 660 l 258,14,15
145 -185 m 257,28,29
 112 -185 112 -185 84.5 -160 c 128,-1,30
 57 -135 57 -135 57 -93 c 257,31,32
 57 -70 57 -70 64 -51 c 128,-1,33
 71 -32 71 -32 83 -17 c 128,-1,34
 95 -2 95 -2 110 8 c 128,-1,35
 125 18 125 18 141 23 c 257,36,-1
 146 19 l 257,37,-1
 140 21 l 257,38,-1
 140 659 l 257,39,40
 140 668 140 668 146 674 c 128,-1,41
 152 680 152 680 161 680 c 257,42,43
 170 680 170 680 176 674 c 128,-1,44
 182 668 182 668 182 659 c 257,45,-1
 182 30 l 257,46,47
 182 20 182 20 177.5 15.5 c 128,-1,48
 173 11 173 11 162 6 c 257,49,50
 140 -3 140 -3 117.5 -26.5 c 128,-1,51
 95 -50 95 -50 95 -85 c 257,52,53
 95 -115 95 -115 112 -131.5 c 128,-1,54
 129 -148 129 -148 150 -148 c 257,55,56
 169 -148 169 -148 177 -141.5 c 128,-1,57
 185 -135 185 -135 190 -128.5 c 128,-1,58
 195 -122 195 -122 203 -122 c 257,59,60
 210 -122 210 -122 213.5 -126.5 c 128,-1,61
 217 -131 217 -131 217 -136 c 257,62,63
 217 -149 217 -149 207.5 -160.5 c 128,-1,64
 198 -172 198 -172 182 -178.5 c 128,-1,65
 166 -185 166 -185 145 -185 c 257,28,29
EndSplineSet
EndChar

StartChar: J
Encoding: 100 74 100
GlifName: J
Width: 596
VWidth: 0
Flags: W
LayerCount: 4
Back
SplineSet
104 62 m 20
 131.333333333 40.6666666667 162.333333333 30 197 30 c 260
 218.333333333 30 241.5 37 266.5 51 c 132
 291.5 65 311 84.6666666667 325 110 c 132
 339 135.333333333 346 165 346 199 c 262
 346 680 l 270
 388 680 l 278
 388 199 l 262
 388 157.666666667 379.166666667 121.166666667 361.5 89.5 c 132
 343.833333333 57.8333333333 319.166666667 33.3333333333 287.5 16 c 132
 255.833333333 -1.33333333333 225.666666667 -10 197 -10 c 260
 153.666666667 -10 115.333333333 3 82 29 c 4
 67.452991453 40.3846153846 57.7863247863 49.2179487179 53 55.5 c 28
 49.9107981221 59.5159624413 48.9107981221 64.682629108 50 71 c 28
 51.3033033033 78.1681681682 53.96996997 82.6681681682 58 84.5 c 28
 64 87.5 70.5 87.1666666667 77.5 83.5 c 28
 83.1666666667 78.5 92 71.3333333333 104 62 c 20
282 660 m 257
 276.666666667 660 272.166666667 662 268.5 666 c 128
 264.833333333 670 263 675 263 681 c 257
 263 686.333333333 264.833333333 690.833333333 268.5 694.5 c 128
 272.166666667 698.166666667 276.666666667 700 282 700 c 257
 632 700 l 257
 637.333333333 700 641.833333333 698 645.5 694 c 128
 649.166666667 690 651 685 651 679 c 257
 651 673.666666667 649.166666667 669.166666667 645.5 665.5 c 128
 641.833333333 661.833333333 637.333333333 660 632 660 c 257
 282 660 l 257
267 -10 m 257
 223.666666667 -10 185.333333333 3 152 29 c 128
 118.666666667 55 93.6666666667 88.3333333333 77 129 c 257
 75.6666666667 133 75 136.333333333 75 139 c 257
 75 145 77.1666666667 149.5 81.5 152.5 c 128
 85.8333333333 155.5 90.3333333333 157 95 157 c 257
 100.333333333 157 104.333333333 155.833333333 107 153.5 c 128
 109.666666667 151.166666667 112 148 114 144 c 257
 126.666666667 110.666666667 146.666666667 83.3333333333 174 62 c 128
 201.333333333 40.6666666667 232.333333333 30 267 30 c 257
 301.666666667 30 331.5 37 356.5 51 c 128
 381.5 65 401 84.6666666667 415 110 c 128
 429 135.333333333 436 165 436 199 c 257
 436 680 l 257
 436 685.333333333 438 690 442 694 c 128
 446 698 451.333333333 700 458 700 c 257
 464 700 468.833333333 698 472.5 694 c 128
 476.166666667 690 478 685.333333333 478 680 c 257
 478 199 l 257
 478 157.666666667 469.166666667 121.166666667 451.5 89.5 c 128
 433.833333333 57.8333333333 409.166666667 33.3333333333 377.5 16 c 128
 345.833333333 -1.33333333333 309 -10 267 -10 c 257
EndSplineSet
Fore
SplineSet
542 660 m 269,0,1
 388 659.625 l 21,2,-1
 388 199 l 262,3,4
 388 137 388 137 361.5 89.5 c 132,-1,5
 335 42 335 42 287.5 16 c 132,-1,6
 240 -10 240 -10 197 -10 c 260,7,8
 132 -10 132 -10 82 29 c 4,9,10
 60.1794871795 46.0769230769 60.1794871795 46.0769230769 53 55.5 c 28,11,12
 48.3661971831 61.523943662 48.3661971831 61.523943662 50 71 c 28,13,14
 51.954954955 81.7522522523 51.954954955 81.7522522523 58 84.5 c 28,15,16
 67 89 67 89 77.5 83.5 c 28,17,18
 86 76 86 76 104 62 c 20,19,20
 145 30 145 30 197 30 c 260,21,22
 229 30 229 30 266.5 51 c 132,-1,23
 304 72 304 72 325 110 c 132,-1,24
 346 148 346 148 346 199 c 262,25,-1
 346 660 l 5,26,-1
 192 660 l 261,27,28
 184 660 184 660 178.5 666 c 132,-1,29
 173 672 173 672 173 681 c 261,30,31
 173 689 173 689 178.5 694.5 c 132,-1,32
 184 700 184 700 192 700 c 261,33,-1
 542 700 l 261,34,35
 550 700 550 700 555.5 694 c 132,-1,36
 561 688 561 688 561 679 c 261,37,38
 561 671 561 671 555.5 665.5 c 132,-1,39
 550 660 550 660 542 660 c 269,0,1
EndSplineSet
EndChar

StartChar: K
Encoding: 103 75 103
GlifName: K
Width: 622
VWidth: 0
Flags: W
LayerCount: 4
Back
SplineSet
606 -5 m 261
 600.666666667 -5 596 -2.66666666667 592 2 c 261
 290 376 l 261
 322 408 l 261
 624 30 l 261
 627.333333333 25.3333333333 629 20.6666666667 629 16 c 261
 629 8 626.166666667 2.5 620.5 -0.5 c 132
 614.833333333 -3.5 610 -5 606 -5 c 261
588 696 m 261
 593.333333333 696 598 694 602 690 c 132
 606 686 608 681.333333333 608 676 c 261
 608 670.666666667 606 666 602 662 c 261
 136 228 l 261
 127 271 l 261
 574 690 l 261
 578 694 582.666666667 696 588 696 c 261
121 0 m 261
 114.333333333 0 109.166666667 2 105.5 6 c 132
 101.833333333 10 100 15 100 21 c 261
 100 679 l 261
 100 685 102 690 106 694 c 132
 110 698 115 700 121 700 c 261
 127 700 132 698 136 694 c 132
 140 690 142 685 142 679 c 261
 142 21 l 261
 141.333333333 15 139 10 135 6 c 132
 131 2 126.333333333 0 121 0 c 261
116 380 m 257
 601 380 l 257
 599 340 l 257
 110 340 l 257
 116 380 l 257
EndSplineSet
Fore
SplineSet
566 -5 m 256,0,1
 560.900390625 -5 560.900390625 -5 552 2 c 258,2,-1
 107 352 l 257,3,-1
 139 384 l 257,4,-1
 584 30 l 258,5,6
 589 26 589 26 589 16 c 256,7,8
 589 4 589 4 580.5 -0.5 c 128,-1,9
 572 -5 572 -5 566 -5 c 256,0,1
548 696 m 256,10,11
 556 696 556 696 562 690 c 128,-1,12
 568 684 568 684 568 676 c 256,13,14
 568 666.536132812 568 666.536132812 562 662 c 258,15,-1
 150 350.514648438 l 25,16,-1
 116 356 l 257,17,-1
 107 369 l 257,18,-1
 534 690 l 258,19,20
 542 696 542 696 548 696 c 256,10,11
101 0 m 256,21,22
 91 0 91 0 85.5 6 c 128,-1,23
 80 12 80 12 80 21 c 258,24,-1
 80 679 l 258,25,26
 80 688 80 688 86 694 c 128,-1,27
 92 700 92 700 101 700 c 256,28,29
 110 700 110 700 116 694 c 128,-1,30
 122 688 122 688 122 679 c 258,31,-1
 122 21 l 258,32,33
 121 12 121 12 115 6 c 128,-1,34
 109 0 109 0 101 0 c 256,21,22
EndSplineSet
EndChar

StartChar: L
Encoding: 105 76 105
GlifName: L
Width: 522
VWidth: 0
Flags: W
LayerCount: 4
Fore
SplineSet
487 40 m 257,0,1
 495 40 495 40 501 34 c 128,-1,2
 507 28 507 28 507 20 c 257,3,4
 507 11 507 11 501 5.5 c 128,-1,5
 495 0 495 0 487 0 c 257,6,-1
 120 0 l 257,7,8
 111 0 111 0 105.5 6 c 128,-1,9
 100 12 100 12 100 20 c 257,10,-1
 100 680 l 257,11,12
 100 688 100 688 106 694 c 128,-1,13
 112 700 112 700 121 700 c 257,14,15
 130 700 130 700 136 694 c 128,-1,16
 142 688 142 688 142 680 c 257,17,-1
 142 22 l 257,18,-1
 124 40 l 257,19,-1
 487 40 l 257,0,1
EndSplineSet
EndChar

StartChar: Lslash
Encoding: 115 321 115
GlifName: Lslash
Width: 561
VWidth: 0
Flags: W
LayerCount: 4
Fore
SplineSet
68 348 m 257,0,1
 59 348 59 348 54.5 353.5 c 128,-1,2
 50 359 50 359 50 367 c 257,3,4
 50 380 50 380 62 386 c 257,5,-1
 262 474 l 257,6,7
 268 477 268 477 273 477 c 257,8,9
 284 477 284 477 287.5 469.5 c 128,-1,10
 291 462 291 462 291 457 c 257,11,12
 291 444 291 444 278 438 c 257,13,-1
 78 350 l 257,14,15
 76 349 76 349 73 348.5 c 128,-1,16
 70 348 70 348 68 348 c 257,0,1
179 32 m 257,17,-1
 172 40 l 257,18,-1
 526 40 l 257,19,20
 534 40 534 40 540 34 c 128,-1,21
 546 28 546 28 546 20 c 257,22,23
 546 11 546 11 540 5.5 c 128,-1,24
 534 0 534 0 526 0 c 257,25,-1
 159 0 l 257,26,27
 150 0 150 0 144.5 6 c 128,-1,28
 139 12 139 12 139 20 c 257,29,-1
 139 680 l 257,30,31
 139 688 139 688 145 694 c 128,-1,32
 151 700 151 700 159 700 c 257,33,34
 168 700 168 700 173.5 694 c 128,-1,35
 179 688 179 688 179 680 c 257,36,-1
 179 32 l 257,17,-1
EndSplineSet
EndChar

StartChar: M
Encoding: 116 77 116
GlifName: M
Width: 829
VWidth: 0
Flags: W
LayerCount: 4
Fore
SplineSet
119 700 m 257,0,1
 124 700 124 700 129 698 c 128,-1,2
 134 696 134 696 138 691 c 257,3,-1
 425 264 l 257,4,-1
 405 264 l 257,5,-1
 692 691 l 257,6,7
 700 702 700 702 711 700 c 257,8,9
 719 699 719 699 724 693.5 c 128,-1,10
 729 688 729 688 729 680 c 257,11,-1
 729 20 l 257,12,13
 729 12 729 12 722.5 6 c 128,-1,14
 716 0 716 0 708 0 c 257,15,16
 699 0 699 0 693 6 c 128,-1,17
 687 12 687 12 687 20 c 257,18,-1
 687 635 l 257,19,-1
 698 635 l 257,20,-1
 429 228 l 257,21,22
 427 224 427 224 423.5 222 c 128,-1,23
 420 220 420 220 415 220 c 257,24,25
 410 220 410 220 405.5 222 c 128,-1,26
 401 224 401 224 399 228 c 257,27,-1
 124 643 l 257,28,-1
 140 643 l 257,29,-1
 140 20 l 257,30,31
 140 12 140 12 134 6 c 128,-1,32
 128 0 128 0 120 0 c 257,33,34
 111 0 111 0 105.5 6 c 128,-1,35
 100 12 100 12 100 20 c 257,36,-1
 100 680 l 257,37,38
 100 687 100 687 105 693.5 c 128,-1,39
 110 700 110 700 119 700 c 257,0,1
EndSplineSet
EndChar

StartChar: N
Encoding: 118 78 118
GlifName: N
Width: 725
VWidth: 0
Flags: W
LayerCount: 4
Fore
SplineSet
606 700 m 261,0,1
 615 700 615 700 620 694.5 c 132,-1,2
 625 689 625 689 625 681 c 261,3,-1
 625 22 l 261,4,5
 625 11 625 11 618.5 5.5 c 132,-1,6
 612 0 612 0 604 0 c 261,7,8
 600 0 600 0 595.5 2 c 132,-1,9
 591 4 591 4 588 8 c 261,10,-1
 124 642 l 261,11,-1
 138 649 l 261,12,-1
 138 17 l 261,13,14
 138 10 138 10 132.5 5 c 132,-1,15
 127 0 127 0 119 0 c 261,16,17
 110 0 110 0 105 5 c 132,-1,18
 100 10 100 10 100 17 c 261,19,-1
 100 680 l 261,20,21
 100 691 100 691 106 695.5 c 132,-1,22
 112 700 112 700 118 700 c 261,23,24
 122 700 122 700 126 698.5 c 132,-1,25
 130 697 130 697 133 693 c 261,26,-1
 595 63 l 261,27,-1
 587 43 l 261,28,-1
 587 681 l 261,29,30
 587 689 587 689 593 694.5 c 132,-1,31
 599 700 599 700 606 700 c 261,0,1
EndSplineSet
EndChar

StartChar: Nacute
Encoding: 120 323 120
GlifName: Nacute
Width: 725
VWidth: 0
Flags: W
LayerCount: 4
Back
SplineSet
279 747 m 260
 275.666992188 748.333007812 273.666992188 750.333007812 273 753 c 4
 271.666992188 757.666992188 271.666992188 760.666992188 273 762 c 260
 274.333007812 764.666992188 277.666992188 768 283 772 c 262
 426 882 l 4
 437 891 l 262
 441 893.666992188 445.333007812 896 450 898 c 4
 455.333007812 900 461 899.666992188 467 897 c 260
 473.666992188 894.333007812 478.666992188 890.666992188 482 886 c 4
 485.333007812 880.666992188 485.333007812 873.666992188 482 865 c 260
 480.666992188 861.666992188 479.333007812 859.333007812 478 858 c 4
 476.666992188 856 474.333007812 854 471 852 c 261
 309 753 l 262
 303.666992188 749.666992188 299 747.666992188 295 747 c 4
 288.333007812 745.666992188 283 745.666992188 279 747 c 260
EndSplineSet
Fore
Refer: 740 769 S 1 0 0 1 267 192 2
Refer: 118 78 N 1 0 0 1 0 0 2
EndChar

StartChar: uni019D
Encoding: 126 413 126
GlifName: uni019D
Width: 725
VWidth: 0
Flags: W
LayerCount: 4
Fore
SplineSet
4 -198 m 257,0,1
 -6 -199 -6 -199 -12 -193.5 c 128,-1,2
 -18 -188 -18 -188 -18 -180 c 257,3,4
 -18 -170 -18 -170 -12.5 -165 c 128,-1,5
 -7 -160 -7 -160 0 -159 c 257,6,7
 22 -155 22 -155 45 -144 c 128,-1,8
 68 -133 68 -133 84 -112 c 128,-1,9
 100 -91 100 -91 100 -58 c 257,10,-1
 100 680 l 257,11,12
 100 691 100 691 106 695.5 c 128,-1,13
 112 700 112 700 118 700 c 257,14,15
 122 700 122 700 126 698.5 c 128,-1,16
 130 697 130 697 133 693 c 257,17,-1
 595 63 l 257,18,-1
 587 43 l 257,19,-1
 587 681 l 257,20,21
 587 689 587 689 593 694.5 c 128,-1,22
 599 700 599 700 606 700 c 257,23,24
 615 700 615 700 620 694.5 c 128,-1,25
 625 689 625 689 625 681 c 257,26,-1
 625 22 l 257,27,28
 625 11 625 11 618.5 5.5 c 128,-1,29
 612 0 612 0 604 0 c 257,30,31
 600 0 600 0 595.5 2 c 128,-1,32
 591 4 591 4 588 8 c 257,33,-1
 124 642 l 257,34,-1
 138 649 l 257,35,-1
 138 -58 l 257,36,37
 138 -84 138 -84 130 -105 c 128,-1,38
 122 -126 122 -126 109 -142 c 128,-1,39
 96 -158 96 -158 78.5 -169.5 c 128,-1,40
 61 -181 61 -181 42 -188 c 128,-1,41
 23 -195 23 -195 4 -198 c 257,0,1
EndSplineSet
EndChar

StartChar: Eng
Encoding: 130 330 130
GlifName: Eng
Width: 745
VWidth: 0
Flags: W
LayerCount: 4
Fore
SplineSet
470 -200 m 257,0,1
 460 -200 460 -200 454 -194.5 c 128,-1,2
 448 -189 448 -189 448 -180 c 257,3,4
 448 -171 448 -171 454 -165.5 c 128,-1,5
 460 -160 460 -160 469 -160 c 257,6,7
 527 -160 527 -160 556 -145 c 128,-1,8
 585 -130 585 -130 595 -103.5 c 128,-1,9
 605 -77 605 -77 605 -44 c 257,10,-1
 606 37 l 257,11,-1
 612 4 l 257,12,-1
 139 623 l 257,13,-1
 140 626 l 257,14,-1
 140 20 l 257,15,16
 140 12 140 12 134 6 c 128,-1,17
 128 0 128 0 120 0 c 257,18,19
 111 0 111 0 105.5 6 c 128,-1,20
 100 12 100 12 100 20 c 257,21,-1
 100 680 l 257,22,23
 100 690 100 690 106.5 695 c 128,-1,24
 113 700 113 700 121 700 c 257,25,26
 126 700 126 700 131 696.5 c 128,-1,27
 136 693 136 693 137 691 c 257,28,-1
 611 71 l 257,29,-1
 605 63 l 257,30,-1
 605 676 l 257,31,32
 605 684 605 684 611 690 c 128,-1,33
 617 696 617 696 625 696 c 257,34,35
 634 696 634 696 639.5 690 c 128,-1,36
 645 684 645 684 645 676 c 257,37,-1
 645 42 l 257,38,-1
 645 -44 l 257,39,40
 645 -83 645 -83 630.5 -119 c 128,-1,41
 616 -155 616 -155 578.5 -177.5 c 128,-1,42
 541 -200 541 -200 470 -200 c 257,0,1
EndSplineSet
EndChar

StartChar: O
Encoding: 131 79 131
GlifName: O
Width: 688
VWidth: 0
Flags: W
LayerCount: 4
Back
SplineSet
718 350 m 261
 718 296.666666667 709.833333333 248 693.5 204 c 132
 677.166666667 160 654 122 624 90 c 132
 594 58 558.666666667 33.3333333333 518 16 c 132
 477.333333333 -1.33333333333 432.666666667 -10 384 -10 c 261
 335.333333333 -10 290.666666667 -1.33333333333 250 16 c 132
 209.333333333 33.3333333333 174 58 144 90 c 132
 114 122 90.8333333333 160 74.5 204 c 132
 58.1666666667 248 50 296.666666667 50 350 c 261
 50 403.333333333 58.1666666667 452 74.5 496 c 132
 90.8333333333 540 114 578 144 610 c 132
 174 642 209.333333333 666.666666667 250 684 c 132
 290.666666667 701.333333333 335.333333333 710 384 710 c 261
 432.666666667 710 477.333333333 701.333333333 518 684 c 132
 558.666666667 666.666666667 594 642 624 610 c 132
 654 578 677.166666667 540 693.5 496 c 132
 709.833333333 452 718 403.333333333 718 350 c 261
676 350 m 261
 676 414 663.5 470 638.5 518 c 132
 613.5 566 579.166666667 603.333333333 535.5 630 c 132
 491.833333333 656.666666667 441.333333333 670 384 670 c 261
 327.333333333 670 277 656.666666667 233 630 c 132
 189 603.333333333 154.5 566 129.5 518 c 132
 104.5 470 92 414 92 350 c 261
 92 286 104.5 230 129.5 182 c 132
 154.5 134 189 96.6666666667 233 70 c 132
 277 43.3333333333 327.333333333 30 384 30 c 261
 441.333333333 30 491.833333333 43.3333333333 535.5 70 c 132
 579.166666667 96.6666666667 613.5 134 638.5 182 c 132
 663.5 230 676 286 676 350 c 261
EndSplineSet
Fore
SplineSet
638 350 m 261,0,1
 638 270 638 270 613.5 204 c 132,-1,2
 589 138 589 138 549 90 c 132,-1,3
 509 42 509 42 453 16 c 132,-1,4
 397 -10 397 -10 344 -10 c 261,5,6
 291 -10 291 -10 235 16 c 132,-1,7
 179 42 179 42 139 90 c 132,-1,8
 99 138 99 138 74.5 204 c 132,-1,9
 50 270 50 270 50 350 c 261,10,11
 50 430 50 430 74.5 496 c 132,-1,12
 99 562 99 562 139 610 c 132,-1,13
 179 658 179 658 235 684 c 132,-1,14
 291 710 291 710 344 710 c 261,15,16
 397 710 397 710 453 684 c 132,-1,17
 509 658 509 658 549 610 c 132,-1,18
 589 562 589 562 613.5 496 c 132,-1,19
 638 430 638 430 638 350 c 261,0,1
596 350 m 261,20,21
 596 446 596 446 563.5 518 c 132,-1,22
 531 590 531 590 470.5 630 c 132,-1,23
 410 670 410 670 344 670 c 261,24,25
 279 670 279 670 218 630 c 132,-1,26
 157 590 157 590 124.5 518 c 132,-1,27
 92 446 92 446 92 350 c 261,28,29
 92 254 92 254 124.5 182 c 132,-1,30
 157 110 157 110 218 70 c 132,-1,31
 279 30 279 30 344 30 c 261,32,33
 410 30 410 30 470.5 70 c 132,-1,34
 531 110 531 110 563.5 182 c 132,-1,35
 596 254 596 254 596 350 c 261,20,21
EndSplineSet
EndChar

StartChar: Oacute
Encoding: 132 211 132
GlifName: Oacute
Width: 688
VWidth: 0
Flags: W
LayerCount: 4
Back
SplineSet
272 747 m 260
 268.666992188 748.333007812 266.666992188 750.333007812 266 753 c 4
 264.666992188 757.666992188 264.666992188 760.666992188 266 762 c 260
 267.333007812 764.666992188 270.666992188 768 276 772 c 262
 419 882 l 4
 430 891 l 262
 434 893.666992188 438.333007812 896 443 898 c 4
 448.333007812 900 454 899.666992188 460 897 c 260
 466.666992188 894.333007812 471.666992188 890.666992188 475 886 c 4
 478.333007812 880.666992188 478.333007812 873.666992188 475 865 c 260
 473.666992188 861.666992188 472.333007812 859.333007812 471 858 c 4
 469.666992188 856 467.333007812 854 464 852 c 261
 302 753 l 262
 296.666992188 749.666992188 292 747.666992188 288 747 c 4
 281.333007812 745.666992188 276 745.666992188 272 747 c 260
EndSplineSet
Fore
Refer: 740 769 S 1 0 0 1 253 192 2
Refer: 131 79 N 1 0 0 1 0 0 2
EndChar

StartChar: Ograve
Encoding: 146 210 146
GlifName: Ograve
Width: 688
VWidth: 0
Flags: W
LayerCount: 4
Back
SplineSet
409 747 m 260
 405.666992188 748.333007812 403.666992188 750.333007812 403 753 c 4
 401.666992188 757.666992188 401.666992188 760.666992188 403 762 c 260
 404.333007812 764.666992188 407.666992188 768 413 772 c 262
 556 882 l 4
 567 891 l 262
 571 893.666992188 575.333007812 896 580 898 c 4
 585.333007812 900 591 899.666992188 597 897 c 260
 603.666992188 894.333007812 608.666992188 890.666992188 612 886 c 4
 615.333007812 880.666992188 615.333007812 873.666992188 612 865 c 260
 610.666992188 861.666992188 609.333007812 859.333007812 608 858 c 4
 606.666992188 856 604.333007812 854 601 852 c 261
 439 753 l 262
 433.666992188 749.666992188 429 747.666992188 425 747 c 4
 418.333007812 745.666992188 413 745.666992188 409 747 c 260
EndSplineSet
Fore
Refer: 739 768 S 1 0 0 1 191 191 2
Refer: 131 79 N 1 0 0 1 0 0 2
EndChar

StartChar: uni01EA
Encoding: 159 490 159
GlifName: uni01EA
Width: 768
VWidth: 0
Flags: W
LayerCount: 4
Fore
SplineSet
429 -185 m 257,0,1
 396 -185 396 -185 368.5 -160 c 128,-1,2
 341 -135 341 -135 341 -93 c 257,3,4
 341 -70 341 -70 348.5 -51.5 c 128,-1,5
 356 -33 356 -33 368.5 -20 c 128,-1,6
 381 -7 381 -7 396 2.5 c 128,-1,7
 411 12 411 12 427 17 c 257,8,-1
 471 1 l 257,9,10
 451 2 451 2 429.5 -10 c 128,-1,11
 408 -22 408 -22 393.5 -42 c 128,-1,12
 379 -62 379 -62 379 -85 c 257,13,14
 379 -115 379 -115 396 -131.5 c 128,-1,15
 413 -148 413 -148 434 -148 c 257,16,17
 444 -148 444 -148 450.5 -147 c 128,-1,18
 457 -146 457 -146 461 -141 c 257,19,20
 467 -133 467 -133 473 -127.5 c 128,-1,21
 479 -122 479 -122 487 -122 c 257,22,23
 494 -122 494 -122 497.5 -126.5 c 128,-1,24
 501 -131 501 -131 501 -136 c 257,25,26
 501 -149 501 -149 491.5 -160.5 c 128,-1,27
 482 -172 482 -172 466 -178.5 c 128,-1,28
 450 -185 450 -185 429 -185 c 257,0,1
718 350 m 257,29,30
 718 270 718 270 693.5 204 c 128,-1,31
 669 138 669 138 624 90 c 128,-1,32
 579 42 579 42 518 16 c 128,-1,33
 457 -10 457 -10 384 -10 c 257,34,35
 311 -10 311 -10 250 16 c 128,-1,36
 189 42 189 42 144 90 c 128,-1,37
 99 138 99 138 74.5 204 c 128,-1,38
 50 270 50 270 50 350 c 257,39,40
 50 430 50 430 74.5 496 c 128,-1,41
 99 562 99 562 144 610 c 128,-1,42
 189 658 189 658 250 684 c 128,-1,43
 311 710 311 710 384 710 c 257,44,45
 457 710 457 710 518 684 c 128,-1,46
 579 658 579 658 624 610 c 128,-1,47
 669 562 669 562 693.5 496 c 128,-1,48
 718 430 718 430 718 350 c 257,29,30
676 350 m 257,49,50
 676 446 676 446 638.5 518 c 128,-1,51
 601 590 601 590 535.5 630 c 128,-1,52
 470 670 470 670 384 670 c 257,53,54
 299 670 299 670 233 630 c 128,-1,55
 167 590 167 590 129.5 518 c 128,-1,56
 92 446 92 446 92 350 c 257,57,58
 92 254 92 254 129.5 182 c 128,-1,59
 167 110 167 110 233 70 c 128,-1,60
 299 30 299 30 384 30 c 257,61,62
 470 30 470 30 535.5 70 c 128,-1,63
 601 110 601 110 638.5 182 c 128,-1,64
 676 254 676 254 676 350 c 257,49,50
EndSplineSet
EndChar

StartChar: Oslash
Encoding: 160 216 160
GlifName: Oslash
Width: 721
VWidth: 0
Flags: W
LayerCount: 4
Fore
SplineSet
89 -20 m 257,0,1
 82 -20 82 -20 77 -15 c 128,-1,2
 72 -10 72 -10 72 -3 c 257,3,4
 72 3 72 3 77 10 c 257,5,-1
 657 707 l 257,6,7
 663 715 663 715 667.5 716.5 c 128,-1,8
 672 718 672 718 679 718 c 257,9,10
 685 718 685 718 690.5 714 c 128,-1,11
 696 710 696 710 696 702 c 257,12,13
 696 694 696 694 690 687 c 257,14,-1
 114 -4 l 257,15,16
 110 -10 110 -10 104.5 -15 c 128,-1,17
 99 -20 99 -20 89 -20 c 257,0,1
718 350 m 257,18,19
 718 270 718 270 693.5 204 c 128,-1,20
 669 138 669 138 624 90 c 128,-1,21
 579 42 579 42 518 16 c 128,-1,22
 457 -10 457 -10 384 -10 c 257,23,24
 311 -10 311 -10 250 16 c 128,-1,25
 189 42 189 42 144 90 c 128,-1,26
 99 138 99 138 74.5 204 c 128,-1,27
 50 270 50 270 50 350 c 257,28,29
 50 430 50 430 74.5 496 c 128,-1,30
 99 562 99 562 144 610 c 128,-1,31
 189 658 189 658 250 684 c 128,-1,32
 311 710 311 710 384 710 c 257,33,34
 457 710 457 710 518 684 c 128,-1,35
 579 658 579 658 624 610 c 128,-1,36
 669 562 669 562 693.5 496 c 128,-1,37
 718 430 718 430 718 350 c 257,18,19
676 350 m 257,38,39
 676 446 676 446 638.5 518 c 128,-1,40
 601 590 601 590 535.5 630 c 128,-1,41
 470 670 470 670 384 670 c 257,42,43
 299 670 299 670 233 630 c 128,-1,44
 167 590 167 590 129.5 518 c 128,-1,45
 92 446 92 446 92 350 c 257,46,47
 92 254 92 254 129.5 182 c 128,-1,48
 167 110 167 110 233 70 c 128,-1,49
 299 30 299 30 384 30 c 257,50,51
 470 30 470 30 535.5 70 c 128,-1,52
 601 110 601 110 638.5 182 c 128,-1,53
 676 254 676 254 676 350 c 257,38,39
EndSplineSet
EndChar

StartChar: OE
Encoding: 166 338 166
GlifName: OE
Width: 998
VWidth: 0
Flags: W
LayerCount: 4
Fore
SplineSet
928 40 m 257,0,1
 936 40 936 40 942 34 c 128,-1,2
 948 28 948 28 948 20 c 257,3,4
 948 11 948 11 942 5.5 c 128,-1,5
 936 0 936 0 928 0 c 257,6,-1
 340 0 l 257,7,8
 240 0 240 0 175.5 47.5 c 128,-1,9
 111 95 111 95 80.5 174.5 c 128,-1,10
 50 254 50 254 50 350 c 257,11,12
 50 418 50 418 67 481 c 128,-1,13
 84 544 84 544 119.5 593.5 c 128,-1,14
 155 643 155 643 210 671.5 c 128,-1,15
 265 700 265 700 340 700 c 257,16,-1
 928 700 l 257,17,18
 936 700 936 700 942 694 c 128,-1,19
 948 688 948 688 948 680 c 257,20,21
 948 671 948 671 942 665.5 c 128,-1,22
 936 660 936 660 928 660 c 257,23,-1
 576 660 l 257,24,-1
 581 664 l 257,25,-1
 581 375 l 257,26,-1
 575 386 l 257,27,-1
 883 386 l 257,28,29
 891 386 891 386 897 380 c 128,-1,30
 903 374 903 374 903 366 c 257,31,32
 903 357 903 357 897 351.5 c 128,-1,33
 891 346 891 346 883 346 c 257,34,-1
 575 346 l 257,35,-1
 581 352 l 257,36,-1
 581 33 l 257,37,-1
 575 40 l 257,38,-1
 928 40 l 257,0,1
547 40 m 257,39,-1
 540 30 l 257,40,-1
 540 666 l 257,41,-1
 544 660 l 257,42,-1
 350 660 l 257,43,44
 281 660 281 660 232 635 c 128,-1,45
 183 610 183 610 151.5 566.5 c 128,-1,46
 120 523 120 523 105 467 c 128,-1,47
 90 411 90 411 90 350 c 257,48,49
 90 264 90 264 117 193.5 c 128,-1,50
 144 123 144 123 201.5 81.5 c 128,-1,51
 259 40 259 40 350 40 c 257,52,-1
 547 40 l 257,39,-1
EndSplineSet
EndChar

StartChar: P
Encoding: 167 80 167
GlifName: P
Width: 594
VWidth: 0
Flags: W
LayerCount: 4
Back
SplineSet
360 700 m 261
 398 700 431.166666667 692 459.5 676 c 132
 487.833333333 660 509.833333333 637.666666667 525.5 609 c 132
 541.166666667 580.333333333 549 547 549 509 c 261
 549 471.666666667 541.166666667 438 525.5 408 c 132
 509.833333333 378 487.833333333 354.333333333 459.5 337 c 132
 431.166666667 319.666666667 398 311 360 311 c 261
 138 311 l 261
 142 318 l 261
 142 20 l 261
 142 14.6666666667 139.833333333 10 135.5 6 c 132
 131.166666667 2 126.333333333 0 121 0 c 261
 114.333333333 0 109.166666667 2 105.5 6 c 132
 101.833333333 10 100 14.6666666667 100 20 c 261
 100 680 l 261
 100 685.333333333 102 690 106 694 c 132
 110 698 114.666666667 700 120 700 c 261
 360 700 l 261
360 351 m 261
 390.666666667 351 416.833333333 357.833333333 438.5 371.5 c 132
 460.166666667 385.166666667 477 404 489 428 c 132
 501 452 507 479 507 509 c 261
 507 539.666666667 501 566.166666667 489 588.5 c 132
 477 610.833333333 460.166666667 628.333333333 438.5 641 c 132
 416.833333333 653.666666667 390.666666667 660 360 660 c 261
 139 660 l 261
 142 665 l 261
 142 348 l 261
 138 351 l 261
 360 351 l 261
EndSplineSet
Fore
SplineSet
360 700 m 257,0,1
 417 700 417 700 459.5 676 c 128,-1,2
 502 652 502 652 525.5 609 c 128,-1,3
 549 566 549 566 549 509 c 257,4,5
 549 453 549 453 525.5 408 c 128,-1,6
 502 363 502 363 459.5 337 c 128,-1,7
 417 311 417 311 360 311 c 257,8,-1
 138 311 l 257,9,-1
 142 318 l 257,10,-1
 142 20 l 257,11,12
 142 12 142 12 135.5 6 c 128,-1,13
 129 0 129 0 121 0 c 257,14,15
 111 0 111 0 105.5 6 c 128,-1,16
 100 12 100 12 100 20 c 257,17,-1
 100 680 l 257,18,19
 100 688 100 688 106 694 c 128,-1,20
 112 700 112 700 120 700 c 257,21,-1
 360 700 l 257,0,1
360 351 m 257,22,23
 406 351 406 351 438.5 371.5 c 128,-1,24
 471 392 471 392 489 428 c 128,-1,25
 507 464 507 464 507 509 c 257,26,27
 507 555 507 555 489 588.5 c 128,-1,28
 471 622 471 622 438.5 641 c 128,-1,29
 406 660 406 660 360 660 c 257,30,-1
 142 660 l 1,31,-1
 142 348 l 261,32,-1
 138 351 l 257,33,-1
 360 351 l 257,22,23
EndSplineSet
EndChar

StartChar: Thorn
Encoding: 168 222 168
GlifName: Thorn
Width: 583
VWidth: 0
Flags: W
LayerCount: 4
Fore
SplineSet
140 20 m 257,0,1
 140 12 140 12 134 6 c 128,-1,2
 128 0 128 0 120 0 c 257,3,4
 111 0 111 0 105.5 6 c 128,-1,5
 100 12 100 12 100 20 c 257,6,-1
 100 720 l 257,7,8
 100 728 100 728 106 734 c 128,-1,9
 112 740 112 740 120 740 c 257,10,11
 129 740 129 740 134.5 734 c 128,-1,12
 140 728 140 728 140 720 c 257,13,-1
 140 20 l 257,0,1
127 238 m 257,14,-1
 349 238 l 257,15,16
 395 238 395 238 427.5 258.5 c 128,-1,17
 460 279 460 279 478 315 c 128,-1,18
 496 351 496 351 496 396 c 257,19,20
 496 442 496 442 478 475.5 c 128,-1,21
 460 509 460 509 427.5 528 c 128,-1,22
 395 547 395 547 349 547 c 257,23,-1
 128 547 l 257,24,-1
 109 587 l 257,25,-1
 349 587 l 257,26,27
 406 587 406 587 448.5 563 c 128,-1,28
 491 539 491 539 514.5 496 c 128,-1,29
 538 453 538 453 538 396 c 257,30,31
 538 340 538 340 514.5 295 c 128,-1,32
 491 250 491 250 448.5 224 c 128,-1,33
 406 198 406 198 349 198 c 257,34,-1
 127 198 l 257,35,-1
 127 238 l 257,14,-1
EndSplineSet
EndChar

StartChar: Q
Encoding: 169 81 169
GlifName: Q
Width: 702
VWidth: 0
Flags: W
LayerCount: 4
Back
SplineSet
448 202 m 261
 443.333333333 206 440.833333333 210.833333333 440.5 216.5 c 132
 440.166666667 222.166666667 442 227.333333333 446 232 c 261
 449.333333333 236 453.666666667 238.166666667 459 238.5 c 132
 464.333333333 238.833333333 469.333333333 237 474 233 c 261
 712 33 l 4
 738 12 l 261
 742.666666667 8 745.166666667 3.16666666667 745.5 -2.5 c 132
 745.833333333 -8.16666666667 744 -13.3333333333 740 -18 c 261
 737.333333333 -21.3333333333 733.166666667 -23.3333333333 727.5 -24 c 132
 721.833333333 -24.6666666667 716.666666667 -23 712 -19 c 261
 448 202 l 261
718 350 m 260
 718 296.666666667 709.833333333 248 693.5 204 c 132
 677.166666667 160 654 122 624 90 c 132
 594 58 558.666666667 33.3333333333 518 16 c 132
 477.333333333 -1.33333333333 432.666666667 -10 384 -10 c 260
 335.333333333 -10 290.666666667 -1.33333333333 250 16 c 132
 209.333333333 33.3333333333 174 58 144 90 c 132
 114 122 90.8333333333 160 74.5 204 c 132
 58.1666666667 248 50 296.666666667 50 350 c 260
 50 403.333333333 58.1666666667 452 74.5 496 c 132
 90.8333333333 540 114 578 144 610 c 132
 174 642 209.333333333 666.666666667 250 684 c 132
 290.666666667 701.333333333 335.333333333 710 384 710 c 260
 432.666666667 710 477.333333333 701.333333333 518 684 c 132
 558.666666667 666.666666667 594 642 624 610 c 132
 654 578 677.166666667 540 693.5 496 c 132
 709.833333333 452 718 403.333333333 718 350 c 260
676 350 m 260
 676 414 663.5 470 638.5 518 c 132
 613.5 566 579.166666667 603.333333333 535.5 630 c 132
 491.833333333 656.666666667 441.333333333 670 384 670 c 260
 327.333333333 670 277 656.666666667 233 630 c 132
 189 603.333333333 154.5 566 129.5 518 c 132
 104.5 470 92 414 92 350 c 260
 92 286 104.5 230 129.5 182 c 132
 154.5 134 189 96.6666666667 233 70 c 132
 277 43.3333333333 327.333333333 30 384 30 c 260
 441.333333333 30 491.833333333 43.3333333333 535.5 70 c 132
 579.166666667 96.6666666667 613.5 134 638.5 182 c 132
 663.5 230 676 286 676 350 c 260
EndSplineSet
Fore
SplineSet
638 350 m 257,0,1
 638 270 638 270 613.5 204 c 128,-1,2
 589 138 589 138 549 90 c 128,-1,3
 509 42 509 42 453 16 c 128,-1,4
 397 -10 397 -10 344 -10 c 257,5,6
 291 -10 291 -10 235 16 c 128,-1,7
 179 42 179 42 139 90 c 128,-1,8
 99 138 99 138 74.5 204 c 128,-1,9
 50 270 50 270 50 350 c 257,10,11
 50 430 50 430 74.5 496 c 128,-1,12
 99 562 99 562 139 610 c 128,-1,13
 179 658 179 658 235 684 c 128,-1,14
 291 710 291 710 344 710 c 257,15,16
 397 710 397 710 453 684 c 128,-1,17
 509 658 509 658 549 610 c 128,-1,18
 589 562 589 562 613.5 496 c 128,-1,19
 638 430 638 430 638 350 c 257,0,1
596 350 m 257,20,21
 596 446 596 446 563.5 518 c 128,-1,22
 531 590 531 590 470.5 630 c 128,-1,23
 410 670 410 670 344 670 c 257,24,25
 279 670 279 670 218 630 c 128,-1,26
 157 590 157 590 124.5 518 c 128,-1,27
 92 446 92 446 92 350 c 257,28,29
 92 254 92 254 124.5 182 c 128,-1,30
 157 110 157 110 218 70 c 128,-1,31
 279 30 279 30 344 30 c 257,32,33
 410 30 410 30 470.5 70 c 128,-1,34
 531 110 531 110 563.5 182 c 128,-1,35
 596 254 596 254 596 350 c 257,20,21
368 202 m 257,36,37
 361 208 361 208 360.5 216.5 c 128,-1,38
 360 225 360 225 366 232 c 257,39,40
 371 238 371 238 379 238.5 c 128,-1,41
 387 239 387 239 394 233 c 257,42,-1
 632 33 l 0,43,-1
 658 12 l 257,44,45
 665 6 665 6 665.5 -2.5 c 128,-1,46
 666 -11 666 -11 660 -18 c 257,47,48
 656 -23 656 -23 647.5 -24 c 128,-1,49
 639 -25 639 -25 632 -19 c 257,50,-1
 368 202 l 257,36,37
EndSplineSet
EndChar

StartChar: R
Encoding: 170 82 170
GlifName: R
Width: 664
VWidth: 0
Flags: W
LayerCount: 4
Back
SplineSet
408.890625 327 m 20
 605 31 l 261
 607.666666667 26.3333333333 609 21.6666666667 609 17 c 261
 608.333333333 9 605 3.66666666667 599 1 c 132
 593 -1.66666666667 588 -2.66666666667 584 -2 c 261
 578.666666667 -1.33333333333 574.333333333 1.33333333333 571 6 c 261
 358.078125 323 l 12
 408.890625 327 l 20
366 313 m 277
 133 313 l 261
 142 325 l 261
 142 20 l 261
 142 14.6666666667 140 10 136 6 c 132
 132 2 127 0 121 0 c 261
 114.333333333 0 109.166666667 2 105.5 6 c 132
 101.833333333 10 100 14.6666666667 100 20 c 261
 100 680 l 261
 100 685.333333333 102 690 106 694 c 132
 110 698 114.666666667 700 120 700 c 261
 374 700 l 261
 413.333333333 700 447.833333333 692.166666667 477.5 676.5 c 132
 507.166666667 660.833333333 530.333333333 639.333333333 547 612 c 132
 563.666666667 584.666666667 572 553.666666667 572 519 c 261
 572 488.333333333 566.5 460.666666667 555.5 436 c 4
 545.166666667 412 530 390 510 370 c 4
 500.666666667 360.666666667 480.333333333 347.666666667 449 331 c 28
 439 325 426.666666667 320.666666667 412 318 c 28
 396 314 380.666666667 312.333333333 366 313 c 277
132 353 m 261
 379 353 l 261
 405.666666667 355.666666667 430.333333333 363.666666667 453 377 c 132
 475.666666667 390.333333333 494.166666667 409 508.5 433 c 132
 522.833333333 457 530 485.333333333 530 518 c 261
 530 558.666666667 515.5 592.5 486.5 619.5 c 132
 457.5 646.5 418.333333333 660 369 660 c 261
 137 660 l 261
 142 667 l 261
 142 342 l 261
 132 353 l 261
121 0 m 257
 114.333333333 0 109.166666667 2 105.5 6 c 128
 101.833333333 10 100 14.6666666667 100 20 c 257
 100 680 l 257
 100 685.333333333 102 690 106 694 c 128
 110 698 114.666666667 700 120 700 c 257
 384 700 l 257
 423.333333333 700 457.833333333 692.166666667 487.5 676.5 c 128
 517.166666667 660.833333333 540.333333333 639.333333333 557 612 c 128
 573.666666667 584.666666667 582 553.666666667 582 519 c 257
 582 488.333333333 576.5 460.666666667 565.5 436 c 128
 554.5 411.333333333 539.166666667 390.833333333 519.5 374.5 c 128
 499.833333333 358.166666667 477.333333333 346.333333333 452 339 c 257
 406 347 l 257
 432.666666667 347 458 340.166666667 482 326.5 c 128
 506 312.833333333 525.666666667 292.833333333 541 266.5 c 128
 556.333333333 240.166666667 564 208 564 170 c 257
 564 137.333333333 565.5 112.5 568.5 95.5 c 128
 571.5 78.5 575.5 66 580.5 58 c 128
 585.5 50 591.333333333 43.6666666667 598 39 c 257
 602 36.3333333333 605 33 607 29 c 128
 609 25 609.333333333 20.3333333333 608 15 c 257
 606.666666667 11 604.5 7.83333333333 601.5 5.5 c 128
 598.5 3.16666666667 595.333333333 1.66666666667 592 1 c 128
 588.666666667 0.333333333333 585 1 581 3 c 257
 571.666666667 8.33333333333 562.5 16.3333333333 553.5 27 c 128
 544.5 37.6666666667 537 54 531 76 c 128
 525 98 522 129.333333333 522 170 c 257
 522 201.333333333 517.166666667 226.333333333 507.5 245 c 128
 497.833333333 263.666666667 485.5 278 470.5 288 c 128
 455.5 298 439.5 304.666666667 422.5 308 c 128
 405.5 311.333333333 390 313 376 313 c 257
 133 313 l 257
 142 325 l 257
 142 20 l 257
 142 14.6666666667 140 10 136 6 c 128
 132 2 127 0 121 0 c 257
132 353 m 257
 389 353 l 257
 415.666666667 355.666666667 440.333333333 363.666666667 463 377 c 128
 485.666666667 390.333333333 504.166666667 409 518.5 433 c 128
 532.833333333 457 540 485.333333333 540 518 c 257
 540 558.666666667 525.5 592.5 496.5 619.5 c 128
 467.5 646.5 428.333333333 660 379 660 c 257
 137 660 l 257
 142 667 l 257
 142 342 l 257
 132 353 l 257
EndSplineSet
Fore
SplineSet
408.890625 327 m 20,0,-1
 605 31 l 261,1,2
 609 24 609 24 609 17 c 261,3,4
 608 5 608 5 599 1 c 132,-1,5
 590 -3 590 -3 584 -2 c 261,6,7
 576 -1 576 -1 571 6 c 261,8,-1
 358.078125 323 l 12,9,-1
 408.890625 327 l 20,0,-1
366 313 m 277,10,-1
 133 313 l 261,11,-1
 142 325 l 261,12,-1
 142 20 l 261,13,14
 142 12 142 12 136 6 c 132,-1,15
 130 0 130 0 121 0 c 261,16,17
 111 0 111 0 105.5 6 c 132,-1,18
 100 12 100 12 100 20 c 261,19,-1
 100 680 l 261,20,21
 100 688 100 688 106 694 c 132,-1,22
 112 700 112 700 120 700 c 261,23,-1
 374 700 l 261,24,25
 433 700 433 700 477.5 676.5 c 132,-1,26
 522 653 522 653 547 612 c 132,-1,27
 572 571 572 571 572 519 c 261,28,29
 572 473 572 473 555.5 436 c 4,30,31
 540 400 540 400 510 370 c 4,32,33
 496 356 496 356 449 331 c 28,34,35
 434 322 434 322 412 318 c 28,36,37
 388 312 388 312 366 313 c 277,10,-1
132 353 m 261,38,-1
 379 353 l 261,39,40
 419 357 419 357 453 377 c 132,-1,41
 487 397 487 397 508.5 433 c 132,-1,42
 530 469 530 469 530 518 c 261,43,44
 530 579 530 579 486.5 619.5 c 132,-1,45
 443 660 443 660 369 660 c 261,46,-1
 142 660 l 5,47,-1
 142 342 l 261,48,-1
 132 353 l 261,38,-1
EndSplineSet
EndChar

StartChar: S
Encoding: 178 83 178
GlifName: S
Width: 550
VWidth: 0
Flags: W
LayerCount: 4
Fore
SplineSet
283 -10 m 257,0,1
 205 -11 205 -11 149 16 c 128,-1,2
 93 43 93 43 41 95 c 257,3,4
 39 97 39 97 37 100.5 c 128,-1,5
 35 104 35 104 35 110 c 257,6,7
 35 118 35 118 42 125.5 c 128,-1,8
 49 133 49 133 57 133 c 257,9,10
 66 133 66 133 74 124 c 257,11,12
 114 78 114 78 167.5 54 c 128,-1,13
 221 30 221 30 279 30 c 257,14,15
 330 30 330 30 370 46.5 c 128,-1,16
 410 63 410 63 433 93.5 c 128,-1,17
 456 124 456 124 456 165 c 257,18,19
 455 216 455 216 428 247 c 128,-1,20
 401 278 401 278 358.5 298 c 128,-1,21
 316 318 316 318 269 335 c 257,22,23
 232 349 232 349 196 364 c 128,-1,24
 160 379 160 379 131 400.5 c 128,-1,25
 102 422 102 422 85 454.5 c 128,-1,26
 68 487 68 487 68 535 c 257,27,28
 68 584 68 584 94.5 623.5 c 128,-1,29
 121 663 121 663 170.5 686.5 c 128,-1,30
 220 710 220 710 288 710 c 257,31,32
 345 710 345 710 399 689.5 c 128,-1,33
 453 669 453 669 484 628 c 257,34,35
 494 614 494 614 494 607 c 257,36,37
 494 600 494 600 486.5 593 c 128,-1,38
 479 586 479 586 470 586 c 257,39,40
 462 586 462 586 457 592 c 257,41,42
 439 616 439 616 413.5 633.5 c 128,-1,43
 388 651 388 651 356 660.5 c 128,-1,44
 324 670 324 670 288 670 c 257,45,46
 239 670 239 670 199 654 c 128,-1,47
 159 638 159 638 135 608.5 c 128,-1,48
 111 579 111 579 111 536 c 257,49,50
 111 490 111 490 137.5 460.5 c 128,-1,51
 164 431 164 431 205 411.5 c 128,-1,52
 246 392 246 392 289 376 c 257,53,54
 327 363 327 363 364.5 347.5 c 128,-1,55
 402 332 402 332 432.5 309 c 128,-1,56
 463 286 463 286 481 251 c 128,-1,57
 499 216 499 216 499 163 c 257,58,59
 499 117 499 117 472.5 78 c 128,-1,60
 446 39 446 39 398 15 c 128,-1,61
 350 -9 350 -9 283 -10 c 257,0,1
EndSplineSet
EndChar

StartChar: uni1E9E
Encoding: 189 7838 189
GlifName: uni1E9E
Width: 692
VWidth: 0
Flags: W
LayerCount: 4
Fore
SplineSet
455 -10 m 257,0,1
 419 -10 419 -10 390.5 -0.5 c 128,-1,2
 362 9 362 9 338.5 28 c 128,-1,3
 315 47 315 47 293 75 c 257,4,5
 292 77 292 77 289 82 c 128,-1,6
 286 87 286 87 286 92 c 257,7,8
 286 100 286 100 293.5 106.5 c 128,-1,9
 301 113 301 113 309 113 c 257,10,11
 313 113 313 113 317.5 111 c 128,-1,12
 322 109 322 109 326 104 c 257,13,14
 351 69 351 69 384 49.5 c 128,-1,15
 417 30 417 30 451 30 c 257,16,17
 490 30 490 30 523.5 46.5 c 128,-1,18
 557 63 557 63 577.5 93.5 c 128,-1,19
 598 124 598 124 598 165 c 257,20,21
 596 208 596 208 578.5 236.5 c 128,-1,22
 561 265 561 265 535 285 c 128,-1,23
 509 305 509 305 480 322 c 257,24,25
 448 342 448 342 418 363 c 128,-1,26
 388 384 388 384 369 415.5 c 128,-1,27
 350 447 350 447 350 495 c 257,28,29
 350 528 350 528 364.5 555.5 c 128,-1,30
 379 583 379 583 407 604 c 128,-1,31
 435 625 435 625 475.5 638 c 128,-1,32
 516 651 516 651 568 654 c 257,33,-1
 565 633 l 257,34,35
 547 651 547 651 519 663 c 128,-1,36
 491 675 491 675 459.5 681.5 c 128,-1,37
 428 688 428 688 396 688 c 257,38,39
 322 688 322 688 272.5 668.5 c 128,-1,40
 223 649 223 649 194.5 615.5 c 128,-1,41
 166 582 166 582 154 540 c 128,-1,42
 142 498 142 498 142 453 c 257,43,-1
 140 24 l 257,44,45
 140 14 140 14 135 9 c 128,-1,46
 130 4 130 4 120 4 c 257,47,48
 110 4 110 4 105 9 c 128,-1,49
 100 14 100 14 100 24 c 257,50,-1
 102 453 l 257,51,52
 102 502 102 502 116 550 c 128,-1,53
 130 598 130 598 163.5 638 c 128,-1,54
 197 678 197 678 254 702 c 128,-1,55
 311 726 311 726 396 726 c 257,56,57
 449 726 449 726 500.5 710.5 c 128,-1,58
 552 695 552 695 585 670 c 257,59,60
 602 656 602 656 602 645 c 257,61,62
 602 639 602 639 599.5 635 c 128,-1,63
 597 631 597 631 592.5 629 c 128,-1,64
 588 627 588 627 582 626 c 257,65,66
 519 619 519 619 477 600 c 128,-1,67
 435 581 435 581 414 554.5 c 128,-1,68
 393 528 393 528 393 496 c 257,69,70
 393 460 393 460 408 436 c 128,-1,71
 423 412 423 412 447.5 395 c 128,-1,72
 472 378 472 378 499 362 c 257,73,74
 524 347 524 347 549 330.5 c 128,-1,75
 574 314 574 314 595 292 c 128,-1,76
 616 270 616 270 628.5 238.5 c 128,-1,77
 641 207 641 207 641 163 c 257,78,79
 641 117 641 117 618.5 78 c 128,-1,80
 596 39 596 39 554.5 15 c 128,-1,81
 513 -9 513 -9 455 -10 c 257,0,1
EndSplineSet
EndChar

StartChar: uni018F
Encoding: 190 399 190
GlifName: uni018F
Width: 753
VWidth: 0
Flags: W
LayerCount: 4
Fore
SplineSet
376 -10 m 257,0,1
 311 -10 311 -10 252.5 16.5 c 128,-1,2
 194 43 194 43 149 90.5 c 128,-1,3
 104 138 104 138 78 200 c 128,-1,4
 52 262 52 262 50 333 c 257,5,-1
 50 350 l 257,6,7
 50 358 50 358 56 362.5 c 128,-1,8
 62 367 62 367 70 367 c 257,9,-1
 675 367 l 257,10,-1
 677 327 l 257,11,-1
 91 327 l 257,12,13
 94 266 94 266 117.5 212 c 128,-1,14
 141 158 141 158 180.5 117 c 128,-1,15
 220 76 220 76 270 53 c 128,-1,16
 320 30 320 30 376 30 c 257,17,18
 433 30 433 30 484 54 c 128,-1,19
 535 78 535 78 574.5 121 c 128,-1,20
 614 164 614 164 637 222 c 128,-1,21
 660 280 660 280 660 347 c 257,22,23
 660 415 660 415 637 473.5 c 128,-1,24
 614 532 614 532 574.5 576 c 128,-1,25
 535 620 535 620 484 645 c 128,-1,26
 433 670 433 670 376 670 c 257,27,28
 291 670 291 670 230.5 639 c 128,-1,29
 170 608 170 608 123 545 c 257,30,31
 118 539 118 539 111 537.5 c 128,-1,32
 104 536 104 536 97 540 c 257,33,34
 89 545 89 545 87.5 554 c 128,-1,35
 86 563 86 563 92 570 c 257,36,37
 145 639 145 639 213.5 674.5 c 128,-1,38
 282 710 282 710 376 710 c 257,39,40
 444 710 444 710 503 682 c 128,-1,41
 562 654 562 654 607 604.5 c 128,-1,42
 652 555 652 555 677.5 490 c 128,-1,43
 703 425 703 425 703 350 c 257,44,45
 703 275 703 275 677.5 210 c 128,-1,46
 652 145 652 145 607 95.5 c 128,-1,47
 562 46 562 46 503 18 c 128,-1,48
 444 -10 444 -10 376 -10 c 257,0,1
EndSplineSet
EndChar

StartChar: T
Encoding: 191 84 191
GlifName: T
Width: 596
VWidth: 0
Flags: W
LayerCount: 4
Back
SplineSet
298 0 m 261
 292 0 287.166666667 2 283.5 6 c 132
 279.833333333 10 278 14.6666666667 278 20 c 261
 278 676 l 261
 318 676 l 261
 318 20 l 261
 318 14.6666666667 316 10 312 6 c 132
 308 2 303.333333333 0 298 0 c 261
55 662 m 261
 49.6666666667 662 45 663.833333333 41 667.5 c 132
 37 671.166666667 35 675.666666667 35 681 c 261
 35 686.333333333 37 690.833333333 41 694.5 c 132
 45 698.166666667 49.6666666667 700 55 700 c 261
 541 700 l 261
 546.333333333 700 551 698.166666667 555 694.5 c 132
 559 690.833333333 561 686.333333333 561 681 c 261
 561 675 559 670.333333333 555 667 c 132
 551 663.666666667 546.333333333 662 541 662 c 261
 55 662 l 261
EndSplineSet
Fore
SplineSet
55 662 m 277,0,1
 47 662 47 662 41 667.5 c 128,-1,2
 35 673 35 673 35 681 c 257,3,4
 35 689 35 689 41 694.5 c 128,-1,5
 47 700 47 700 55 700 c 257,6,-1
 541 700 l 257,7,8
 549 700 549 700 555 694.5 c 128,-1,9
 561 689 561 689 561 681 c 257,10,11
 561 672 561 672 555 667 c 128,-1,12
 549 662 549 662 541 662 c 257,13,-1
 318 662 l 1,14,-1
 318 20 l 257,15,16
 318 12 318 12 312 6 c 128,-1,17
 306 0 306 0 298 0 c 257,18,19
 289 0 289 0 283.5 6 c 128,-1,20
 278 12 278 12 278 20 c 257,21,-1
 278 661.875 l 9,22,-1
 55 662 l 277,0,1
EndSplineSet
EndChar

StartChar: U
Encoding: 199 85 199
GlifName: U
Width: 715
VWidth: 0
Flags: W
LayerCount: 4
Fore
SplineSet
595 700 m 261,0,1
 604 700 604 700 609.5 694 c 132,-1,2
 615 688 615 688 615 680 c 261,3,-1
 615 248 l 261,4,5
 615 177 615 177 580 118.5 c 132,-1,6
 545 60 545 60 487 25 c 132,-1,7
 429 -10 429 -10 358 -10 c 261,8,9
 287 -10 287 -10 228.5 25 c 132,-1,10
 170 60 170 60 135 118.5 c 132,-1,11
 100 177 100 177 100 248 c 261,12,-1
 100 680 l 261,13,14
 100 688 100 688 105.5 694 c 132,-1,15
 111 700 111 700 121 700 c 261,16,17
 130 700 130 700 136 694 c 132,-1,18
 142 688 142 688 142 680 c 261,19,-1
 142 248 l 261,20,21
 142 188 142 188 171 138.5 c 132,-1,22
 200 89 200 89 249.5 59.5 c 132,-1,23
 299 30 299 30 358 30 c 261,24,25
 418 30 418 30 467 59.5 c 132,-1,26
 516 89 516 89 545.5 138.5 c 132,-1,27
 575 188 575 188 575 248 c 261,28,-1
 575 680 l 261,29,30
 575 688 575 688 580.5 694 c 132,-1,31
 586 700 586 700 595 700 c 261,0,1
EndSplineSet
EndChar

StartChar: Uacute
Encoding: 200 218 200
GlifName: Uacute
Width: 715
VWidth: 0
Flags: W
LayerCount: 4
Back
SplineSet
286 747 m 260
 282.666992188 748.333007812 280.666992188 750.333007812 280 753 c 4
 278.666992188 757.666992188 278.666992188 760.666992188 280 762 c 260
 281.333007812 764.666992188 284.666992188 768 290 772 c 262
 433 882 l 4
 444 891 l 262
 448 893.666992188 452.333007812 896 457 898 c 4
 462.333007812 900 468 899.666992188 474 897 c 260
 480.666992188 894.333007812 485.666992188 890.666992188 489 886 c 4
 492.333007812 880.666992188 492.333007812 873.666992188 489 865 c 260
 487.666992188 861.666992188 486.333007812 859.333007812 485 858 c 4
 483.666992188 856 481.333007812 854 478 852 c 261
 316 753 l 262
 310.666992188 749.666992188 306 747.666992188 302 747 c 4
 295.333007812 745.666992188 290 745.666992188 286 747 c 260
EndSplineSet
Fore
Refer: 740 769 S 1 0 0 1 267 192 2
Refer: 199 85 N 1 0 0 1 0 0 2
EndChar

StartChar: Ugrave
Encoding: 207 217 207
GlifName: Ugrave
Width: 715
VWidth: 0
Flags: W
LayerCount: 4
Back
SplineSet
429 747 m 260
 425.666992188 748.333007812 423.666992188 750.333007812 423 753 c 4
 421.666992188 757.666992188 421.666992188 760.666992188 423 762 c 260
 424.333007812 764.666992188 427.666992188 768 433 772 c 262
 576 882 l 4
 587 891 l 262
 591 893.666992188 595.333007812 896 600 898 c 4
 605.333007812 900 611 899.666992188 617 897 c 260
 623.666992188 894.333007812 628.666992188 890.666992188 632 886 c 4
 635.333007812 880.666992188 635.333007812 873.666992188 632 865 c 260
 630.666992188 861.666992188 629.333007812 859.333007812 628 858 c 4
 626.666992188 856 624.333007812 854 621 852 c 261
 459 753 l 262
 453.666992188 749.666992188 449 747.666992188 445 747 c 4
 438.333007812 745.666992188 433 745.666992188 429 747 c 260
EndSplineSet
Fore
Refer: 739 768 S 1 0 0 1 205 191 2
Refer: 199 85 N 1 0 0 1 0 0 2
EndChar

StartChar: Uogonek
Encoding: 219 370 219
GlifName: Uogonek
Width: 715
VWidth: 0
Flags: W
LayerCount: 4
Fore
SplineSet
429 -185 m 257,0,1
 396 -185 396 -185 368.5 -160 c 128,-1,2
 341 -135 341 -135 341 -93 c 257,3,4
 341 -70 341 -70 349 -51.5 c 128,-1,5
 357 -33 357 -33 370 -19 c 128,-1,6
 383 -5 383 -5 399 4.5 c 128,-1,7
 415 14 415 14 431 19 c 257,8,-1
 396 -7 l 257,9,10
 387 -8 387 -8 377.5 -9 c 128,-1,11
 368 -10 368 -10 358 -10 c 257,12,13
 287 -10 287 -10 228.5 25 c 128,-1,14
 170 60 170 60 135 118.5 c 128,-1,15
 100 177 100 177 100 248 c 257,16,-1
 100 680 l 257,17,18
 100 688 100 688 105.5 694 c 128,-1,19
 111 700 111 700 121 700 c 257,20,21
 130 700 130 700 136 694 c 128,-1,22
 142 688 142 688 142 680 c 257,23,-1
 142 248 l 257,24,25
 142 188 142 188 171 138.5 c 128,-1,26
 200 89 200 89 249.5 59.5 c 128,-1,27
 299 30 299 30 358 30 c 257,28,29
 420 30 420 30 469 59.5 c 128,-1,30
 518 89 518 89 546.5 138.5 c 128,-1,31
 575 188 575 188 575 248 c 257,32,-1
 575 680 l 257,33,34
 575 688 575 688 580.5 694 c 128,-1,35
 586 700 586 700 595 700 c 257,36,37
 604 700 604 700 609.5 694 c 128,-1,38
 615 688 615 688 615 680 c 257,39,-1
 615 248 l 257,40,41
 615 199 615 199 598.5 154.5 c 128,-1,42
 582 110 582 110 551.5 75 c 128,-1,43
 521 40 521 40 479 21 c 257,44,45
 463 14 463 14 439 2 c 128,-1,46
 415 -10 415 -10 397 -30.5 c 128,-1,47
 379 -51 379 -51 379 -85 c 257,48,49
 379 -115 379 -115 396 -131.5 c 128,-1,50
 413 -148 413 -148 434 -148 c 257,51,52
 459 -148 459 -148 465 -138 c 257,53,54
 470 -130 470 -130 474.5 -126 c 128,-1,55
 479 -122 479 -122 486 -122 c 257,56,57
 493 -122 493 -122 497 -126.5 c 128,-1,58
 501 -131 501 -131 501 -136 c 257,59,60
 501 -149 501 -149 491.5 -160.5 c 128,-1,61
 482 -172 482 -172 466 -178.5 c 128,-1,62
 450 -185 450 -185 429 -185 c 257,0,1
EndSplineSet
EndChar

StartChar: V
Encoding: 223 86 223
GlifName: V
Width: 660
VWidth: 0
Flags: W
LayerCount: 4
Fore
SplineSet
605 700 m 257,0,1
 615 700 615 700 620 695 c 128,-1,2
 625 690 625 690 625 682 c 257,3,4
 625 678 625 678 623 672 c 257,5,-1
 349 13 l 257,6,7
 346 7 346 7 341 3.5 c 128,-1,8
 336 0 336 0 330 0 c 257,9,10
 324 0 324 0 318.5 3.5 c 128,-1,11
 313 7 313 7 311 13 c 257,12,-1
 39 669 l 257,13,14
 38 671 38 671 37 674 c 128,-1,15
 36 677 36 677 36 681 c 257,16,17
 36 689 36 689 42 694.5 c 128,-1,18
 48 700 48 700 55 700 c 257,19,20
 70 700 70 700 77 684 c 257,21,-1
 337 58 l 257,22,-1
 325 59 l 257,23,-1
 586 687 l 257,24,25
 593 700 593 700 605 700 c 257,0,1
EndSplineSet
EndChar

StartChar: W
Encoding: 224 87 224
GlifName: W
Width: 974
VWidth: 0
Flags: W
LayerCount: 4
Fore
SplineSet
918 702 m 257,0,1
 927 702 927 702 933 697.5 c 128,-1,2
 939 693 939 693 939 683 c 257,3,4
 939 679 939 679 937 673 c 257,5,-1
 708 13 l 257,6,7
 706 7 706 7 700.5 3.5 c 128,-1,8
 695 0 695 0 690 0 c 257,9,10
 683 0 683 0 677.5 2.5 c 128,-1,11
 672 5 672 5 670 12 c 257,12,-1
 483 484 l 257,13,-1
 491 484 l 257,14,-1
 304 12 l 257,15,16
 301 5 301 5 295.5 2.5 c 128,-1,17
 290 0 290 0 283 0 c 257,18,19
 278 0 278 0 273 3.5 c 128,-1,20
 268 7 268 7 266 13 c 257,21,-1
 37 673 l 257,22,23
 35 679 35 679 35 682 c 257,24,25
 35 692 35 692 42.5 697 c 128,-1,26
 50 702 50 702 57 702 c 257,27,28
 63 702 63 702 68.5 698.5 c 128,-1,29
 74 695 74 695 76 689 c 257,30,-1
 291 68 l 257,31,-1
 284 67 l 257,32,-1
 468 532 l 257,33,34
 470 538 470 538 475 541.5 c 128,-1,35
 480 545 480 545 487 545 c 257,36,37
 493 545 493 545 498.5 541.5 c 128,-1,38
 504 538 504 538 506 532 c 257,39,-1
 692 64 l 257,40,-1
 683 63 l 257,41,-1
 898 689 l 257,42,43
 900 695 900 695 905 698.5 c 128,-1,44
 910 702 910 702 918 702 c 257,0,1
EndSplineSet
EndChar

StartChar: X
Encoding: 229 88 229
GlifName: X
Width: 589
VWidth: 0
Flags: W
LayerCount: 4
Back
SplineSet
539 704 m 261
 544.333333333 704 549 702.666666667 553 700 c 132
 557 697.333333333 559 693.333333333 559 688 c 261
 559 683.333333333 557.333333333 678.666666667 554 674 c 261
 315 345 l 261
 293 379 l 261
 524 696 l 261
 528 701.333333333 533 704 539 704 c 261
50 703 m 261
 58 703 63.6666666667 700.333333333 67 695 c 261
 554 29 l 261
 557.333333333 24.3333333333 559 20.3333333333 559 17 c 261
 559 11 556.833333333 6.16666666667 552.5 2.5 c 132
 548.166666667 -1.16666666667 543.333333333 -3 538 -3 c 261
 530.666666667 -3 525.333333333 -0.333333333333 522 5 c 261
 34 671 l 261
 31.3333333333 674.333333333 30 678.333333333 30 683 c 261
 30 689 32 693.833333333 36 697.5 c 132
 40 701.166666667 44.6666666667 703 50 703 c 261
50 -3 m 261
 43.3333333333 -3 38.5 -1 35.5 3 c 132
 32.5 7 31 10.6666666667 31 14 c 261
 31 17.3333333333 32.6666666667 21.6666666667 36 27 c 261
 275 353 l 261
 295 319 l 261
 65 5 l 261
 61.6666666667 -0.333333333333 56.6666666667 -3 50 -3 c 261
EndSplineSet
Fore
SplineSet
50 703 m 257,0,1
 62 703 62 703 67 695 c 257,2,-1
 554 29 l 257,3,4
 559 22 559 22 559 17 c 257,5,6
 559 8 559 8 552.5 2.5 c 128,-1,7
 546 -3 546 -3 538 -3 c 257,8,9
 527 -3 527 -3 522 5 c 257,10,-1
 34 671 l 257,11,12
 30 676 30 676 30 683 c 257,13,14
 30 692 30 692 36 697.5 c 128,-1,15
 42 703 42 703 50 703 c 257,0,1
295 319 m 273,16,-1
 65 5 l 257,17,18
 60 -3 60 -3 50 -3 c 257,19,20
 40 -3 40 -3 35.5 3 c 128,-1,21
 31 9 31 9 31 14 c 257,22,23
 31 19 31 19 36 27 c 257,24,-1
 275 353 l 257,25,-1
 293 379 l 257,26,-1
 524 696 l 257,27,28
 530 704 530 704 539 704 c 257,29,30
 547 704 547 704 553 700 c 128,-1,31
 559 696 559 696 559 688 c 257,32,33
 559 681 559 681 554 674 c 257,34,-1
 315 345 l 265,35,-1
 295 319 l 273,16,-1
EndSplineSet
EndChar

StartChar: Y
Encoding: 230 89 230
GlifName: Y
Width: 547
VWidth: 0
Flags: W
LayerCount: 4
Back
SplineSet
507 704 m 257
 513.666666667 704 518.666666667 701.666666667 522 697 c 128
 525.333333333 692.333333333 527 688.333333333 527 685 c 257
 527 682.333333333 526.666666667 680 526 678 c 128
 525.333333333 676 524.333333333 674 523 672 c 257
 286 346 l 257
 295 379 l 257
 295 20 l 257
 295 14.6666666667 293 10 289 6 c 128
 285 2 280 0 274 0 c 257
 267.333333333 0 262.166666667 2 258.5 6 c 128
 254.833333333 10 253 14.6666666667 253 20 c 257
 253 372 l 257
 258 351 l 257
 24 672 l 257
 22.6666666667 674 21.6666666667 676 21 678 c 128
 20.3333333333 680 20 682.333333333 20 685 c 257
 20 690.333333333 22.3333333333 694.833333333 27 698.5 c 128
 31.6666666667 702.166666667 36.3333333333 704 41 704 c 257
 48.3333333333 704 54 701 58 695 c 257
 280 392 l 257
 270 390 l 257
 490 695 l 257
 494 701 499.666666667 704 507 704 c 257
507 704 m 257
 513.666666667 704 518.666666667 701.666666667 522 697 c 128
 525.333333333 692.333333333 527 688.333333333 527 685 c 257
 527 682.333333333 526.666666667 680 526 678 c 128
 525.333333333 676 524.333333333 674 523 672 c 257
 286 350 l 257
 295 379 l 257
 295 20 l 257
 295 14.6666666667 293 10 289 6 c 128
 285 2 280 0 274 0 c 257
 267.333333333 0 262.166666667 2 258.5 6 c 128
 254.833333333 10 253 14.6666666667 253 20 c 257
 253 372 l 257
 258 351 l 257
 24 672 l 257
 22.6666666667 674 21.6666666667 676 21 678 c 128
 20.3333333333 680 20 682.333333333 20 685 c 257
 20 690.333333333 22.3333333333 694.833333333 27 698.5 c 128
 31.6666666667 702.166666667 36.3333333333 704 41 704 c 257
 48.3333333333 704 54 701 58 695 c 257
 280 392 l 257
 270 394 l 257
 490 695 l 257
 494 701 499.666666667 704 507 704 c 257
EndSplineSet
Fore
SplineSet
507 706 m 257,0,1
 517 706 517 706 522 699 c 128,-1,2
 527 692 527 692 527 687 c 257,3,4
 527 683 527 683 526 680 c 128,-1,5
 525 677 525 677 523 674 c 257,6,-1
 294.670731707 358 l 1,7,-1
 295 20 l 258,8,9
 295 12 295 12 289 6 c 128,-1,10
 283 0 283 0 274 0 c 257,11,12
 264 0 264 0 258.5 6 c 128,-1,13
 253 12 253 12 253 20 c 257,14,-1
 253 357 l 2,15,16
 253 357.858974359 253 357.858974359 24 672 c 256,17,18
 22 675 22 675 21 678 c 128,-1,19
 20 681 20 681 20 685 c 257,20,21
 20 693 20 693 27 698.5 c 128,-1,22
 34 704 34 704 41 704 c 257,23,24
 52 704 52 704 58 695 c 257,25,-1
 280 392 l 257,26,-1
 270 390 l 257,27,-1
 490 697 l 257,28,29
 496 706 496 706 507 706 c 257,0,1
EndSplineSet
EndChar

StartChar: Z
Encoding: 240 90 240
GlifName: Z
Width: 643
VWidth: 0
Flags: W
LayerCount: 4
Fore
SplineSet
570 700 m 257,0,1
 583 700 583 700 588 693.5 c 128,-1,2
 593 687 593 687 593 680 c 257,3,4
 593 673 593 673 589 668 c 257,5,-1
 111 28 l 257,6,-1
 112 38 l 257,7,-1
 572 38 l 257,8,9
 580 38 580 38 586 32 c 128,-1,10
 592 26 592 26 592 19 c 257,11,12
 592 11 592 11 586 5.5 c 128,-1,13
 580 0 580 0 572 0 c 257,14,-1
 80 0 l 257,15,16
 70 0 70 0 65 7 c 128,-1,17
 60 14 60 14 60 21 c 257,18,19
 60 28 60 28 64 33 c 257,20,-1
 539 666 l 257,21,-1
 545 662 l 257,22,-1
 100 662 l 257,23,24
 92 662 92 662 86 668 c 128,-1,25
 80 674 80 674 80 681 c 257,26,27
 80 689 80 689 86 694.5 c 128,-1,28
 92 700 92 700 100 700 c 257,29,-1
 570 700 l 257,0,1
EndSplineSet
EndChar

StartChar: a
Encoding: 245 97 245
GlifName: a__1
Width: 580
VWidth: 0
Flags: W
LayerCount: 4
Fore
SplineSet
457 170 m 258,0,1
 457 469 l 262,2,3
 457 477 457 477 462.5 483 c 132,-1,4
 468 489 468 489 477 489 c 260,5,6
 486 489 486 489 491.5 483 c 132,-1,7
 497 477 497 477 497 469 c 262,8,-1
 497 170 l 258,9,10
 497 155 497 155 500.811523438 120.55078125 c 0,11,12
 504 96 504 96 514.686523438 62.4189453125 c 0,13,14
 519 48 519 48 537.052734375 20.1943359375 c 0,15,16
 541 14 541 14 540.479492188 6.7587890625 c 0,17,18
 540.012302169 -0.800935378007 540.012302169 -0.800935378007 534.043945312 -5.8037109375 c 258,19,-1
 532.510742188 -7.0888671875 l 2,20,21
 527 -12 527 -12 519.71875 -11.28125 c 0,22,23
 512 -11 512 -11 506.51171875 -4.08203125 c 256,24,25
 487 19 487 19 478.68359375 45.30078125 c 0,26,27
 467 80 467 80 461.926757812 115.236328125 c 0,28,29
 457 150 457 150 457 170 c 258,0,1
492 214 m 256,30,31
 484.56516166 168.151830238 484.56516166 168.151830238 466.296203222 130 c 0,32,33
 455.822969201 107.174063158 455.822969201 107.174063158 442 87 c 0,34,35
 405 33 405 33 349 7.5 c 128,-1,36
 293 -18 293 -18 233 -7 c 256,37,38
 164 5 164 5 120 48 c 128,-1,39
 76 91 76 91 59 154.5 c 128,-1,40
 42 218 42 218 55 290 c 256,41,42
 68 364 68 364 105.5 418 c 128,-1,43
 143 472 143 472 199.5 497 c 128,-1,44
 256 522 256 522 324 510 c 256,45,46
 384 499 384 499 428 456.5 c 128,-1,47
 472 414 472 414 487.5 351 c 128,-1,48
 503 288 503 288 492 214 c 256,30,31
452 200 m 256,49,50
 463 264 463 264 451 327.5 c 128,-1,51
 439 391 439 391 403 427.5 c 128,-1,52
 367 464 367 464 318 473 c 256,53,54
 260 483 260 483 213.5 461 c 128,-1,55
 167 439 167 439 136.5 393.5 c 128,-1,56
 106 348 106 348 95 284 c 256,57,58
 84 221 84 221 96.5 167 c 128,-1,59
 109 113 109 113 145.5 77 c 128,-1,60
 182 41 182 41 240 30 c 256,61,62
 289 21 289 21 335 43 c 128,-1,63
 381 65 381 65 411 101 c 128,-1,64
 441 137 441 137 452 200 c 256,49,50
EndSplineSet
Layer: 2
SplineSet
496 499 m 261
 502 499 506.833333333 497 510.5 493 c 132
 514.166666667 489 516 484.333333333 516 479 c 261
 516 20 l 261
 516 14.6666666667 514 10 510 6 c 132
 506 2 501.333333333 0 496 0 c 261
 490 0 485.166666667 2 481.5 6 c 132
 477.833333333 10 476 14.6666666667 476 20 c 261
 476 162 l 261
 492 175 l 261
 492 153.666666667 486.666666667 132 476 110 c 132
 465.333333333 88 450.666666667 68 432 50 c 132
 413.333333333 32 391.333333333 17.5 366 6.5 c 132
 340.666666667 -4.5 313.333333333 -10 284 -10 c 261
 239.333333333 -10 199.5 1.66666666667 164.5 25 c 132
 129.5 48.3333333333 102 80 82 120 c 132
 62 160 52 205 52 255 c 261
 52 305.666666667 62.1666666667 350.5 82.5 389.5 c 132
 102.833333333 428.5 130.5 459.166666667 165.5 481.5 c 132
 200.5 503.833333333 240 515 284 515 c 261
 312.666666667 515 339.666666667 509.833333333 365 499.5 c 132
 390.333333333 489.166666667 412.5 474.666666667 431.5 456 c 132
 450.5 437.333333333 465.333333333 415.5 476 390.5 c 132
 486.666666667 365.5 492 338.333333333 492 309 c 261
 476 334 l 261
 476 479 l 261
 476 484.333333333 477.833333333 489 481.5 493 c 132
 485.166666667 497 490 499 496 499 c 261
286 28 m 261
 323.333333333 28 356.666666667 37.8333333333 386 57.5 c 132
 415.333333333 77.1666666667 438.333333333 104.166666667 455 138.5 c 132
 471.666666667 172.833333333 480 211.666666667 480 255 c 261
 480 296.333333333 471.666666667 333.833333333 455 367.5 c 132
 438.333333333 401.166666667 415.333333333 427.833333333 386 447.5 c 132
 356.666666667 467.166666667 323.333333333 477 286 477 c 261
 249.333333333 477 216.333333333 467.5 187 448.5 c 132
 157.666666667 429.5 134.5 403.333333333 117.5 370 c 132
 100.5 336.666666667 92 298.333333333 92 255 c 261
 92 211.666666667 100.333333333 172.833333333 117 138.5 c 132
 133.666666667 104.166666667 156.666666667 77.1666666667 186 57.5 c 132
 215.333333333 37.8333333333 248.666666667 28 286 28 c 261
EndSplineSet
Layer: 3
SplineSet
457 170 m 262
 457 479 l 262
 457 484.333333333 458.833333333 489 462.5 493 c 132
 466.166666667 497 471 499 477 499 c 260
 483 499 487.833333333 497 491.5 493 c 132
 495.166666667 489 497 484.333333333 497 479 c 262
 497 170 l 262
 497 160 498.270507813 143.516927083 500.811523438 120.55078125 c 4
 502.937174479 104.18359375 507.562174479 84.8063151042 514.686523438 62.4189453125 c 4
 517.562174479 52.8063151042 525.017578125 38.7314453125 537.052734375 20.1943359375 c 4
 539.684244792 16.0647786458 540.826497396 11.5862630208 540.479492188 6.7587890625 c 4
 540.168032175 1.71897276623 538.022849883 -2.46852723377 534.043945312 -5.8037109375 c 262
 532.510742188 -7.0888671875 l 6
 528.836914063 -10.3629557292 524.572916667 -11.7604166667 519.71875 -11.28125 c 4
 514.572916667 -11.09375 510.170572917 -8.69401041667 506.51171875 -4.08203125 c 260
 493.50390625 11.3059895833 484.227864583 27.7669270833 478.68359375 45.30078125 c 4
 470.89453125 68.43359375 465.308919271 91.7454427083 461.926757812 115.236328125 c 4
 458.642252604 138.412109375 457 156.666666667 457 170 c 262
492 214 m 260
 487.043441107 183.434553492 478.475508847 155.434553492 466.296203222 130 c 4
 459.314047208 114.782708772 451.215312801 100.449375439 442 87 c 4
 417.333333333 51 386.333333333 24.5 349 7.5 c 132
 311.666666667 -9.5 273 -14.3333333333 233 -7 c 260
 187 1 149.333333333 19.3333333333 120 48 c 132
 90.6666666667 76.6666666667 70.3333333333 112.166666667 59 154.5 c 132
 47.6666666667 196.833333333 46.3333333333 242 55 290 c 260
 63.6666666667 339.333333333 80.5 382 105.5 418 c 132
 130.5 454 161.833333333 480.333333333 199.5 497 c 132
 237.166666667 513.666666667 278.666666667 518 324 510 c 260
 364 502.666666667 398.666666667 484.833333333 428 456.5 c 132
 457.333333333 428.166666667 477.166666667 393 487.5 351 c 132
 497.833333333 309 499.333333333 263.333333333 492 214 c 260
452 200 m 260
 459.333333333 242.666666667 459 285.166666667 451 327.5 c 132
 443 369.833333333 427 403.166666667 403 427.5 c 132
 379 451.833333333 350.666666667 467 318 473 c 260
 279.333333333 479.666666667 244.5 475.666666667 213.5 461 c 132
 182.5 446.333333333 156.833333333 423.833333333 136.5 393.5 c 132
 116.166666667 363.166666667 102.333333333 326.666666667 95 284 c 260
 87.6666666667 242 88.1666666667 203 96.5 167 c 132
 104.833333333 131 121.166666667 101 145.5 77 c 132
 169.833333333 53 201.333333333 37.3333333333 240 30 c 260
 272.666666667 24 304.333333333 28.3333333333 335 43 c 132
 365.666666667 57.6666666667 391 77 411 101 c 132
 431 125 444.666666667 158 452 200 c 260
EndSplineSet
EndChar

StartChar: aacute
Encoding: 246 225 246
GlifName: aacute__1
Width: 580
VWidth: 0
Flags: W
LayerCount: 4
Back
SplineSet
197 555 m 260
 193.666992188 556.333007812 191.666992188 558.333007812 191 561 c 4
 189.666992188 565.666992188 189.666992188 568.666992188 191 570 c 260
 192.333007812 572.666992188 195.666992188 576 201 580 c 262
 344 690 l 4
 355 699 l 262
 359 701.666992188 363.333007812 704 368 706 c 4
 373.333007812 708 379 707.666992188 385 705 c 260
 391.666992188 702.333007812 396.666992188 698.666992188 400 694 c 4
 403.333007812 688.666992188 403.333007812 681.666992188 400 673 c 260
 398.666992188 669.666992188 397.333007812 667.333007812 396 666 c 4
 394.666992188 664 392.333007812 662 389 660 c 261
 227 561 l 262
 221.666992188 557.666992188 217 555.666992188 213 555 c 4
 206.333007812 553.666992188 201 553.666992188 197 555 c 260
EndSplineSet
Fore
Refer: 245 97 N 1 0 0 1 0 0 2
Refer: 740 769 N 1 0 0 1 178 0 2
EndChar

StartChar: amacron
Encoding: 266 257 266
GlifName: amacron__1
Width: 580
VWidth: 0
Flags: W
LayerCount: 4
Back
SplineSet
169 610 m 261
 155.666992188 610 149 616 149 628 c 261
 149 640 155.666992188 646 169 646 c 261
 409 646 l 261
 422.333007812 646 429 640 429 628 c 261
 429 616 422.333007812 610 409 610 c 261
 169 610 l 261
EndSplineSet
Fore
Refer: 245 97 N 1 0 0 1 0 0 2
Refer: 748 772 N 1 0 0 1 99 39 2
EndChar

StartChar: aogonek
Encoding: 267 261 267
GlifName: aogonek__1
Width: 597
VWidth: 0
Flags: W
LayerCount: 4
Fore
SplineSet
286 28 m 257,0,1
 342 28 342 28 386 57.5 c 128,-1,2
 430 87 430 87 455 138.5 c 128,-1,3
 480 190 480 190 480 255 c 257,4,5
 480 317 480 317 455 367.5 c 128,-1,6
 430 418 430 418 386 447.5 c 128,-1,7
 342 477 342 477 286 477 c 257,8,9
 231 477 231 477 187 448.5 c 128,-1,10
 143 420 143 420 117.5 370 c 128,-1,11
 92 320 92 320 92 255 c 257,12,13
 92 190 92 190 117 138.5 c 128,-1,14
 142 87 142 87 186 57.5 c 128,-1,15
 230 28 230 28 286 28 c 257,0,1
480 -185 m 257,16,17
 447 -185 447 -185 419.5 -160 c 128,-1,18
 392 -135 392 -135 392 -93 c 257,19,20
 392 -70 392 -70 399.5 -51.5 c 128,-1,21
 407 -33 407 -33 419.5 -20 c 128,-1,22
 432 -7 432 -7 447 2.5 c 128,-1,23
 462 12 462 12 478 17 c 257,24,-1
 476 9 l 257,25,-1
 476 162 l 257,26,-1
 492 175 l 257,27,28
 492 143 492 143 476 110 c 128,-1,29
 460 77 460 77 432 50 c 128,-1,30
 404 23 404 23 366 6.5 c 128,-1,31
 328 -10 328 -10 284 -10 c 257,32,33
 217 -10 217 -10 164.5 25 c 128,-1,34
 112 60 112 60 82 120 c 128,-1,35
 52 180 52 180 52 255 c 257,36,37
 52 331 52 331 82.5 389.5 c 128,-1,38
 113 448 113 448 165.5 481.5 c 128,-1,39
 218 515 218 515 284 515 c 257,40,41
 327 515 327 515 365 499.5 c 128,-1,42
 403 484 403 484 431.5 456 c 128,-1,43
 460 428 460 428 476 390.5 c 128,-1,44
 492 353 492 353 492 309 c 257,45,-1
 476 334 l 257,46,-1
 476 479 l 257,47,48
 476 487 476 487 481.5 493 c 128,-1,49
 487 499 487 499 496 499 c 257,50,51
 505 499 505 499 510.5 493 c 128,-1,52
 516 487 516 487 516 479 c 257,53,-1
 516 20 l 257,54,55
 516 13 516 13 510.5 5.5 c 128,-1,56
 505 -2 505 -2 488 -8 c 257,57,58
 464 -16 464 -16 447 -37.5 c 128,-1,59
 430 -59 430 -59 430 -85 c 257,60,61
 430 -115 430 -115 447 -131.5 c 128,-1,62
 464 -148 464 -148 485 -148 c 257,63,64
 496 -148 496 -148 504 -145.5 c 128,-1,65
 512 -143 512 -143 517 -136 c 257,66,67
 522 -131 522 -131 526.5 -126.5 c 128,-1,68
 531 -122 531 -122 538 -122 c 257,69,70
 545 -122 545 -122 548.5 -126.5 c 128,-1,71
 552 -131 552 -131 552 -136 c 257,72,73
 552 -149 552 -149 542.5 -160.5 c 128,-1,74
 533 -172 533 -172 517 -178.5 c 128,-1,75
 501 -185 501 -185 480 -185 c 257,16,17
EndSplineSet
EndChar

StartChar: ae
Encoding: 271 230 271
GlifName: ae__1
Width: 895
VWidth: 0
Flags: W
LayerCount: 4
Fore
SplineSet
270 515 m 257,0,1
 302 515 302 515 330.5 508.5 c 128,-1,2
 359 502 359 502 381.5 487.5 c 128,-1,3
 404 473 404 473 417 448.5 c 128,-1,4
 430 424 430 424 430 388 c 257,5,-1
 430 252 l 257,6,-1
 394 251 l 257,7,-1
 394 370 l 257,8,9
 394 414 394 414 375 437 c 128,-1,10
 356 460 356 460 327.5 468.5 c 128,-1,11
 299 477 299 477 270 477 c 257,12,13
 237 477 237 477 203.5 463 c 128,-1,14
 170 449 170 449 142.5 428 c 128,-1,15
 115 407 115 407 100 384 c 257,16,17
 93 375 93 375 83 375 c 257,18,19
 76 375 76 375 71 380.5 c 128,-1,20
 66 386 66 386 66 393 c 257,21,22
 66 396 66 396 67 399 c 128,-1,23
 68 402 68 402 70 405 c 257,24,25
 91 432 91 432 122.5 457.5 c 128,-1,26
 154 483 154 483 192.5 499 c 128,-1,27
 231 515 231 515 270 515 c 257,0,1
202 -10 m 257,28,29
 167 -10 167 -10 132.5 6.5 c 128,-1,30
 98 23 98 23 75 55.5 c 128,-1,31
 52 88 52 88 52 136 c 257,32,33
 52 193 52 193 89.5 230 c 128,-1,34
 127 267 127 267 193 285.5 c 128,-1,35
 259 304 259 304 344 304 c 257,36,-1
 812 304 l 257,37,-1
 802 295 l 257,38,-1
 802 313 l 257,39,40
 797 366 797 366 768.5 402 c 128,-1,41
 740 438 740 438 700 456.5 c 128,-1,42
 660 475 660 475 617 475 c 257,43,44
 587 475 587 475 554 461.5 c 128,-1,45
 521 448 521 448 493 420.5 c 128,-1,46
 465 393 465 393 447.5 351 c 128,-1,47
 430 309 430 309 430 253 c 257,48,49
 430 192 430 192 454.5 141 c 128,-1,50
 479 90 479 90 527.5 59 c 128,-1,51
 576 28 576 28 647 28 c 257,52,53
 681 28 681 28 711 39.5 c 128,-1,54
 741 51 741 51 765 70 c 128,-1,55
 789 89 789 89 804 111 c 257,56,57
 812 120 812 120 821 120 c 257,58,59
 828 120 828 120 833 114.5 c 128,-1,60
 838 109 838 109 838 102 c 257,61,62
 838 95 838 95 834 90 c 257,63,64
 803 50 803 50 754.5 20 c 128,-1,65
 706 -10 706 -10 647 -10 c 257,66,67
 572 -10 572 -10 514 22 c 128,-1,68
 456 54 456 54 423.5 112.5 c 128,-1,69
 391 171 391 171 391 250 c 257,70,71
 391 334 391 334 423.5 393 c 128,-1,72
 456 452 456 452 507.5 483.5 c 128,-1,73
 559 515 559 515 617 515 c 257,74,75
 659 515 659 515 699 501.5 c 128,-1,76
 739 488 739 488 770.5 459.5 c 128,-1,77
 802 431 802 431 821.5 388.5 c 128,-1,78
 841 346 841 346 843 287 c 257,79,80
 843 279 843 279 837 272.5 c 128,-1,81
 831 266 831 266 823 266 c 257,82,-1
 346 266 l 257,83,84
 272 266 272 266 214.5 252 c 128,-1,85
 157 238 157 238 124.5 209 c 128,-1,86
 92 180 92 180 92 136 c 257,87,88
 92 100 92 100 110 76 c 128,-1,89
 128 52 128 52 154.5 40 c 128,-1,90
 181 28 181 28 206 28 c 257,91,92
 250 28 250 28 291.5 49.5 c 128,-1,93
 333 71 333 71 364.5 101.5 c 128,-1,94
 396 132 396 132 408 157 c 257,95,-1
 430 125 l 257,96,97
 412 98 412 98 381.5 66.5 c 128,-1,98
 351 35 351 35 307 12.5 c 128,-1,99
 263 -10 263 -10 202 -10 c 257,28,29
EndSplineSet
EndChar

StartChar: b
Encoding: 273 98 273
GlifName: b__1
Width: 599
VWidth: 0
Flags: W
LayerCount: 4
Fore
SplineSet
315 515 m 257,0,1
 382 515 382 515 434 481.5 c 128,-1,2
 486 448 486 448 516.5 389.5 c 128,-1,3
 547 331 547 331 547 255 c 257,4,5
 547 180 547 180 516.5 120 c 128,-1,6
 486 60 486 60 433.5 25 c 128,-1,7
 381 -10 381 -10 315 -10 c 257,8,9
 282 -10 282 -10 251.5 0 c 128,-1,10
 221 10 221 10 195 28.5 c 128,-1,11
 169 47 169 47 147.5 73.5 c 128,-1,12
 126 100 126 100 110 133 c 257,13,-1
 123 147 l 257,14,-1
 123 20 l 257,15,16
 123 12 123 12 117.5 6 c 128,-1,17
 112 0 112 0 103 0 c 257,18,19
 95 0 95 0 89 6 c 128,-1,20
 83 12 83 12 83 20 c 257,21,-1
 83 719 l 257,22,23
 83 727 83 727 88.5 733 c 128,-1,24
 94 739 94 739 103 739 c 257,25,26
 112 739 112 739 117.5 733 c 128,-1,27
 123 727 123 727 123 719 c 257,28,-1
 123 357 l 257,29,-1
 110 364 l 257,30,31
 124 401 124 401 145 429 c 128,-1,32
 166 457 166 457 193 476 c 128,-1,33
 220 495 220 495 251 505 c 128,-1,34
 282 515 282 515 315 515 c 257,0,1
313 477 m 257,35,36
 256 477 256 477 212.5 448.5 c 128,-1,37
 169 420 169 420 144 370 c 128,-1,38
 119 320 119 320 119 255 c 257,39,40
 119 190 119 190 144 138.5 c 128,-1,41
 169 87 169 87 212.5 57.5 c 128,-1,42
 256 28 256 28 313 28 c 257,43,44
 369 28 369 28 412.5 58 c 128,-1,45
 456 88 456 88 481.5 139.5 c 128,-1,46
 507 191 507 191 507 255 c 257,47,48
 507 320 507 320 481.5 370 c 128,-1,49
 456 420 456 420 412.5 448.5 c 128,-1,50
 369 477 369 477 313 477 c 257,35,36
EndSplineSet
EndChar

StartChar: c
Encoding: 274 99 274
GlifName: c__1
Width: 517
VWidth: 0
Flags: W
LayerCount: 4
Fore
SplineSet
304 515 m 261,0,1
 349 515 349 515 388.5 505 c 132,-1,2
 428 495 428 495 452.5 478.5 c 132,-1,3
 477 462 477 462 477 444 c 261,4,5
 477 437 477 437 471.5 430.5 c 132,-1,6
 466 424 466 424 458 424 c 261,7,8
 447 424 447 424 440.5 430 c 132,-1,9
 434 436 434 436 427 444.5 c 132,-1,10
 420 453 420 453 405 460 c 261,11,12
 391 467 391 467 365.5 472 c 132,-1,13
 340 477 340 477 303 477 c 261,14,15
 245 477 245 477 197 447 c 132,-1,16
 149 417 149 417 120.5 366.5 c 132,-1,17
 92 316 92 316 92 253 c 261,18,19
 92 189 92 189 118.5 138 c 132,-1,20
 145 87 145 87 192.5 57.5 c 132,-1,21
 240 28 240 28 303 28 c 261,22,23
 348 28 348 28 371.5 36.5 c 132,-1,24
 395 45 395 45 412 55 c 261,25,26
 433 67 433 67 441 78 c 132,-1,27
 449 89 449 89 460 89 c 261,28,29
 468 89 468 89 472.5 84 c 132,-1,30
 477 79 477 79 477 71 c 261,31,32
 477 59 477 59 455 39.5 c 132,-1,33
 433 20 433 20 393.5 5 c 132,-1,34
 354 -10 354 -10 300 -10 c 261,35,36
 227 -10 227 -10 171 24.5 c 132,-1,37
 115 59 115 59 83.5 118.5 c 132,-1,38
 52 178 52 178 52 253 c 261,39,40
 52 323 52 323 83.5 382.5 c 132,-1,41
 115 442 115 442 171.5 478.5 c 132,-1,42
 228 515 228 515 304 515 c 261,0,1
EndSplineSet
EndChar

StartChar: d
Encoding: 281 100 281
GlifName: d__1
Width: 599
VWidth: 0
Flags: W
LayerCount: 4
Fore
SplineSet
496 740 m 261,0,1
 505 740 505 740 510.5 734 c 132,-1,2
 516 728 516 728 516 720 c 261,3,-1
 516 20 l 261,4,5
 516 12 516 12 510 6 c 132,-1,6
 504 0 504 0 496 0 c 261,7,8
 487 0 487 0 481.5 6 c 132,-1,9
 476 12 476 12 476 20 c 261,10,-1
 476 162 l 261,11,-1
 492 184 l 261,12,13
 492 150 492 150 476.5 115.5 c 132,-1,14
 461 81 461 81 432.5 52.5 c 132,-1,15
 404 24 404 24 366 7 c 132,-1,16
 328 -10 328 -10 284 -10 c 261,17,18
 218 -10 218 -10 165.5 24.5 c 132,-1,19
 113 59 113 59 82.5 118.5 c 132,-1,20
 52 178 52 178 52 253 c 261,21,22
 52 328 52 328 82.5 387.5 c 132,-1,23
 113 447 113 447 165.5 481 c 132,-1,24
 218 515 218 515 284 515 c 261,25,26
 325 515 325 515 362.5 499.5 c 132,-1,27
 400 484 400 484 429 456 c 132,-1,28
 458 428 458 428 475 390.5 c 132,-1,29
 492 353 492 353 492 309 c 261,30,-1
 476 334 l 261,31,-1
 476 720 l 261,32,33
 476 728 476 728 481.5 734 c 132,-1,34
 487 740 487 740 496 740 c 261,0,1
286 28 m 261,35,36
 343 28 343 28 386.5 57 c 132,-1,37
 430 86 430 86 455 137 c 132,-1,38
 480 188 480 188 480 253 c 261,39,40
 480 318 480 318 455 368.5 c 132,-1,41
 430 419 430 419 386 448 c 132,-1,42
 342 477 342 477 286 477 c 261,43,44
 231 477 231 477 187 448 c 132,-1,45
 143 419 143 419 117.5 368.5 c 132,-1,46
 92 318 92 318 92 253 c 261,47,48
 92 189 92 189 117.5 138 c 132,-1,49
 143 87 143 87 187 57.5 c 132,-1,50
 231 28 231 28 286 28 c 261,35,36
EndSplineSet
EndChar

StartChar: eth
Encoding: 282 240 282
GlifName: eth__1
Width: 569
VWidth: 0
Flags: W
LayerCount: 4
Fore
SplineSet
284 -1 m 257,0,1
 220 -1 220 -1 167 35 c 128,-1,2
 114 71 114 71 83 130.5 c 128,-1,3
 52 190 52 190 52 261 c 257,4,5
 52 314 52 314 70 359.5 c 128,-1,6
 88 405 88 405 119.5 439.5 c 128,-1,7
 151 474 151 474 193.5 493.5 c 128,-1,8
 236 513 236 513 284 513 c 257,9,10
 337 513 337 513 376 490.5 c 128,-1,11
 415 468 415 468 441 433.5 c 128,-1,12
 467 399 467 399 481 362 c 257,13,-1
 464 368 l 257,14,15
 454 423 454 423 433 477 c 128,-1,16
 412 531 412 531 379 577 c 128,-1,17
 346 623 346 623 298.5 655.5 c 128,-1,18
 251 688 251 688 187 700 c 257,19,20
 180 702 180 702 175.5 706.5 c 128,-1,21
 171 711 171 711 171 718 c 257,22,23
 171 729 171 729 175.5 734.5 c 128,-1,24
 180 740 180 740 189 740 c 257,25,26
 194 740 194 740 196 739 c 257,27,28
 270 724 270 724 324.5 685 c 128,-1,29
 379 646 379 646 416 593 c 128,-1,30
 453 540 453 540 475 483.5 c 128,-1,31
 497 427 497 427 507 374.5 c 128,-1,32
 517 322 517 322 517 285 c 257,33,34
 517 202 517 202 485.5 137 c 128,-1,35
 454 72 454 72 401.5 35.5 c 128,-1,36
 349 -1 349 -1 284 -1 c 257,0,1
284 37 m 257,37,38
 337 37 337 37 380.5 68 c 128,-1,39
 424 99 424 99 450 150 c 128,-1,40
 476 201 476 201 476 261 c 257,41,42
 476 316 476 316 450.5 365 c 128,-1,43
 425 414 425 414 381.5 444.5 c 128,-1,44
 338 475 338 475 284 475 c 257,45,46
 231 475 231 475 187 446.5 c 128,-1,47
 143 418 143 418 117.5 369.5 c 128,-1,48
 92 321 92 321 92 261 c 257,49,50
 92 201 92 201 118 150 c 128,-1,51
 144 99 144 99 188 68 c 128,-1,52
 232 37 232 37 284 37 c 257,37,38
235 553 m 257,53,54
 227 550 227 550 219.5 553 c 128,-1,55
 212 556 212 556 209 564 c 257,56,57
 206 572 206 572 209.5 579.5 c 128,-1,58
 213 587 213 587 221 590 c 257,59,-1
 327 631 l 257,60,-1
 362 644 l 257,61,-1
 458 682 l 257,62,63
 466 686 466 686 473.5 682.5 c 128,-1,64
 481 679 481 679 484 671 c 257,65,66
 487 663 487 663 483.5 655.5 c 128,-1,67
 480 648 480 648 472 645 c 257,68,-1
 390 613 l 257,69,-1
 358 601 l 257,70,-1
 235 553 l 257,53,54
EndSplineSet
EndChar

StartChar: e
Encoding: 289 101 289
GlifName: e__1
Width: 556
VWidth: 0
Flags: W
LayerCount: 4
Fore
SplineSet
308 -10 m 261,0,1
 233 -10 233 -10 175.5 22 c 132,-1,2
 118 54 118 54 85 112.5 c 132,-1,3
 52 171 52 171 52 250 c 261,4,5
 52 334 52 334 84.5 393 c 132,-1,6
 117 452 117 452 168.5 483.5 c 132,-1,7
 220 515 220 515 278 515 c 261,8,9
 320 515 320 515 360 501.5 c 132,-1,10
 400 488 400 488 431.5 459.5 c 132,-1,11
 463 431 463 431 482.5 388.5 c 132,-1,12
 502 346 502 346 504 287 c 261,13,14
 504 279 504 279 498 272.5 c 132,-1,15
 492 266 492 266 484 266 c 261,16,-1
 76 266 l 261,17,-1
 70 304 l 261,18,-1
 473 304 l 261,19,-1
 463 295 l 261,20,-1
 463 313 l 261,21,22
 458 366 458 366 429.5 402 c 132,-1,23
 401 438 401 438 361 456.5 c 132,-1,24
 321 475 321 475 278 475 c 261,25,26
 248 475 248 475 215 461.5 c 132,-1,27
 182 448 182 448 154 420.5 c 132,-1,28
 126 393 126 393 108.5 351 c 132,-1,29
 91 309 91 309 91 253 c 261,30,31
 91 192 91 192 115.5 141 c 132,-1,32
 140 90 140 90 188.5 59 c 132,-1,33
 237 28 237 28 308 28 c 261,34,35
 342 28 342 28 372 39.5 c 132,-1,36
 402 51 402 51 426 70 c 132,-1,37
 450 89 450 89 465 111 c 261,38,39
 473 120 473 120 482 120 c 261,40,41
 489 120 489 120 494 114.5 c 132,-1,42
 499 109 499 109 499 102 c 261,43,44
 499 95 499 95 495 90 c 261,45,46
 464 50 464 50 415.5 20 c 132,-1,47
 367 -10 367 -10 308 -10 c 261,0,1
EndSplineSet
EndChar

StartChar: eacute
Encoding: 290 233 290
GlifName: eacute__1
Width: 556
VWidth: 0
Flags: W
LayerCount: 4
Back
SplineSet
190 555 m 260
 186.666992188 556.333007812 184.666992188 558.333007812 184 561 c 4
 182.666992188 565.666992188 182.666992188 568.666992188 184 570 c 260
 185.333007812 572.666992188 188.666992188 576 194 580 c 262
 337 690 l 4
 348 699 l 262
 352 701.666992188 356.333007812 704 361 706 c 4
 366.333007812 708 372 707.666992188 378 705 c 260
 384.666992188 702.333007812 389.666992188 698.666992188 393 694 c 4
 396.333007812 688.666992188 396.333007812 681.666992188 393 673 c 260
 391.666992188 669.666992188 390.333007812 667.333007812 389 666 c 4
 387.666992188 664 385.333007812 662 382 660 c 261
 220 561 l 262
 214.666992188 557.666992188 210 555.666992188 206 555 c 4
 199.333007812 553.666992188 194 553.666992188 190 555 c 260
EndSplineSet
Fore
Refer: 289 101 N 1 0 0 1 0 0 2
Refer: 740 769 N 1 0 0 1 171 0 2
EndChar

StartChar: emacron
Encoding: 307 275 307
GlifName: emacron__1
Width: 556
VWidth: 0
Flags: W
LayerCount: 4
Fore
Refer: 289 101 N 1 0 0 1 0 0 2
Refer: 748 772 N 1 0 0 1 92 39 2
Layer: 2
SplineSet
162 610 m 261
 148.666992188 610 142 616 142 628 c 261
 142 640 148.666992188 646 162 646 c 261
 402 646 l 261
 415.333007812 646 422 640 422 628 c 261
 422 616 415.333007812 610 402 610 c 261
 162 610 l 261
EndSplineSet
EndChar

StartChar: eogonek
Encoding: 310 281 310
GlifName: eogonek__1
Width: 556
VWidth: 0
Flags: W
LayerCount: 4
Fore
SplineSet
424 -185 m 257,0,1
 402 -185 402 -185 381 -173.5 c 128,-1,2
 360 -162 360 -162 346 -141.5 c 128,-1,3
 332 -121 332 -121 332 -93 c 257,4,5
 332 -75 332 -75 337 -59 c 128,-1,6
 342 -43 342 -43 351 -29 c 128,-1,7
 360 -15 360 -15 372.5 -2.5 c 128,-1,8
 385 10 385 10 401 20 c 257,9,-1
 405 14 l 257,10,11
 384 3 384 3 359 -3.5 c 128,-1,12
 334 -10 334 -10 308 -10 c 257,13,14
 233 -10 233 -10 175.5 22 c 128,-1,15
 118 54 118 54 85 112.5 c 128,-1,16
 52 171 52 171 52 250 c 257,17,18
 52 334 52 334 84.5 393 c 128,-1,19
 117 452 117 452 168.5 483.5 c 128,-1,20
 220 515 220 515 278 515 c 257,21,22
 320 515 320 515 360 501.5 c 128,-1,23
 400 488 400 488 431.5 459.5 c 128,-1,24
 463 431 463 431 482.5 388.5 c 128,-1,25
 502 346 502 346 504 287 c 257,26,27
 504 279 504 279 498 272.5 c 128,-1,28
 492 266 492 266 484 266 c 257,29,-1
 74 266 l 257,30,-1
 77 304 l 257,31,-1
 474 304 l 257,32,-1
 463 292 l 257,33,-1
 463 313 l 257,34,35
 458 366 458 366 429.5 402 c 128,-1,36
 401 438 401 438 361 456.5 c 128,-1,37
 321 475 321 475 278 475 c 257,38,39
 230 475 230 475 187.5 449 c 128,-1,40
 145 423 145 423 118 373.5 c 128,-1,41
 91 324 91 324 91 253 c 257,42,43
 91 192 91 192 115.5 141 c 128,-1,44
 140 90 140 90 188.5 59 c 128,-1,45
 237 28 237 28 308 28 c 257,46,47
 342 28 342 28 372 39.5 c 128,-1,48
 402 51 402 51 426 70 c 128,-1,49
 450 89 450 89 465 111 c 257,50,51
 473 120 473 120 482 120 c 257,52,53
 489 120 489 120 494 114.5 c 128,-1,54
 499 109 499 109 499 102 c 257,55,56
 499 99 499 99 498 96 c 128,-1,57
 497 93 497 93 495 90 c 257,58,59
 467 53 467 53 438 26.5 c 128,-1,60
 409 0 409 0 389.5 -26 c 128,-1,61
 370 -52 370 -52 370 -87 c 257,62,63
 370 -113 370 -113 386.5 -130.5 c 128,-1,64
 403 -148 403 -148 429 -148 c 257,65,66
 453 -148 453 -148 461 -137 c 257,67,68
 466 -130 466 -130 470.5 -126 c 128,-1,69
 475 -122 475 -122 482 -122 c 257,70,71
 490 -122 490 -122 493.5 -125.5 c 128,-1,72
 497 -129 497 -129 497 -136 c 257,73,74
 497 -146 497 -146 485.5 -157.5 c 128,-1,75
 474 -169 474 -169 457 -177 c 128,-1,76
 440 -185 440 -185 424 -185 c 257,0,1
EndSplineSet
EndChar

StartChar: uni0259
Encoding: 312 601 312
GlifName: uni0259
Width: 556
VWidth: 0
Flags: W
LayerCount: 4
Fore
SplineSet
248 515 m 257,0,1
 323 515 323 515 381 483 c 128,-1,2
 439 451 439 451 471.5 392.5 c 128,-1,3
 504 334 504 334 504 255 c 257,4,5
 504 172 504 172 471.5 112.5 c 128,-1,6
 439 53 439 53 387.5 21.5 c 128,-1,7
 336 -10 336 -10 278 -10 c 257,8,9
 236 -10 236 -10 196 3.5 c 128,-1,10
 156 17 156 17 124.5 45.5 c 128,-1,11
 93 74 93 74 73.5 117 c 128,-1,12
 54 160 54 160 52 218 c 257,13,14
 52 226 52 226 58 232.5 c 128,-1,15
 64 239 64 239 72 239 c 257,16,-1
 480 239 l 257,17,-1
 486 201 l 257,18,-1
 83 201 l 257,19,-1
 93 210 l 257,20,-1
 93 192 l 257,21,22
 99 139 99 139 127 103 c 128,-1,23
 155 67 155 67 195.5 48.5 c 128,-1,24
 236 30 236 30 278 30 c 257,25,26
 308 30 308 30 341 43.5 c 128,-1,27
 374 57 374 57 402 84.5 c 128,-1,28
 430 112 430 112 447.5 154 c 128,-1,29
 465 196 465 196 465 252 c 257,30,31
 465 313 465 313 440.5 364 c 128,-1,32
 416 415 416 415 367.5 446 c 128,-1,33
 319 477 319 477 248 477 c 257,34,35
 215 477 215 477 184.5 465.5 c 128,-1,36
 154 454 154 454 130 435.5 c 128,-1,37
 106 417 106 417 91 394 c 257,38,39
 84 385 84 385 74 385 c 257,40,41
 67 385 67 385 62 390.5 c 128,-1,42
 57 396 57 396 57 403 c 257,43,44
 57 410 57 410 61 415 c 257,45,46
 92 456 92 456 140.5 485.5 c 128,-1,47
 189 515 189 515 248 515 c 257,0,1
EndSplineSet
EndChar

StartChar: f
Encoding: 313 102 313
GlifName: f__1
Width: 334
VWidth: 0
Flags: W
LayerCount: 4
Fore
SplineSet
239 735 m 261,0,1
 251 735 251 735 267.5 733 c 132,-1,2
 284 731 284 731 296.5 725 c 132,-1,3
 309 719 309 719 309 707 c 261,4,5
 309 700 309 700 303.5 693.5 c 132,-1,6
 298 687 298 687 290 687 c 261,7,8
 280 687 280 687 266 693 c 132,-1,9
 252 699 252 699 235 699 c 261,10,11
 215 699 215 699 199.5 690 c 132,-1,12
 184 681 184 681 175.5 662.5 c 132,-1,13
 167 644 167 644 167 615 c 261,14,-1
 167 20 l 261,15,16
 167 12 167 12 161 6 c 132,-1,17
 155 0 155 0 147 0 c 261,18,19
 138 0 138 0 132.5 6 c 132,-1,20
 127 12 127 12 127 20 c 261,21,-1
 127 615 l 261,22,23
 127 677 127 677 160 706 c 132,-1,24
 193 735 193 735 239 735 c 261,0,1
285 493 m 261,25,26
 293 493 293 493 298.5 487.5 c 132,-1,27
 304 482 304 482 304 474 c 261,28,29
 304 466 304 466 298.5 460.5 c 132,-1,30
 293 455 293 455 285 455 c 261,31,-1
 47 455 l 261,32,33
 40 455 40 455 34 461 c 132,-1,34
 28 467 28 467 28 474 c 261,35,36
 28 483 28 483 34 488 c 132,-1,37
 40 493 40 493 47 493 c 261,38,-1
 285 493 l 261,25,26
EndSplineSet
EndChar

StartChar: g
Encoding: 314 103 314
GlifName: g__1
Width: 619
VWidth: 0
Flags: W
LayerCount: 4
Fore
SplineSet
294 515 m 257,0,1
 339 515 339 515 378 499 c 128,-1,2
 417 483 417 483 446.5 457 c 128,-1,3
 476 431 476 431 492.5 401 c 128,-1,4
 509 371 509 371 509 342 c 257,5,-1
 496 379 l 257,6,-1
 496 479 l 257,7,8
 496 487 496 487 501.5 493 c 128,-1,9
 507 499 507 499 516 499 c 257,10,11
 525 499 525 499 530.5 493 c 128,-1,12
 536 487 536 487 536 479 c 257,13,-1
 536 49 l 257,14,15
 536 -28 536 -28 504.5 -84 c 128,-1,16
 473 -140 473 -140 418 -170 c 128,-1,17
 363 -200 363 -200 290 -200 c 257,18,19
 250 -200 250 -200 209.5 -189.5 c 128,-1,20
 169 -179 169 -179 142 -163 c 128,-1,21
 115 -147 115 -147 115 -129 c 257,22,23
 115 -121 115 -121 119.5 -116 c 128,-1,24
 124 -111 124 -111 132 -111 c 257,25,26
 142 -111 142 -111 150.5 -122 c 128,-1,27
 159 -133 159 -133 181 -142 c 257,28,29
 190 -145 190 -145 205.5 -150 c 128,-1,30
 221 -155 221 -155 243 -158.5 c 128,-1,31
 265 -162 265 -162 292 -162 c 257,32,33
 387 -162 387 -162 441.5 -103.5 c 128,-1,34
 496 -45 496 -45 496 49 c 257,35,-1
 496 148 l 257,36,-1
 506 147 l 257,37,38
 494 104 494 104 471 74 c 128,-1,39
 448 44 448 44 418.5 25.5 c 128,-1,40
 389 7 389 7 356.5 -1.5 c 128,-1,41
 324 -10 324 -10 294 -10 c 257,42,43
 225 -10 225 -10 170.5 24.5 c 128,-1,44
 116 59 116 59 84 118.5 c 128,-1,45
 52 178 52 178 52 253 c 257,46,47
 52 328 52 328 84 387.5 c 128,-1,48
 116 447 116 447 170.5 481 c 128,-1,49
 225 515 225 515 294 515 c 257,0,1
296 477 m 257,50,51
 238 477 238 477 191.5 448 c 128,-1,52
 145 419 145 419 118.5 368.5 c 128,-1,53
 92 318 92 318 92 253 c 257,54,55
 92 189 92 189 118.5 138 c 128,-1,56
 145 87 145 87 191.5 57.5 c 128,-1,57
 238 28 238 28 296 28 c 257,58,59
 354 28 354 28 400 56.5 c 128,-1,60
 446 85 446 85 473 135.5 c 128,-1,61
 500 186 500 186 500 253 c 257,62,63
 500 320 500 320 473 370.5 c 128,-1,64
 446 421 446 421 400 449 c 128,-1,65
 354 477 354 477 296 477 c 257,50,51
EndSplineSet
EndChar

StartChar: h
Encoding: 321 104 321
GlifName: h__1
Width: 562
VWidth: 0
Flags: W
LayerCount: 4
Fore
SplineSet
301 505 m 257,0,1
 361 505 361 505 400.5 479 c 128,-1,2
 440 453 440 453 459.5 409 c 128,-1,3
 479 365 479 365 479 312 c 257,4,-1
 479 20 l 257,5,6
 479 12 479 12 473 6 c 128,-1,7
 467 0 467 0 459 0 c 257,8,9
 450 0 450 0 444.5 6 c 128,-1,10
 439 12 439 12 439 20 c 257,11,-1
 439 312 l 257,12,13
 439 355 439 355 425 390 c 128,-1,14
 411 425 411 425 381 446 c 128,-1,15
 351 467 351 467 301 467 c 257,16,17
 258 467 258 467 217 446 c 128,-1,18
 176 425 176 425 149.5 390 c 128,-1,19
 123 355 123 355 123 312 c 257,20,-1
 123 20 l 257,21,22
 123 12 123 12 117 6 c 128,-1,23
 111 0 111 0 103 0 c 257,24,25
 94 0 94 0 88.5 6 c 128,-1,26
 83 12 83 12 83 20 c 257,27,-1
 83 720 l 257,28,29
 83 728 83 728 89 734 c 128,-1,30
 95 740 95 740 103 740 c 257,31,32
 112 740 112 740 117.5 734 c 128,-1,33
 123 728 123 728 123 720 c 257,34,-1
 123 371 l 257,35,-1
 98 323 l 257,36,37
 98 359 98 359 116 392 c 128,-1,38
 134 425 134 425 163.5 450.5 c 128,-1,39
 193 476 193 476 229 490.5 c 128,-1,40
 265 505 265 505 301 505 c 257,0,1
EndSplineSet
EndChar

StartChar: dotlessi
Encoding: 327 305 327
GlifName: dotlessi
Width: 206
VWidth: 0
Flags: W
LayerCount: 4
Fore
SplineSet
123 20 m 257,0,1
 123 12 123 12 117 6 c 128,-1,2
 111 0 111 0 103 0 c 257,3,4
 94 0 94 0 88.5 6 c 128,-1,5
 83 12 83 12 83 20 c 257,6,-1
 83 480 l 261,7,8
 83 488 83 488 89 494 c 132,-1,9
 95 500 95 500 103 500 c 261,10,11
 112 500 112 500 117.5 494 c 132,-1,12
 123 488 123 488 123 480 c 261,13,-1
 123 20 l 257,0,1
EndSplineSet
EndChar

StartChar: iacute
Encoding: 328 237 328
GlifName: iacute__1
Width: 206
VWidth: 0
Flags: W
LayerCount: 4
Back
SplineSet
8 555 m 260
 4.6669921875 556.333007812 2.6669921875 558.333007812 2 561 c 4
 0.6669921875 565.666992188 0.6669921875 568.666992188 2 570 c 260
 3.3330078125 572.666992188 6.6669921875 576 12 580 c 262
 155 690 l 4
 166 699 l 262
 170 701.666992188 174.333007812 704 179 706 c 4
 184.333007812 708 190 707.666992188 196 705 c 260
 202.666992188 702.333007812 207.666992188 698.666992188 211 694 c 4
 214.333007812 688.666992188 214.333007812 681.666992188 211 673 c 260
 209.666992188 669.666992188 208.333007812 667.333007812 207 666 c 4
 205.666992188 664 203.333007812 662 200 660 c 261
 38 561 l 262
 32.6669921875 557.666992188 28 555.666992188 24 555 c 4
 17.3330078125 553.666992188 12 553.666992188 8 555 c 260
EndSplineSet
Fore
Refer: 327 305 N 1 0 0 1 0 0 2
Refer: 740 769 N 1 0 0 1 -11 0 2
EndChar

StartChar: ibreve
Encoding: 329 301 329
GlifName: ibreve__1
Width: 206
VWidth: 0
Flags: W
LayerCount: 4
Fore
SplineSet
103 573 m 260,0,1
 70 573 70 573 42.5 591.5 c 0,2,3
 15 610 15 610 -1.5 640 c 0,4,5
 -18 670 -18 670 -18 683 c 256,6,7
 -18 690 -18 690 -12.5 695.5 c 0,8,9
 -7 701 -7 701 1 701 c 256,10,11
 11 701 11 701 16 695.5 c 0,12,13
 21 690 21 690 22 681 c 256,14,15
 25 660 25 660 50 634.5 c 0,16,17
 73 611 73 611 103 611 c 260,18,19
 133 611 133 611 156 635 c 0,20,21
 179 659 179 659 184 681 c 256,22,23
 186 690 186 690 190.5 695.5 c 0,24,25
 195 701 195 701 205 701 c 256,26,27
 213 701 213 701 218.5 695.5 c 0,28,29
 224 690 224 690 224 683 c 0,30,31
 224 670 224 670 207.5 640 c 0,32,33
 191 610 191 610 164 591.5 c 0,34,35
 137 573 137 573 103 573 c 260,0,1
EndSplineSet
Refer: 327 305 N 1 0 0 1 0 0 2
EndChar

StartChar: igrave
Encoding: 337 236 337
GlifName: igrave__1
Width: 206
VWidth: 0
Flags: W
LayerCount: 4
Back
SplineSet
198 555 m 260
 194.666992188 556.333007812 192.666992188 558.333007812 192 561 c 4
 190.666992188 565.666992188 190.666992188 568.666992188 192 570 c 260
 193.333007812 572.666992188 196.666992188 576 202 580 c 262
 345 690 l 4
 356 699 l 262
 360 701.666992188 364.333007812 704 369 706 c 4
 374.333007812 708 380 707.666992188 386 705 c 260
 392.666992188 702.333007812 397.666992188 698.666992188 401 694 c 4
 404.333007812 688.666992188 404.333007812 681.666992188 401 673 c 260
 399.666992188 669.666992188 398.333007812 667.333007812 397 666 c 4
 395.666992188 664 393.333007812 662 390 660 c 261
 228 561 l 262
 222.666992188 557.666992188 218 555.666992188 214 555 c 4
 207.333007812 553.666992188 202 553.666992188 198 555 c 260
EndSplineSet
Fore
Refer: 327 305 N 1 0 0 1 0 0 2
Refer: 739 768 S 1 0 0 1 -20 -1 2
EndChar

StartChar: imacron
Encoding: 341 299 341
GlifName: imacron__1
Width: 206
VWidth: 0
Flags: W
LayerCount: 4
Back
SplineSet
23 607 m 257
 16.3330078125 607 11.3330078125 608.5 8 611.5 c 0
 4.6669921875 614.5 3 619.333007812 3 626 c 257
 3 632 4.6669921875 636.666992188 8 640 c 0
 11.3330078125 643.333007812 16.3330078125 645 23 645 c 257
 183 645 l 257
 189.666992188 645 194.666992188 643.333007812 198 640 c 0
 201.333007812 636.666992188 203 631.666992188 203 625 c 257
 203 619 201.333007812 614.5 198 611.5 c 0
 194.666992188 608.5 189.666992188 607 183 607 c 257
 23 607 l 257
33 707 m 257
 26.3330078125 707 21.3330078125 708.5 18 711.5 c 0
 14.6669921875 714.5 13 719.333007812 13 726 c 257
 13 732 14.6669921875 736.666992188 18 740 c 0
 21.3330078125 743.333007812 26.3330078125 745 33 745 c 257
 173 745 l 257
 179.666992188 745 184.666992188 743.333007812 188 740 c 0
 191.333007812 736.666992188 193 731.666992188 193 725 c 257
 193 719 191.333007812 714.5 188 711.5 c 0
 184.666992188 708.5 179.666992188 707 173 707 c 257
 33 707 l 257
53 657 m 261
 46.3330078125 657 41.3330078125 658.5 38 661.5 c 4
 34.6669921875 664.5 33 669.333007812 33 676 c 261
 33 682 34.6669921875 686.666992188 38 690 c 4
 41.3330078125 693.333007812 46.3330078125 695 53 695 c 261
 153 695 l 261
 159.666992188 695 164.666992188 693.333007812 168 690 c 4
 171.333007812 686.666992188 173 681.666992188 173 675 c 261
 173 669 171.333007812 664.5 168 661.5 c 4
 164.666992188 658.5 159.666992188 657 153 657 c 261
 53 657 l 261
EndSplineSet
Fore
SplineSet
13 610 m 262
 -7 610 -7 610 -7 628 c 260
 -7 646 -7 646 13 646 c 262
 193 646 l 262
 213 646 213 646 213 628 c 260
 213 610 213 610 193 610 c 262
 13 610 l 262
EndSplineSet
Refer: 327 305 N 1 0 0 1 0 0 2
Layer: 2
SplineSet
13 607 m 262
 6.33333333333 607 1.33333333333 608.5 -2 611.5 c 4
 -5.33333333333 614.5 -7 619.333333333 -7 626 c 260
 -7 632 -5.33333333333 636.666666667 -2 640 c 4
 1.33333333333 643.333333333 6.33333333333 645 13 645 c 262
 193 645 l 262
 199.666666667 645 204.666666667 643.333333333 208 640 c 4
 211.333333333 636.666666667 213 631.666666667 213 625 c 260
 213 619 211.333333333 614.5 208 611.5 c 4
 204.666666667 608.5 199.666666667 607 193 607 c 262
 13 607 l 262
EndSplineSet
Layer: 3
SplineSet
9 610 m 261
 -4.3330078125 610 -11 616 -11 628 c 261
 -11 640 -4.3330078125 646 9 646 c 261
 249 646 l 261
 262.333007812 646 269 640 269 628 c 261
 269 616 262.333007812 610 249 610 c 261
 9 610 l 261
EndSplineSet
EndChar

StartChar: iogonek
Encoding: 342 303 342
GlifName: iogonek__1
Width: 206
VWidth: 0
Flags: W
LayerCount: 4
Fore
SplineSet
74 -185 m 257,0,1
 41 -185 41 -185 13.5 -160 c 128,-1,2
 -14 -135 -14 -135 -14 -93 c 257,3,4
 -14 -70 -14 -70 -6 -51.5 c 128,-1,5
 2 -33 2 -33 16.5 -19 c 128,-1,6
 31 -5 31 -5 49 5 c 128,-1,7
 67 15 67 15 86 21 c 257,8,-1
 83 9 l 257,9,-1
 83 495 l 257,10,11
 83 503 83 503 89 509 c 128,-1,12
 95 515 95 515 103 515 c 257,13,14
 112 515 112 515 117.5 509 c 128,-1,15
 123 503 123 503 123 495 c 257,16,-1
 123 28 l 257,17,18
 123 16 123 16 113 7 c 128,-1,19
 103 -2 103 -2 88.5 -10.5 c 128,-1,20
 74 -19 74 -19 59 -28.5 c 128,-1,21
 44 -38 44 -38 34 -51.5 c 128,-1,22
 24 -65 24 -65 24 -85 c 257,23,24
 24 -115 24 -115 41 -131.5 c 128,-1,25
 58 -148 58 -148 79 -148 c 257,26,27
 89 -148 89 -148 96 -147 c 128,-1,28
 103 -146 103 -146 107 -141 c 257,29,30
 113 -133 113 -133 118.5 -127.5 c 128,-1,31
 124 -122 124 -122 132 -122 c 257,32,33
 139 -122 139 -122 142.5 -126.5 c 128,-1,34
 146 -131 146 -131 146 -136 c 257,35,36
 146 -149 146 -149 136.5 -160.5 c 128,-1,37
 127 -172 127 -172 111 -178.5 c 128,-1,38
 95 -185 95 -185 74 -185 c 257,0,1
103 583 m 257,39,40
 87 583 87 583 77.5 592 c 128,-1,41
 68 601 68 601 68 615 c 257,42,-1
 68 623 l 257,43,44
 68 637 68 637 78 646 c 128,-1,45
 88 655 88 655 104 655 c 257,46,47
 118 655 118 655 127.5 646 c 128,-1,48
 137 637 137 637 137 623 c 257,49,-1
 137 615 l 257,50,51
 137 601 137 601 127.5 592 c 128,-1,52
 118 583 118 583 103 583 c 257,39,40
EndSplineSet
EndChar

StartChar: uni0237
Encoding: 345 567 345
GlifName: uni0237
Width: 229
VWidth: 0
Flags: W
LayerCount: 4
Back
SplineSet
84 480 m 273
 84 485.333007812 86 490 90 494 c 128
 94 498 99 500 105 500 c 257
 111.666992188 500 116.833007812 498 120.5 494 c 128
 124.166992188 490 126 485.333007812 126 480 c 257
 126 412 l 257
 126 11 l 258
 126 -128.333007812 75.6669921875 -198 -25 -198 c 256
 -68.3330078125 -198 -106.666992188 -185 -140 -159 c 0
 -156.666992188 -145.666992188 -166.333007812 -136.833007812 -169 -132.5 c 128
 -171.666992188 -128.166992188 -172.666992188 -123 -172 -117 c 128
 -171.333007812 -111 -168.666992188 -106.5 -164 -103.5 c 0
 -156.666992188 -98.5 -150.166992188 -98.8330078125 -144.5 -104.5 c 0
 -143.5 -105.5 -134.666992188 -112.666992188 -118 -126 c 16
 -92 -147.333007812 -61 -158 -25 -158 c 256
 47.6669921875 -158 84 -101.666992188 84 11 c 258
 84 412 l 265
 84 480 l 273
124 -58 m 261
 124 -88 116.333007812 -113.333007812 101 -134 c 132
 85.6669921875 -154.666992188 67.5 -170.5 46.5 -181.5 c 132
 25.5 -192.5 5.6669921875 -198 -13 -198 c 261
 -19 -198 -23.6669921875 -196.166992188 -27 -192.5 c 132
 -30.3330078125 -188.833007812 -32 -184.666992188 -32 -180 c 261
 -32 -178 l 261
 -32 -172.666992188 -30.1669921875 -168.333007812 -26.5 -165 c 132
 -22.8330078125 -161.666992188 -18.6669921875 -159.666992188 -14 -159 c 261
 0.6669921875 -156.333007812 15.5 -151.333007812 30.5 -144 c 132
 45.5 -136.666992188 58.1669921875 -126 68.5 -112 c 132
 78.8330078125 -98 84 -80 84 -58 c 261
 84 480 l 261
 84 485.333007812 85.8330078125 490 89.5 494 c 132
 93.1669921875 498 98 500 104 500 c 261
 110 500 114.833007812 498 118.5 494 c 132
 122.166992188 490 124 485.333007812 124 480 c 261
 124 -58 l 261
EndSplineSet
Fore
SplineSet
136 -58 m 258,0,1
 136 -103 136 -103 113 -134 c 128,-1,2
 90 -165 90 -165 58.5 -181.5 c 0,3,4
 30 -197 30 -197 4 -197.869910891 c 0,5,6
 1 -198 1 -198 -51 -198 c 260,7,8
 -60 -198 -60 -198 -65 -192.5 c 132,-1,9
 -70 -187 -70 -187 -70 -180 c 262,10,-1
 -70 -178 l 262,11,12
 -70 -172.333333333 -70 -172.333333333 -64.5 -165 c 4,13,14
 -63 -163 -63 -163 -56 -159.938476562 c 4,15,16
 -54 -159 -54 -159 -52 -159 c 260,17,18
 -12 -160 -12 -160 4 -157.781012708 c 0,19,20
 23 -154 23 -154 42.5 -144 c 0,21,22
 65 -133 65 -133 80.5 -112 c 128,-1,23
 96 -91 96 -91 96 -58 c 258,24,-1
 96 480 l 258,25,26
 96 488 96 488 101.5 494 c 128,-1,27
 107 500 107 500 116 500 c 256,28,29
 125 500 125 500 130.5 494 c 128,-1,30
 136 488 136 488 136 480 c 258,31,-1
 136 -58 l 258,0,1
EndSplineSet
EndChar

StartChar: k
Encoding: 348 107 348
GlifName: k__1
Width: 524
VWidth: 0
Flags: W
LayerCount: 4
Back
SplineSet
108 0 m 261
 102 0 97.1666666667 2 93.5 6 c 132
 89.8333333333 10 88 14.6666666667 88 20 c 261
 88 720 l 261
 88 725.333333333 89.8333333333 730 93.5 734 c 132
 97.1666666667 738 102 740 108 740 c 261
 114 740 118.833333333 738 122.5 734 c 132
 126.166666667 730 128 725.333333333 128 720 c 261
 128 20 l 261
 128 14.6666666667 126.166666667 10 122.5 6 c 132
 118.833333333 2 114 0 108 0 c 261
455 505 m 261
 460.333333333 505 465 503 469 499 c 132
 473 495 475 490 475 484 c 261
 475 478 472.666666667 473 468 469 c 261
 121 180 l 261
 119 228 l 261
 442 499 l 261
 446 503 450.333333333 505 455 505 c 261
461 0 m 261
 455.666666667 0 450.666666667 2.33333333333 446 7 c 261
 204 265 l 261
 234 291 l 261
 475 35 l 261
 479 31 481 26 481 20 c 261
 481 13.3333333333 478.333333333 8.33333333333 473 5 c 132
 467.666666667 1.66666666667 463.666666667 0 461 0 c 261
308 -10 m 257
 258 -10 213.833333333 0.666666666667 175.5 22 c 128
 137.166666667 43.3333333333 107 73.5 85 112.5 c 128
 63 151.5 52 197.333333333 52 250 c 257
 52 306 62.8333333333 353.666666667 84.5 393 c 128
 106.166666667 432.333333333 134.166666667 462.5 168.5 483.5 c 128
 202.833333333 504.5 239.333333333 515 278 515 c 257
 306 515 333.333333333 510.5 360 501.5 c 128
 386.666666667 492.5 410.5 478.5 431.5 459.5 c 128
 452.5 440.5 469.5 416.833333333 482.5 388.5 c 128
 495.5 360.166666667 502.666666667 326.333333333 504 287 c 257
 504 281.666666667 502 276.833333333 498 272.5 c 128
 494 268.166666667 489.333333333 266 484 266 c 257
 76 266 l 257
 70 304 l 257
 473 304 l 257
 463 295 l 257
 463 313 l 257
 459.666666667 348.333333333 448.5 378 429.5 402 c 128
 410.5 426 387.666666667 444.166666667 361 456.5 c 128
 334.333333333 468.833333333 306.666666667 475 278 475 c 257
 258 475 237 470.5 215 461.5 c 128
 193 452.5 172.666666667 438.833333333 154 420.5 c 128
 135.333333333 402.166666667 120.166666667 379 108.5 351 c 128
 96.8333333333 323 91 290.333333333 91 253 c 257
 91 212.333333333 99.1666666667 175 115.5 141 c 128
 131.833333333 107 156.166666667 79.6666666667 188.5 59 c 128
 220.833333333 38.3333333333 260.666666667 28 308 28 c 257
 330.666666667 28 352 31.8333333333 372 39.5 c 128
 392 47.1666666667 410 57.3333333333 426 70 c 128
 442 82.6666666667 455 96.3333333333 465 111 c 257
 470.333333333 117 476 120 482 120 c 257
 486.666666667 120 490.666666667 118.166666667 494 114.5 c 128
 497.333333333 110.833333333 499 106.666666667 499 102 c 257
 499 97.3333333333 497.666666667 93.3333333333 495 90 c 257
 474.333333333 63.3333333333 447.833333333 40 415.5 20 c 128
 383.166666667 0 347.333333333 -10 308 -10 c 257
EndSplineSet
Fore
SplineSet
108 0 m 257,0,1
 99 0 99 0 93.5 6 c 128,-1,2
 88 12 88 12 88 20 c 257,3,-1
 88 720 l 257,4,5
 88 728 88 728 93.5 734 c 128,-1,6
 99 740 99 740 108 740 c 257,7,8
 117 740 117 740 122.5 734 c 128,-1,9
 128 728 128 728 128 720 c 257,10,-1
 128 20 l 257,11,12
 128 12 128 12 122.5 6 c 128,-1,13
 117 0 117 0 108 0 c 257,0,1
440 505 m 257,14,15
 448 505 448 505 454 499 c 128,-1,16
 460 493 460 493 460 484 c 257,17,18
 460 475 460 475 453 469 c 257,19,-1
 154 270.827089337 l 25,20,-1
 123 271 l 261,21,-1
 119 298 l 257,22,-1
 427 499 l 257,23,24
 433 505 433 505 440 505 c 257,14,15
461 0 m 257,25,26
 453 0 453 0 446 7 c 257,27,-1
 124 270 l 257,28,-1
 154 296 l 257,29,-1
 475 35 l 257,30,31
 481 29 481 29 481 20 c 257,32,33
 481 10 481 10 473 5 c 128,-1,34
 465 0 465 0 461 0 c 257,25,26
EndSplineSet
EndChar

StartChar: kgreenlandic
Encoding: 350 312 350
GlifName: kgreenlandic
Width: 524
VWidth: 0
Flags: W
LayerCount: 4
Fore
SplineSet
108 0 m 257,0,1
 99 0 99 0 93.5 6 c 128,-1,2
 88 12 88 12 88 20 c 257,3,-1
 88 479 l 257,4,5
 88 487 88 487 93.5 493 c 128,-1,6
 99 499 99 499 108 499 c 257,7,8
 117 499 117 499 122.5 493 c 128,-1,9
 128 487 128 487 128 479 c 257,10,-1
 128 20 l 257,11,12
 128 12 128 12 122.5 6 c 128,-1,13
 117 0 117 0 108 0 c 257,0,1
455 505 m 257,14,15
 463 505 463 505 469 499 c 128,-1,16
 475 493 475 493 475 484 c 257,17,18
 475 475 475 475 468 469 c 257,19,-1
 121 180 l 257,20,-1
 119 228 l 257,21,-1
 442 499 l 257,22,23
 448 505 448 505 455 505 c 257,14,15
461 0 m 257,24,25
 453 0 453 0 446 7 c 257,26,-1
 204 265 l 257,27,-1
 234 291 l 257,28,-1
 475 35 l 257,29,30
 481 29 481 29 481 20 c 257,31,32
 481 9 481 9 472 4.5 c 128,-1,33
 463 0 463 0 461 0 c 257,24,25
EndSplineSet
EndChar

StartChar: l
Encoding: 351 108 351
GlifName: l__1
Width: 216
VWidth: 0
Flags: W
LayerCount: 4
Fore
SplineSet
128 20 m 257,0,1
 128 12 128 12 122 6 c 128,-1,2
 116 0 116 0 108 0 c 257,3,4
 99 0 99 0 93.5 6 c 128,-1,5
 88 12 88 12 88 20 c 257,6,-1
 88 720 l 257,7,8
 88 728 88 728 94 734 c 128,-1,9
 100 740 100 740 108 740 c 257,10,11
 117 740 117 740 122.5 734 c 128,-1,12
 128 728 128 728 128 720 c 257,13,-1
 128 20 l 257,0,1
EndSplineSet
EndChar

StartChar: lcaron
Encoding: 353 318 353
GlifName: lcaron__1
Width: 210
VWidth: 0
Flags: W
LayerCount: 4
Fore
SplineSet
128 20 m 257,0,1
 128 12 128 12 122 6 c 128,-1,2
 116 0 116 0 108 0 c 257,3,4
 99 0 99 0 93.5 6 c 128,-1,5
 88 12 88 12 88 20 c 257,6,-1
 88 720 l 257,7,8
 88 728 88 728 94 734 c 128,-1,9
 100 740 100 740 108 740 c 257,10,11
 117 740 117 740 122.5 734 c 128,-1,12
 128 728 128 728 128 720 c 257,13,-1
 128 20 l 257,0,1
268 685 m 257,14,15
 268 660 268 660 253 637 c 128,-1,16
 238 614 238 614 217.5 599.5 c 128,-1,17
 197 585 197 585 178 585 c 257,18,19
 171 585 171 585 165.5 588.5 c 128,-1,20
 160 592 160 592 160 603 c 257,21,22
 160 614 160 614 167.5 615 c 128,-1,23
 175 616 175 616 191 624 c 257,24,25
 209 633 209 633 218.5 646 c 128,-1,26
 228 659 228 659 228 675 c 257,27,28
 228 689 228 689 221.5 695.5 c 128,-1,29
 215 702 215 702 207 702 c 257,30,31
 200 702 200 702 193 699.5 c 128,-1,32
 186 697 186 697 181 693 c 257,33,34
 177 698 177 698 174.5 704 c 128,-1,35
 172 710 172 710 173 716 c 257,36,37
 175 728 175 728 188 737 c 128,-1,38
 201 746 201 746 217 746 c 257,39,40
 239 746 239 746 253.5 726.5 c 128,-1,41
 268 707 268 707 268 685 c 257,14,15
EndSplineSet
EndChar

StartChar: lslash
Encoding: 360 322 360
GlifName: lslash__1
Width: 218
VWidth: 0
Flags: W
LayerCount: 4
Fore
SplineSet
11 350 m 257,0,1
 5 350 5 350 0 355 c 128,-1,2
 -5 360 -5 360 -5 369 c 257,3,4
 -5 381 -5 381 8 386 c 257,5,-1
 193 470 l 257,6,7
 196 472 196 472 200 473 c 128,-1,8
 204 474 204 474 208 474 c 257,9,10
 214 474 214 474 218.5 469.5 c 128,-1,11
 223 465 223 465 223 458 c 257,12,13
 223 449 223 449 218.5 444 c 128,-1,14
 214 439 214 439 208 437 c 257,15,-1
 23 353 l 257,16,17
 19 352 19 352 16 351 c 128,-1,18
 13 350 13 350 11 350 c 257,0,1
128 20 m 257,19,20
 128 12 128 12 122 6 c 128,-1,21
 116 0 116 0 108 0 c 257,22,23
 99 0 99 0 93.5 6 c 128,-1,24
 88 12 88 12 88 20 c 257,25,-1
 88 720 l 257,26,27
 88 728 88 728 94 734 c 128,-1,28
 100 740 100 740 108 740 c 257,29,30
 117 740 117 740 122.5 734 c 128,-1,31
 128 728 128 728 128 720 c 257,32,-1
 128 20 l 257,19,20
EndSplineSet
EndChar

StartChar: m
Encoding: 361 109 361
GlifName: m__1
Width: 909
VWidth: 0
Flags: W
LayerCount: 4
Fore
SplineSet
296 505 m 257,0,1
 352 505 352 505 398.5 474.5 c 128,-1,2
 445 444 445 444 462 379 c 257,3,-1
 449 370 l 257,4,-1
 454 389 l 257,5,6
 467 422 467 422 499.5 448 c 128,-1,7
 532 474 532 474 572.5 489.5 c 128,-1,8
 613 505 613 505 651 505 c 257,9,10
 711 505 711 505 750 479 c 128,-1,11
 789 453 789 453 807.5 409.5 c 128,-1,12
 826 366 826 366 826 311 c 257,13,-1
 826 20 l 257,14,15
 826 12 826 12 820.5 6 c 128,-1,16
 815 0 815 0 806 0 c 257,17,18
 797 0 797 0 791.5 6 c 128,-1,19
 786 12 786 12 786 20 c 257,20,-1
 786 307 l 257,21,22
 786 351 786 351 771.5 387.5 c 128,-1,23
 757 424 757 424 726.5 445.5 c 128,-1,24
 696 467 696 467 647 467 c 257,25,26
 604 467 604 467 563 445.5 c 128,-1,27
 522 424 522 424 495.5 387.5 c 128,-1,28
 469 351 469 351 469 307 c 257,29,-1
 469 20 l 257,30,31
 469 12 469 12 463.5 6 c 128,-1,32
 458 0 458 0 449 0 c 257,33,34
 440 0 440 0 434.5 6 c 128,-1,35
 429 12 429 12 429 20 c 257,36,-1
 429 312 l 257,37,38
 429 355 429 355 415.5 390 c 128,-1,39
 402 425 402 425 373 446 c 128,-1,40
 344 467 344 467 296 467 c 257,41,42
 254 467 254 467 214.5 446 c 128,-1,43
 175 425 175 425 149 390 c 128,-1,44
 123 355 123 355 123 312 c 257,45,-1
 123 20 l 257,46,47
 123 12 123 12 117 6 c 128,-1,48
 111 0 111 0 103 0 c 257,49,50
 94 0 94 0 88.5 6 c 128,-1,51
 83 12 83 12 83 20 c 257,52,-1
 83 479 l 257,53,54
 83 487 83 487 89 493 c 128,-1,55
 95 499 95 499 103 499 c 257,56,57
 112 499 112 499 117.5 493 c 128,-1,58
 123 487 123 487 123 479 c 257,59,-1
 123 370 l 257,60,-1
 93 319 l 257,61,62
 93 354 93 354 110 387 c 128,-1,63
 127 420 127 420 155.5 446.5 c 128,-1,64
 184 473 184 473 220.5 489 c 128,-1,65
 257 505 257 505 296 505 c 257,0,1
EndSplineSet
EndChar

StartChar: n
Encoding: 363 110 363
GlifName: n__1
Width: 572
VWidth: 0
Flags: W
LayerCount: 4
Fore
SplineSet
310 515 m 261,0,1
 373 515 373 515 412.5 490 c 132,-1,2
 452 465 452 465 470.5 422 c 132,-1,3
 489 379 489 379 489 326 c 261,4,-1
 489 20 l 261,5,6
 489 12 489 12 483 6 c 132,-1,7
 477 0 477 0 469 0 c 261,8,9
 460 0 460 0 454.5 6 c 132,-1,10
 449 12 449 12 449 20 c 261,11,-1
 449 322 l 261,12,13
 449 365 449 365 434.5 400 c 132,-1,14
 420 435 420 435 388.5 456 c 132,-1,15
 357 477 357 477 306 477 c 261,16,17
 262 477 262 477 220 456 c 132,-1,18
 178 435 178 435 150.5 400 c 132,-1,19
 123 365 123 365 123 322 c 261,20,-1
 123 20 l 261,21,22
 123 12 123 12 117 6 c 132,-1,23
 111 0 111 0 103 0 c 261,24,25
 94 0 94 0 88.5 6 c 132,-1,26
 83 12 83 12 83 20 c 261,27,-1
 83 479 l 261,28,29
 83 487 83 487 89 493 c 132,-1,30
 95 499 95 499 103 499 c 261,31,32
 112 499 112 499 117.5 493 c 132,-1,33
 123 487 123 487 123 479 c 261,34,-1
 123 381 l 261,35,-1
 98 333 l 261,36,37
 98 369 98 369 117 402 c 132,-1,38
 136 435 136 435 167 460.5 c 132,-1,39
 198 486 198 486 235.5 500.5 c 132,-1,40
 273 515 273 515 310 515 c 261,0,1
EndSplineSet
EndChar

StartChar: nacute
Encoding: 364 324 364
GlifName: nacute__1
Width: 572
VWidth: 0
Flags: W
LayerCount: 4
Back
SplineSet
202 555 m 260
 198.666992188 556.333007812 196.666992188 558.333007812 196 561 c 4
 194.666992188 565.666992188 194.666992188 568.666992188 196 570 c 260
 197.333007812 572.666992188 200.666992188 576 206 580 c 262
 349 690 l 4
 360 699 l 262
 364 701.666992188 368.333007812 704 373 706 c 4
 378.333007812 708 384 707.666992188 390 705 c 260
 396.666992188 702.333007812 401.666992188 698.666992188 405 694 c 4
 408.333007812 688.666992188 408.333007812 681.666992188 405 673 c 260
 403.666992188 669.666992188 402.333007812 667.333007812 401 666 c 4
 399.666992188 664 397.333007812 662 394 660 c 261
 232 561 l 262
 226.666992188 557.666992188 222 555.666992188 218 555 c 4
 211.333007812 553.666992188 206 553.666992188 202 555 c 260
EndSplineSet
Fore
Refer: 363 110 N 1 0 0 1 0 0 2
Refer: 740 769 N 1 0 0 1 183 0 2
EndChar

StartChar: uni0272
Encoding: 371 626 371
GlifName: uni0272
Width: 572
VWidth: 0
Flags: W
LayerCount: 4
Fore
SplineSet
-14 -198 m 257,0,1
 -22 -198 -22 -198 -27.5 -192.5 c 128,-1,2
 -33 -187 -33 -187 -33 -180 c 257,3,4
 -33 -170 -33 -170 -27.5 -165 c 128,-1,5
 -22 -160 -22 -160 -15 -159 c 257,6,7
 7 -155 7 -155 29.5 -144 c 128,-1,8
 52 -133 52 -133 67.5 -112 c 128,-1,9
 83 -91 83 -91 83 -58 c 257,10,-1
 83 479 l 257,11,12
 83 487 83 487 89 493 c 128,-1,13
 95 499 95 499 103 499 c 257,14,15
 112 499 112 499 117.5 493 c 128,-1,16
 123 487 123 487 123 479 c 257,17,-1
 123 381 l 257,18,-1
 98 333 l 257,19,20
 98 369 98 369 117 402 c 128,-1,21
 136 435 136 435 167 460.5 c 128,-1,22
 198 486 198 486 235.5 500.5 c 128,-1,23
 273 515 273 515 310 515 c 257,24,25
 373 515 373 515 412.5 490 c 128,-1,26
 452 465 452 465 470.5 422 c 128,-1,27
 489 379 489 379 489 326 c 257,28,-1
 489 20 l 257,29,30
 489 12 489 12 483 6 c 128,-1,31
 477 0 477 0 469 0 c 257,32,33
 460 0 460 0 454.5 6 c 128,-1,34
 449 12 449 12 449 20 c 257,35,-1
 449 322 l 257,36,37
 449 365 449 365 434.5 400 c 128,-1,38
 420 435 420 435 388.5 456 c 128,-1,39
 357 477 357 477 306 477 c 257,40,41
 262 477 262 477 220 456 c 128,-1,42
 178 435 178 435 150.5 400 c 128,-1,43
 123 365 123 365 123 322 c 257,44,-1
 123 -58 l 257,45,46
 123 -95 123 -95 111 -119.5 c 128,-1,47
 99 -144 99 -144 81 -160 c 128,-1,48
 63 -176 63 -176 43.5 -184 c 128,-1,49
 24 -192 24 -192 8 -195 c 128,-1,50
 -8 -198 -8 -198 -14 -198 c 257,0,1
EndSplineSet
EndChar

StartChar: eng
Encoding: 375 331 375
GlifName: eng__1
Width: 572
VWidth: 0
Flags: W
LayerCount: 4
Fore
SplineSet
311 -200 m 257,0,1
 301 -200 301 -200 295 -194.5 c 128,-1,2
 289 -189 289 -189 289 -180 c 257,3,4
 289 -171 289 -171 295 -165.5 c 128,-1,5
 301 -160 301 -160 310 -160 c 257,6,7
 368 -160 368 -160 397.5 -145 c 128,-1,8
 427 -130 427 -130 438 -103.5 c 128,-1,9
 449 -77 449 -77 449 -44 c 257,10,-1
 449 322 l 257,11,12
 449 365 449 365 434.5 400 c 128,-1,13
 420 435 420 435 388.5 456 c 128,-1,14
 357 477 357 477 306 477 c 257,15,16
 262 477 262 477 220 456 c 128,-1,17
 178 435 178 435 150.5 400 c 128,-1,18
 123 365 123 365 123 322 c 257,19,-1
 123 20 l 257,20,21
 123 12 123 12 117 6 c 128,-1,22
 111 0 111 0 103 0 c 257,23,24
 94 0 94 0 88.5 6 c 128,-1,25
 83 12 83 12 83 20 c 257,26,-1
 83 479 l 257,27,28
 83 487 83 487 89 493 c 128,-1,29
 95 499 95 499 103 499 c 257,30,31
 112 499 112 499 117.5 493 c 128,-1,32
 123 487 123 487 123 479 c 257,33,-1
 123 381 l 257,34,-1
 98 333 l 257,35,36
 98 369 98 369 117 402 c 128,-1,37
 136 435 136 435 167 460.5 c 128,-1,38
 198 486 198 486 235.5 500.5 c 128,-1,39
 273 515 273 515 310 515 c 257,40,41
 373 515 373 515 412.5 490 c 128,-1,42
 452 465 452 465 470.5 422 c 128,-1,43
 489 379 489 379 489 326 c 257,44,-1
 489 -44 l 257,45,46
 490 -83 490 -83 474.5 -119 c 128,-1,47
 459 -155 459 -155 420.5 -177.5 c 128,-1,48
 382 -200 382 -200 311 -200 c 257,0,1
EndSplineSet
EndChar

StartChar: o
Encoding: 376 111 376
GlifName: o__1
Width: 597
VWidth: 0
Flags: W
LayerCount: 4
Fore
SplineSet
545 252 m 261,0,1
 545 178 545 178 513 118.5 c 132,-1,2
 481 59 481 59 425.5 24.5 c 132,-1,3
 370 -10 370 -10 299 -10 c 261,4,5
 229 -10 229 -10 173 24.5 c 132,-1,6
 117 59 117 59 84.5 118.5 c 132,-1,7
 52 178 52 178 52 252 c 261,8,9
 52 327 52 327 84.5 386.5 c 132,-1,10
 117 446 117 446 173 480.5 c 132,-1,11
 229 515 229 515 299 515 c 261,12,13
 370 515 370 515 425.5 480.5 c 132,-1,14
 481 446 481 446 513 386.5 c 132,-1,15
 545 327 545 327 545 252 c 261,0,1
505 252 m 261,16,17
 505 317 505 317 478.5 367.5 c 132,-1,18
 452 418 452 418 405.5 447.5 c 132,-1,19
 359 477 359 477 299 477 c 261,20,21
 240 477 240 477 193 447.5 c 132,-1,22
 146 418 146 418 119 367.5 c 132,-1,23
 92 317 92 317 92 252 c 261,24,25
 92 188 92 188 119 137.5 c 132,-1,26
 146 87 146 87 193 57.5 c 132,-1,27
 240 28 240 28 299 28 c 261,28,29
 359 28 359 28 405.5 57.5 c 132,-1,30
 452 87 452 87 478.5 137.5 c 132,-1,31
 505 188 505 188 505 252 c 261,16,17
EndSplineSet
EndChar

StartChar: oacute
Encoding: 377 243 377
GlifName: oacute__1
Width: 597
VWidth: 0
Flags: W
LayerCount: 4
Back
SplineSet
204 555 m 260
 200.666992188 556.333007812 198.666992188 558.333007812 198 561 c 4
 196.666992188 565.666992188 196.666992188 568.666992188 198 570 c 260
 199.333007812 572.666992188 202.666992188 576 208 580 c 262
 351 690 l 4
 362 699 l 262
 366 701.666992188 370.333007812 704 375 706 c 4
 380.333007812 708 386 707.666992188 392 705 c 260
 398.666992188 702.333007812 403.666992188 698.666992188 407 694 c 4
 410.333007812 688.666992188 410.333007812 681.666992188 407 673 c 260
 405.666992188 669.666992188 404.333007812 667.333007812 403 666 c 4
 401.666992188 664 399.333007812 662 396 660 c 261
 234 561 l 262
 228.666992188 557.666992188 224 555.666992188 220 555 c 4
 213.333007812 553.666992188 208 553.666992188 204 555 c 260
EndSplineSet
Fore
Refer: 376 111 N 1 0 0 1 0 0 2
Refer: 740 769 S 1 0 0 1 185 0 2
EndChar

StartChar: ograve
Encoding: 391 242 391
GlifName: ograve__1
Width: 597
VWidth: 0
Flags: W
LayerCount: 4
Back
SplineSet
363 555 m 260
 359.666992188 556.333007812 357.666992188 558.333007812 357 561 c 4
 355.666992188 565.666992188 355.666992188 568.666992188 357 570 c 260
 358.333007812 572.666992188 361.666992188 576 367 580 c 262
 510 690 l 4
 521 699 l 262
 525 701.666992188 529.333007812 704 534 706 c 4
 539.333007812 708 545 707.666992188 551 705 c 260
 557.666992188 702.333007812 562.666992188 698.666992188 566 694 c 4
 569.333007812 688.666992188 569.333007812 681.666992188 566 673 c 260
 564.666992188 669.666992188 563.333007812 667.333007812 562 666 c 4
 560.666992188 664 558.333007812 662 555 660 c 261
 393 561 l 262
 387.666992188 557.666992188 383 555.666992188 379 555 c 4
 372.333007812 553.666992188 367 553.666992188 363 555 c 260
EndSplineSet
Fore
Refer: 376 111 N 1 0 0 1 0 0 2
Refer: 739 768 S 1 0 0 1 146 0 2
EndChar

StartChar: omacron
Encoding: 401 333 401
GlifName: omacron__1
Width: 597
VWidth: 0
Flags: W
LayerCount: 4
Back
SplineSet
169 610 m 261
 155.666992188 610 149 616 149 628 c 261
 149 640 155.666992188 646 169 646 c 261
 409 646 l 261
 422.333007812 646 429 640 429 628 c 261
 429 616 422.333007812 610 409 610 c 261
 169 610 l 261
EndSplineSet
Fore
Refer: 376 111 N 1 0 0 1 0 0 2
Refer: 748 772 S 1 0 0 1 106 39 2
EndChar

StartChar: uni01EB
Encoding: 404 491 404
GlifName: uni01EB
Width: 589
VWidth: 0
Flags: W
LayerCount: 4
Fore
SplineSet
501 252 m 257,0,1
 501 317 501 317 474.5 367.5 c 128,-1,2
 448 418 448 418 401.5 447.5 c 128,-1,3
 355 477 355 477 295 477 c 257,4,5
 236 477 236 477 189 447.5 c 128,-1,6
 142 418 142 418 115 367.5 c 128,-1,7
 88 317 88 317 88 252 c 257,8,9
 88 188 88 188 115 137.5 c 128,-1,10
 142 87 142 87 189 57.5 c 128,-1,11
 236 28 236 28 295 28 c 257,12,13
 355 28 355 28 401.5 57.5 c 128,-1,14
 448 87 448 87 474.5 137.5 c 128,-1,15
 501 188 501 188 501 252 c 257,0,1
339 -185 m 257,16,17
 306 -185 306 -185 278.5 -160 c 128,-1,18
 251 -135 251 -135 251 -93 c 257,19,20
 251 -70 251 -70 258.5 -51.5 c 128,-1,21
 266 -33 266 -33 278.5 -20 c 128,-1,22
 291 -7 291 -7 306 2.5 c 128,-1,23
 321 12 321 12 337 17 c 257,24,25
 334 4 334 4 321.5 -3 c 128,-1,26
 309 -10 309 -10 295 -10 c 257,27,28
 225 -10 225 -10 169 24.5 c 128,-1,29
 113 59 113 59 80.5 118.5 c 128,-1,30
 48 178 48 178 48 252 c 257,31,32
 48 327 48 327 80.5 386.5 c 128,-1,33
 113 446 113 446 169 480.5 c 128,-1,34
 225 515 225 515 295 515 c 257,35,36
 366 515 366 515 421.5 480.5 c 128,-1,37
 477 446 477 446 509 386.5 c 128,-1,38
 541 327 541 327 541 252 c 257,39,40
 541 188 541 188 516 135.5 c 128,-1,41
 491 83 491 83 448 47 c 128,-1,42
 405 11 405 11 349 -4 c 257,43,44
 325 -11 325 -11 307 -35 c 128,-1,45
 289 -59 289 -59 289 -85 c 257,46,47
 289 -115 289 -115 306 -131.5 c 128,-1,48
 323 -148 323 -148 344 -148 c 257,49,50
 364 -148 364 -148 373 -139 c 257,51,52
 379 -132 379 -132 384.5 -127 c 128,-1,53
 390 -122 390 -122 397 -122 c 257,54,55
 404 -122 404 -122 407.5 -126.5 c 128,-1,56
 411 -131 411 -131 411 -136 c 257,57,58
 411 -149 411 -149 401.5 -160.5 c 128,-1,59
 392 -172 392 -172 376 -178.5 c 128,-1,60
 360 -185 360 -185 339 -185 c 257,16,17
EndSplineSet
EndChar

StartChar: oslash
Encoding: 405 248 405
GlifName: oslash__1
Width: 597
VWidth: 0
Flags: W
LayerCount: 4
Fore
SplineSet
78 -30 m 257,0,1
 71 -30 71 -30 64.5 -24 c 128,-1,2
 58 -18 58 -18 58 -10 c 257,3,4
 58 -2 58 -2 63 4 c 257,5,-1
 510 526 l 257,6,7
 516 534 516 534 525 534 c 257,8,9
 533 534 533 534 539 528 c 128,-1,10
 545 522 545 522 545 514 c 257,11,12
 545 505 545 505 540 500 c 257,13,-1
 93 -22 l 257,14,15
 87 -30 87 -30 78 -30 c 257,0,1
545 252 m 257,16,17
 545 178 545 178 513 118.5 c 128,-1,18
 481 59 481 59 425.5 24.5 c 128,-1,19
 370 -10 370 -10 299 -10 c 257,20,21
 229 -10 229 -10 173 24.5 c 128,-1,22
 117 59 117 59 84.5 118.5 c 128,-1,23
 52 178 52 178 52 252 c 257,24,25
 52 327 52 327 84.5 386.5 c 128,-1,26
 117 446 117 446 173 480.5 c 128,-1,27
 229 515 229 515 299 515 c 257,28,29
 370 515 370 515 425.5 480.5 c 128,-1,30
 481 446 481 446 513 386.5 c 128,-1,31
 545 327 545 327 545 252 c 257,16,17
505 252 m 257,32,33
 505 317 505 317 478.5 367.5 c 128,-1,34
 452 418 452 418 405.5 447.5 c 128,-1,35
 359 477 359 477 299 477 c 257,36,37
 240 477 240 477 193 447.5 c 128,-1,38
 146 418 146 418 119 367.5 c 128,-1,39
 92 317 92 317 92 252 c 257,40,41
 92 188 92 188 119 137.5 c 128,-1,42
 146 87 146 87 193 57.5 c 128,-1,43
 240 28 240 28 299 28 c 257,44,45
 359 28 359 28 405.5 57.5 c 128,-1,46
 452 87 452 87 478.5 137.5 c 128,-1,47
 505 188 505 188 505 252 c 257,32,33
EndSplineSet
EndChar

StartChar: p
Encoding: 412 112 412
GlifName: p__1
Width: 599
VWidth: 0
Flags: W
LayerCount: 4
Fore
SplineSet
315 505 m 257,0,1
 382 505 382 505 434 472 c 128,-1,2
 486 439 486 439 516.5 381.5 c 128,-1,3
 547 324 547 324 547 250 c 257,4,5
 547 177 547 177 516.5 119 c 128,-1,6
 486 61 486 61 433.5 27.5 c 128,-1,7
 381 -6 381 -6 315 -6 c 257,8,9
 282 -6 282 -6 251.5 3.5 c 128,-1,10
 221 13 221 13 195 30.5 c 128,-1,11
 169 48 169 48 147.5 74 c 128,-1,12
 126 100 126 100 110 133 c 257,13,-1
 123 147 l 257,14,-1
 123 -180 l 257,15,16
 123 -188 123 -188 117.5 -194 c 128,-1,17
 112 -200 112 -200 103 -200 c 257,18,19
 95 -200 95 -200 89 -194 c 128,-1,20
 83 -188 83 -188 83 -180 c 257,21,-1
 83 485 l 257,22,23
 83 493 83 493 88.5 499 c 128,-1,24
 94 505 94 505 103 505 c 257,25,26
 112 505 112 505 117.5 499 c 128,-1,27
 123 493 123 493 123 485 c 257,28,-1
 123 357 l 257,29,-1
 110 364 l 257,30,31
 124 401 124 401 145 428 c 128,-1,32
 166 455 166 455 193 472 c 128,-1,33
 220 489 220 489 251 497 c 128,-1,34
 282 505 282 505 315 505 c 257,0,1
313 467 m 257,35,36
 256 467 256 467 212.5 439 c 128,-1,37
 169 411 169 411 144 362.5 c 128,-1,38
 119 314 119 314 119 250 c 257,39,40
 119 187 119 187 144 137.5 c 128,-1,41
 169 88 169 88 212.5 60 c 128,-1,42
 256 32 256 32 313 32 c 257,43,44
 369 32 369 32 412.5 60 c 128,-1,45
 456 88 456 88 481.5 137.5 c 128,-1,46
 507 187 507 187 507 250 c 257,47,48
 507 313 507 313 481.5 362 c 128,-1,49
 456 411 456 411 412.5 439 c 128,-1,50
 369 467 369 467 313 467 c 257,35,36
EndSplineSet
EndChar

StartChar: thorn
Encoding: 413 254 413
GlifName: thorn__1
Width: 599
VWidth: 0
Flags: W
LayerCount: 4
Fore
SplineSet
315 505 m 257,0,1
 382 505 382 505 434 472 c 128,-1,2
 486 439 486 439 516.5 381.5 c 128,-1,3
 547 324 547 324 547 250 c 257,4,5
 547 177 547 177 516.5 119 c 128,-1,6
 486 61 486 61 433.5 27.5 c 128,-1,7
 381 -6 381 -6 315 -6 c 257,8,9
 282 -6 282 -6 251.5 3.5 c 128,-1,10
 221 13 221 13 195 30.5 c 128,-1,11
 169 48 169 48 147.5 74 c 128,-1,12
 126 100 126 100 110 133 c 257,13,-1
 123 147 l 257,14,-1
 123 -180 l 257,15,16
 123 -188 123 -188 117.5 -194 c 128,-1,17
 112 -200 112 -200 103 -200 c 257,18,19
 95 -200 95 -200 89 -194 c 128,-1,20
 83 -188 83 -188 83 -180 c 257,21,-1
 83 720 l 257,22,23
 83 728 83 728 88.5 734 c 128,-1,24
 94 740 94 740 103 740 c 257,25,26
 112 740 112 740 117.5 734 c 128,-1,27
 123 728 123 728 123 720 c 257,28,-1
 123 357 l 257,29,-1
 110 364 l 257,30,31
 124 401 124 401 145 428 c 128,-1,32
 166 455 166 455 193 472 c 128,-1,33
 220 489 220 489 251 497 c 128,-1,34
 282 505 282 505 315 505 c 257,0,1
313 467 m 257,35,36
 256 467 256 467 212.5 439 c 128,-1,37
 169 411 169 411 144 362.5 c 128,-1,38
 119 314 119 314 119 250 c 257,39,40
 119 187 119 187 144 137.5 c 128,-1,41
 169 88 169 88 212.5 60 c 128,-1,42
 256 32 256 32 313 32 c 257,43,44
 369 32 369 32 412.5 60 c 128,-1,45
 456 88 456 88 481.5 137.5 c 128,-1,46
 507 187 507 187 507 250 c 257,47,48
 507 313 507 313 481.5 362 c 128,-1,49
 456 411 456 411 412.5 439 c 128,-1,50
 369 467 369 467 313 467 c 257,35,36
EndSplineSet
EndChar

StartChar: q
Encoding: 414 113 414
GlifName: q__1
Width: 599
VWidth: 0
Flags: W
LayerCount: 4
Fore
SplineSet
496 505 m 257,0,1
 505 505 505 505 510.5 499 c 128,-1,2
 516 493 516 493 516 485 c 257,3,-1
 516 -180 l 257,4,5
 516 -188 516 -188 510 -194 c 128,-1,6
 504 -200 504 -200 496 -200 c 257,7,8
 487 -200 487 -200 481.5 -194 c 128,-1,9
 476 -188 476 -188 476 -180 c 257,10,-1
 476 162 l 257,11,-1
 492 184 l 257,12,13
 492 150 492 150 476.5 115.5 c 128,-1,14
 461 81 461 81 432.5 52.5 c 128,-1,15
 404 24 404 24 366 7 c 128,-1,16
 328 -10 328 -10 284 -10 c 257,17,18
 218 -10 218 -10 165.5 24.5 c 128,-1,19
 113 59 113 59 82.5 118.5 c 128,-1,20
 52 178 52 178 52 253 c 257,21,22
 52 328 52 328 82.5 387.5 c 128,-1,23
 113 447 113 447 165.5 481 c 128,-1,24
 218 515 218 515 284 515 c 257,25,26
 325 515 325 515 362.5 499.5 c 128,-1,27
 400 484 400 484 429 456 c 128,-1,28
 458 428 458 428 475 390.5 c 128,-1,29
 492 353 492 353 492 309 c 257,30,-1
 476 334 l 257,31,-1
 476 485 l 257,32,33
 476 493 476 493 481.5 499 c 128,-1,34
 487 505 487 505 496 505 c 257,0,1
286 28 m 257,35,36
 343 28 343 28 386.5 57 c 128,-1,37
 430 86 430 86 455 137 c 128,-1,38
 480 188 480 188 480 253 c 257,39,40
 480 318 480 318 455 368.5 c 128,-1,41
 430 419 430 419 386 448 c 128,-1,42
 342 477 342 477 286 477 c 257,43,44
 231 477 231 477 187 448 c 128,-1,45
 143 419 143 419 117.5 368.5 c 128,-1,46
 92 318 92 318 92 253 c 257,47,48
 92 189 92 189 117.5 138 c 128,-1,49
 143 87 143 87 187 57.5 c 128,-1,50
 231 28 231 28 286 28 c 257,35,36
EndSplineSet
EndChar

StartChar: r
Encoding: 415 114 415
GlifName: r__1
Width: 368
VWidth: 0
Flags: W
LayerCount: 4
Fore
SplineSet
103 0 m 257,0,1
 94 0 94 0 88.5 6 c 128,-1,2
 83 12 83 12 83 20 c 257,3,-1
 83 479 l 257,4,5
 83 487 83 487 89 493 c 128,-1,6
 95 499 95 499 103 499 c 257,7,8
 112 499 112 499 117.5 493 c 128,-1,9
 123 487 123 487 123 479 c 257,10,-1
 123 310 l 261,11,-1
 106 284 l 261,12,13
 106 323 106 323 119.5 363 c 132,-1,14
 133 403 133 403 159 437.5 c 132,-1,15
 185 472 185 472 222.5 493.5 c 132,-1,16
 260 515 260 515 309 515 c 261,17,18
 323 515 323 515 339 511 c 132,-1,19
 355 507 355 507 355 492 c 261,20,21
 355 483 355 483 350 477 c 132,-1,22
 345 471 345 471 337 471 c 261,23,24
 331 471 331 471 322.5 475.5 c 132,-1,25
 314 480 314 480 298 480 c 261,26,27
 272 480 272 480 235 458 c 4,28,29
 204 439 204 439 178.5 402.5 c 132,-1,30
 153 366 153 366 138 324 c 132,-1,31
 123 282 123 282 123 247 c 261,32,-1
 123 20 l 257,33,34
 123 12 123 12 117 6 c 128,-1,35
 111 0 111 0 103 0 c 257,0,1
EndSplineSet
EndChar

StartChar: s
Encoding: 423 115 423
GlifName: s__1
Width: 465
VWidth: 0
Flags: W
LayerCount: 4
Fore
SplineSet
55 80 m 257,0,1
 48 92 48 92 48.5 99.5 c 128,-1,2
 49 107 49 107 56 112 c 257,3,4
 61 117 61 117 69.5 116.5 c 128,-1,5
 78 116 78 116 84 109 c 257,6,7
 110 72 110 72 150.5 49 c 128,-1,8
 191 26 191 26 246 26 c 257,9,10
 279 26 279 26 309.5 37 c 128,-1,11
 340 48 340 48 359.5 70 c 128,-1,12
 379 92 379 92 379 124 c 257,13,14
 379 158 379 158 360 178.5 c 128,-1,15
 341 199 341 199 311 211 c 128,-1,16
 281 223 281 223 248 231 c 257,17,18
 213 240 213 240 181.5 251.5 c 128,-1,19
 150 263 150 263 126 280.5 c 128,-1,20
 102 298 102 298 88 322 c 128,-1,21
 74 346 74 346 74 379 c 257,22,23
 74 418 74 418 95 449 c 128,-1,24
 116 480 116 480 154 497.5 c 128,-1,25
 192 515 192 515 242 515 c 257,26,27
 266 515 266 515 293 509 c 128,-1,28
 320 503 320 503 347 488.5 c 128,-1,29
 374 474 374 474 397 448 c 257,30,31
 405 442 405 442 404.5 433.5 c 128,-1,32
 404 425 404 425 397 418 c 257,33,34
 391 414 391 414 384 414 c 128,-1,35
 377 414 377 414 372 420 c 257,36,37
 346 449 346 449 311.5 463 c 128,-1,38
 277 477 277 477 238 477 c 257,39,40
 205 477 205 477 176.5 466 c 128,-1,41
 148 455 148 455 130 433.5 c 128,-1,42
 112 412 112 412 112 379 c 257,43,44
 114 348 114 348 133.5 328 c 128,-1,45
 153 308 153 308 185.5 295 c 128,-1,46
 218 282 218 282 259 271 c 257,47,48
 292 263 292 263 320.5 252.5 c 128,-1,49
 349 242 349 242 370.5 226 c 128,-1,50
 392 210 392 210 404.5 186 c 128,-1,51
 417 162 417 162 417 126 c 257,52,53
 417 84 417 84 394.5 53.5 c 128,-1,54
 372 23 372 23 332.5 6.5 c 128,-1,55
 293 -10 293 -10 242 -10 c 257,56,57
 190 -10 190 -10 142 11 c 128,-1,58
 94 32 94 32 55 80 c 257,0,1
EndSplineSet
EndChar

StartChar: germandbls
Encoding: 434 223 434
GlifName: germandbls
Width: 586
VWidth: 0
Flags: W
LayerCount: 4
Fore
SplineSet
118 0 m 257,0,1
 108 0 108 0 103 5 c 128,-1,2
 98 10 98 10 98 20 c 257,3,-1
 100 493 l 257,4,5
 100 528 100 528 109.5 568.5 c 128,-1,6
 119 609 119 609 141.5 645 c 128,-1,7
 164 681 164 681 201.5 703.5 c 128,-1,8
 239 726 239 726 294 726 c 257,9,10
 349 726 349 726 384 706.5 c 128,-1,11
 419 687 419 687 436 656.5 c 128,-1,12
 453 626 453 626 453 591 c 257,13,14
 453 576 453 576 445 551.5 c 128,-1,15
 437 527 437 527 418 504.5 c 128,-1,16
 399 482 399 482 367 471 c 257,17,-1
 367 475 l 257,18,19
 416 461 416 461 454.5 428 c 128,-1,20
 493 395 493 395 515.5 347 c 128,-1,21
 538 299 538 299 538 237 c 257,22,23
 538 165 538 165 508 109.5 c 128,-1,24
 478 54 478 54 428 22 c 128,-1,25
 378 -10 378 -10 319 -10 c 257,26,27
 297 -10 297 -10 274 -7 c 128,-1,28
 251 -4 251 -4 235 6 c 257,29,30
 226 11 226 11 223 18.5 c 128,-1,31
 220 26 220 26 225 34 c 257,32,33
 230 43 230 43 238 44.5 c 128,-1,34
 246 46 246 46 255 40 c 257,35,36
 268 33 268 33 284 29 c 128,-1,37
 300 25 300 25 319 25 c 257,38,39
 363 25 363 25 404 50.5 c 128,-1,40
 445 76 445 76 471.5 123 c 128,-1,41
 498 170 498 170 498 232 c 257,42,43
 498 302 498 302 471 346 c 128,-1,44
 444 390 444 390 403.5 414 c 128,-1,45
 363 438 363 438 323 447 c 257,46,47
 313 449 313 449 307.5 456.5 c 128,-1,48
 302 464 302 464 302 471 c 257,49,50
 302 477 302 477 306.5 483 c 128,-1,51
 311 489 311 489 319 491 c 257,52,53
 354 498 354 498 374.5 515.5 c 128,-1,54
 395 533 395 533 404 553.5 c 128,-1,55
 413 574 413 574 413 589 c 257,56,57
 413 627 413 627 382 656.5 c 128,-1,58
 351 686 351 686 294 686 c 257,59,60
 250 686 250 686 220 668 c 128,-1,61
 190 650 190 650 172.5 621 c 128,-1,62
 155 592 155 592 147.5 558.5 c 128,-1,63
 140 525 140 525 140 493 c 257,64,-1
 138 20 l 257,65,66
 138 10 138 10 133 5 c 128,-1,67
 128 0 128 0 118 0 c 257,0,1
47 465 m 257,68,69
 40 465 40 465 34 471 c 128,-1,70
 28 477 28 477 28 484 c 257,71,72
 28 492 28 492 34 497.5 c 128,-1,73
 40 503 40 503 47 503 c 257,74,-1
 108 503 l 257,75,76
 116 503 116 503 121.5 497 c 128,-1,77
 127 491 127 491 127 484 c 257,78,79
 127 476 127 476 121.5 470.5 c 128,-1,80
 116 465 116 465 108 465 c 257,81,-1
 47 465 l 257,68,69
EndSplineSet
EndChar

StartChar: t
Encoding: 435 116 435
GlifName: t__1
Width: 334
VWidth: 0
Flags: W
LayerCount: 4
Back
SplineSet
275 493 m 258
 280.333007812 493 284.833007812 491.166666667 288.5 487.5 c 128
 292.166992188 483.833007812 294.000325521 479.333007812 294 474 c 256
 294 468.666992188 292.166666667 464.166992188 288.5 460.5 c 128
 284.833007812 456.833007812 280.333007812 454.999674479 275 455 c 258
 37 455 l 258
 32.3330078125 455 27.9996744792 457 24 461 c 128
 20 465 18 469.333333333 18 474 c 256
 18 480 20 484.666666667 24 488 c 128
 28 491.333007812 32.3333333333 492.999674479 37 493 c 258
 275 493 l 258
229 0 m 256
 198.333333333 0.000325520833333 172 9.6669921875 150 29 c 128
 128 48.3336588542 117 78.6669921875 117 120 c 258
 117 630 l 258
 116.999674479 635.333333333 118.833007812 640 122.5 644 c 128
 126.166666667 648 131 650 137 650 c 256
 142.333333333 650 147 648 151 644 c 128
 155 639.999674479 157 635.333007812 157 630 c 258
 157 120 l 258
 156.999674479 100.666341146 159.833007812 84.8330078125 165.5 72.5 c 128
 171.166992188 60.1666666667 179.166992188 51 189.5 45 c 128
 199.833658854 39 211.666992188 36 225 36 c 256
 236.333658854 36 246.666992188 38 256 42 c 128
 265.333007812 46 273.333007812 48 280 48 c 256
 285.333007812 47.9996744792 289.833007812 45.8330078125 293.5 41.5 c 128
 297.166666667 37.1669921875 299 32.6669921875 299 28 c 256
 298.999674479 20 294.833007812 14 286.5 10 c 128
 278.166666667 5.99967447917 268.5 3.3330078125 257.5 2 c 128
 246.5 0.666666666667 237 0 229 0 c 256
37 503 m 257
 269 503 l 257
 274.333007812 503 278.833007812 501 282.5 497 c 128
 286.166992188 493 288 488.666992188 288 484 c 257
 288 478.666992188 286.166992188 474.166992188 282.5 470.5 c 128
 278.833007812 466.833007812 274.333007812 465 269 465 c 257
 37 465 l 257
 32.3330078125 465 28 467 24 471 c 128
 20 475 18 479.333007812 18 484 c 257
 18 489.333007812 20 493.833007812 24 497.5 c 128
 28 501.166992188 32.3330078125 503 37 503 c 257
139 650 m 261
 145 650 149.833007812 648 153.5 644 c 132
 157.166992188 640 159 635.333007812 159 630 c 261
 159 109 l 261
 159 87 161.833007812 70.8330078125 167.5 60.5 c 132
 173.166992188 50.1669921875 180.333007812 43.5 189 40.5 c 132
 197.666992188 37.5 206 36 214 36 c 261
 218.666992188 36 222.666992188 36.6669921875 226 38 c 132
 229.333007812 39.3330078125 233.333007812 40 238 40 c 261
 242.666992188 40 246.666992188 38.1669921875 250 34.5 c 132
 253.333007812 30.8330078125 255 26.6669921875 255 22 c 261
 255 16 251.166992188 10.8330078125 243.5 6.5 c 132
 235.833007812 2.1669921875 226.333007812 0 215 0 c 261
 211 0 203.833007812 0.1669921875 193.5 0.5 c 132
 183.166992188 0.8330078125 172.166992188 3.8330078125 160.5 9.5 c 132
 148.833007812 15.1669921875 139 25.5 131 40.5 c 132
 123 55.5 119 77.6669921875 119 107 c 261
 119 630 l 261
 119 635.333007812 121 640 125 644 c 132
 129 648 133.666992188 650 139 650 c 261
EndSplineSet
Fore
SplineSet
37 493 m 258,0,-1
 275 493 l 258,1,2
 283 493 283 493 288.5 487 c 128,-1,3
 294 481 294 481 294 474 c 256,4,5
 294 466 294 466 288.5 460.5 c 128,-1,6
 283 455 283 455 275 455 c 258,7,-1
 37 455 l 258,8,9
 30 455 30 455 24 461 c 128,-1,10
 18 467 18 467 18 474 c 256,11,12
 18 482 18 482 24 487.5 c 128,-1,13
 30 493 30 493 37 493 c 258,0,-1
137 650 m 256,14,15
 146 650 146 650 151.5 644 c 128,-1,16
 157 638 157 638 157 630 c 258,17,-1
 157 109 l 258,18,19
 157 76 157 76 170.5 60.5 c 128,-1,20
 184 45 184 45 202 40.5 c 128,-1,21
 220 36 220 36 232 36 c 256,22,23
 249 36 249 36 262 38 c 128,-1,24
 275 40 275 40 282 40 c 260,25,26
 289 40 289 40 294 34.5 c 132,-1,27
 299 29 299 29 299 22 c 4,28,29
 299 13 299 13 287.5 6.5 c 132,-1,30
 276 0 276 0 243 0 c 256,31,32
 237 0 237 0 216.5 0.5 c 128,-1,33
 196 1 196 1 173.5 9.5 c 128,-1,34
 151 18 151 18 134 40.5 c 128,-1,35
 117 63 117 63 117 107 c 258,36,-1
 117 630 l 258,37,38
 117 638 117 638 123 644 c 128,-1,39
 129 650 129 650 137 650 c 256,14,15
EndSplineSet
EndChar

StartChar: u
Encoding: 444 117 444
GlifName: u__1
Width: 563
VWidth: 0
Flags: W
LayerCount: 4
Back
SplineSet
460 499 m 257
 466 499 470.833333333 497 474.5 493 c 128
 478.166666667 489 480 484.333333333 480 479 c 257
 480 188 l 257
 480 123.333333333 461.833333333 74.8333333333 425.5 42.5 c 128
 389.166666667 10.1666666667 341 -6 281 -6 c 257
 221.666666667 -6 173.833333333 10.1666666667 137.5 42.5 c 128
 101.166666667 74.8333333333 83 123.333333333 83 188 c 257
 83 479 l 257
 83 484.333333333 85 489 89 493 c 128
 93 497 97.6666666667 499 103 499 c 257
 109 499 113.833333333 497 117.5 493 c 128
 121.166666667 489 123 484.333333333 123 479 c 257
 123 188 l 257
 123 137.333333333 137.166666667 98.6666666667 165.5 72 c 128
 193.833333333 45.3333333333 232.333333333 32 281 32 c 257
 330.333333333 32 369.166666667 45.3333333333 397.5 72 c 128
 425.833333333 98.6666666667 440 137.333333333 440 188 c 257
 440 479 l 257
 440 484.333333333 441.833333333 489 445.5 493 c 128
 449.166666667 497 454 499 460 499 c 257
EndSplineSet
Fore
SplineSet
425.5 62.5 m 20,0,1
 425.232668122 62.1961433166 425.232668122 62.1961433166 421 58.6279296875 c 4,2,3
 353 -6 353 -6 281 -6 c 260,4,5
 192 -6 192 -6 137.5 42.5 c 132,-1,6
 83 91 83 91 83 188 c 262,7,-1
 83 479 l 262,8,9
 83 487 83 487 89 493 c 132,-1,10
 95 499 95 499 103 499 c 260,11,12
 112 499 112 499 117.5 493 c 132,-1,13
 123 487 123 487 123 479 c 262,14,-1
 123 188 l 262,15,16
 123 112 123 112 165.5 72 c 132,-1,17
 208 32 208 32 281 32 c 260,18,19
 343 32 343 32 397.5 92 c 4,20,21
 440 135.81443299 440 135.81443299 440 188 c 262,22,-1
 440 479 l 262,23,24
 440 487 440 487 445.5 493 c 132,-1,25
 451 499 451 499 460 499 c 260,26,27
 469 499 469 499 474.5 493 c 132,-1,28
 480 487 480 487 480 479 c 262,29,-1
 480 209 l 4,30,-1
 480 188 l 262,31,-1
 480 146 l 5,32,-1
 480 15 l 262,33,34
 480 7 480 7 474 1 c 132,-1,35
 468 -5 468 -5 460 -5 c 260,36,37
 451 -5 451 -5 445.5 1 c 132,-1,38
 440 7 440 7 440 15 c 262,39,-1
 440 120 l 13,40,-1
 453 95 l 29,41,42
 453 93 453 93 425.5 62.5 c 20,0,1
EndSplineSet
EndChar

StartChar: uacute
Encoding: 445 250 445
GlifName: uacute__1
Width: 563
VWidth: 0
Flags: W
LayerCount: 4
Back
SplineSet
187 555 m 260
 183.666992188 556.333007812 181.666992188 558.333007812 181 561 c 4
 179.666992188 565.666992188 179.666992188 568.666992188 181 570 c 260
 182.333007812 572.666992188 185.666992188 576 191 580 c 262
 334 690 l 4
 345 699 l 262
 349 701.666992188 353.333007812 704 358 706 c 4
 363.333007812 708 369 707.666992188 375 705 c 260
 381.666992188 702.333007812 386.666992188 698.666992188 390 694 c 4
 393.333007812 688.666992188 393.333007812 681.666992188 390 673 c 260
 388.666992188 669.666992188 387.333007812 667.333007812 386 666 c 4
 384.666992188 664 382.333007812 662 379 660 c 261
 217 561 l 262
 211.666992188 557.666992188 207 555.666992188 203 555 c 4
 196.333007812 553.666992188 191 553.666992188 187 555 c 260
EndSplineSet
Fore
Refer: 444 117 N 1 0 0 1 0 0 2
Refer: 740 769 S 1 0 0 1 168 -10 2
EndChar

StartChar: udieresis
Encoding: 450 252 450
GlifName: udieresis__1
Width: 563
VWidth: 0
Flags: W
LayerCount: 4
Back
SplineSet
364 599 m 261
 353.333007812 599 344.833007812 602.333007812 338.5 609 c 132
 332.166992188 615.666992188 329 624.333007812 329 635 c 261
 329 643 l 261
 329 653.666992188 332.333007812 662.333007812 339 669 c 132
 345.666992188 675.666992188 354.333007812 679 365 679 c 261
 374.333007812 679 382.166992188 675.666992188 388.5 669 c 132
 394.833007812 662.333007812 398 653.666992188 398 643 c 261
 398 635 l 261
 398 624.333007812 394.833007812 615.666992188 388.5 609 c 132
 382.166992188 602.333007812 374 599 364 599 c 261
201 599 m 261
 190.333007812 599 181.833007812 602.333007812 175.5 609 c 132
 169.166992188 615.666992188 166 624.333007812 166 635 c 261
 166 643 l 261
 166 653.666992188 169.333007812 662.333007812 176 669 c 132
 182.666992188 675.666992188 191.333007812 679 202 679 c 261
 211.333007812 679 219.166992188 675.666992188 225.5 669 c 132
 231.833007812 662.333007812 235 653.666992188 235 643 c 261
 235 635 l 261
 235 624.333007812 231.833007812 615.666992188 225.5 609 c 132
 219.166992188 602.333007812 211 599 201 599 c 261
EndSplineSet
Fore
Refer: 444 117 N 1 0 0 1 0 0 2
Refer: 737 776 N 1 0 0 1 86 -54 2
EndChar

StartChar: ugrave
Encoding: 452 249 452
GlifName: ugrave__1
Width: 563
VWidth: 0
Flags: W
LayerCount: 4
Back
SplineSet
347 555 m 260
 343.666992188 556.333007812 341.666992188 558.333007812 341 561 c 4
 339.666992188 565.666992188 339.666992188 568.666992188 341 570 c 260
 342.333007812 572.666992188 345.666992188 576 351 580 c 262
 494 690 l 4
 505 699 l 262
 509 701.666992188 513.333007812 704 518 706 c 4
 523.333007812 708 529 707.666992188 535 705 c 260
 541.666992188 702.333007812 546.666992188 698.666992188 550 694 c 4
 553.333007812 688.666992188 553.333007812 681.666992188 550 673 c 260
 548.666992188 669.666992188 547.333007812 667.333007812 546 666 c 4
 544.666992188 664 542.333007812 662 539 660 c 261
 377 561 l 262
 371.666992188 557.666992188 367 555.666992188 363 555 c 4
 356.333007812 553.666992188 351 553.666992188 347 555 c 260
EndSplineSet
Fore
Refer: 444 117 N 1 0 0 1 0 0 2
Refer: 739 768 S 1 0 0 1 129 -10 2
EndChar

StartChar: umacron
Encoding: 462 363 462
GlifName: umacron__1
Width: 563
VWidth: 0
Flags: W
LayerCount: 4
Back
SplineSet
169 610 m 261
 155.666992188 610 149 616 149 628 c 261
 149 640 155.666992188 646 169 646 c 261
 409 646 l 261
 422.333007812 646 429 640 429 628 c 261
 429 616 422.333007812 610 409 610 c 261
 169 610 l 261
EndSplineSet
Fore
Refer: 444 117 N 1 0 0 1 0 0 2
Refer: 748 772 N 1 0 0 1 89 39 2
EndChar

StartChar: uogonek
Encoding: 464 371 464
GlifName: uogonek__1
Width: 563
VWidth: 0
Flags: W
LayerCount: 4
Fore
SplineSet
377 -185 m 257,0,1
 340 -185 340 -185 309.5 -158.5 c 128,-1,2
 279 -132 279 -132 279 -88 c 257,3,4
 279 -59 279 -59 287.5 -38 c 128,-1,5
 296 -17 296 -17 309.5 -3 c 128,-1,6
 323 11 323 11 340 20.5 c 128,-1,7
 357 30 357 30 375 36 c 257,8,-1
 346 1 l 257,9,10
 331 -3 331 -3 314.5 -4.5 c 128,-1,11
 298 -6 298 -6 281 -6 c 257,12,13
 192 -6 192 -6 137.5 42.5 c 128,-1,14
 83 91 83 91 83 188 c 257,15,-1
 83 479 l 257,16,17
 83 487 83 487 89 493 c 128,-1,18
 95 499 95 499 103 499 c 257,19,20
 112 499 112 499 117.5 493 c 128,-1,21
 123 487 123 487 123 479 c 257,22,-1
 123 188 l 257,23,24
 123 112 123 112 165.5 72 c 128,-1,25
 208 32 208 32 281 32 c 257,26,27
 355 32 355 32 397.5 72 c 128,-1,28
 440 112 440 112 440 188 c 257,29,-1
 440 479 l 257,30,31
 440 487 440 487 445.5 493 c 128,-1,32
 451 499 451 499 460 499 c 257,33,34
 469 499 469 499 474.5 493 c 128,-1,35
 480 487 480 487 480 479 c 257,36,-1
 480 188 l 257,37,38
 480 127 480 127 458.5 84.5 c 128,-1,39
 437 42 437 42 396 20 c 257,40,41
 375 9 375 9 357 -3 c 128,-1,42
 339 -15 339 -15 328 -32.5 c 128,-1,43
 317 -50 317 -50 317 -80 c 257,44,45
 317 -112 317 -112 337 -130 c 128,-1,46
 357 -148 357 -148 382 -148 c 257,47,48
 396 -148 396 -148 403.5 -144 c 128,-1,49
 411 -140 411 -140 415 -136 c 257,50,51
 420 -131 420 -131 424 -126.5 c 128,-1,52
 428 -122 428 -122 435 -122 c 257,53,54
 442 -122 442 -122 445.5 -126.5 c 128,-1,55
 449 -131 449 -131 449 -136 c 257,56,57
 449 -149 449 -149 439.5 -160.5 c 128,-1,58
 430 -172 430 -172 414 -178.5 c 128,-1,59
 398 -185 398 -185 377 -185 c 257,0,1
EndSplineSet
EndChar

StartChar: v
Encoding: 468 118 468
GlifName: v__1
Width: 518
VWidth: 0
Flags: W
LayerCount: 4
Fore
SplineSet
59 517 m 261,0,1
 64 517 64 517 69.5 513.5 c 132,-1,2
 75 510 75 510 77 504 c 261,3,-1
 262 61 l 261,4,-1
 252 54 l 261,5,-1
 440 504 l 261,6,7
 445 517 445 517 461 517 c 261,8,9
 466 517 466 517 473 513 c 132,-1,10
 480 509 480 509 480 501 c 261,11,12
 480 496 480 496 479 493.5 c 132,-1,13
 478 491 478 491 477 489 c 261,14,-1
 278 13 l 261,15,16
 273 0 273 0 259 0 c 261,17,18
 253 0 253 0 247.5 3.5 c 132,-1,19
 242 7 242 7 240 13 c 261,20,-1
 40 488 l 261,21,22
 39 490 39 490 38.5 492.5 c 132,-1,23
 38 495 38 495 38 497 c 261,24,25
 38 505 38 505 43 511 c 132,-1,26
 48 517 48 517 59 517 c 261,0,1
EndSplineSet
EndChar

StartChar: w
Encoding: 469 119 469
GlifName: w__1
Width: 746
VWidth: 0
Flags: W
LayerCount: 4
Fore
SplineSet
687 517 m 257,0,1
 695 517 695 517 701.5 512.5 c 128,-1,2
 708 508 708 508 708 498 c 257,3,4
 708 497 708 497 707.5 493.5 c 128,-1,5
 707 490 707 490 706 488 c 257,6,-1
 551 13 l 257,7,8
 548 7 548 7 543 3.5 c 128,-1,9
 538 0 538 0 532 0 c 257,10,11
 520 0 520 0 513 13 c 257,12,-1
 359 360 l 257,13,-1
 374 355 l 257,14,-1
 238 13 l 257,15,16
 233 0 233 0 219 0 c 257,17,18
 213 0 213 0 207.5 3.5 c 128,-1,19
 202 7 202 7 200 13 c 257,20,-1
 40 488 l 257,21,22
 38 494 38 494 38 498 c 257,23,24
 38 507 38 507 44 512 c 128,-1,25
 50 517 50 517 59 517 c 257,26,27
 65 517 65 517 70 513.5 c 128,-1,28
 75 510 75 510 77 504 c 257,29,-1
 226 45 l 257,30,-1
 209 45 l 257,31,-1
 351 397 l 257,32,33
 356 410 356 410 370 410 c 257,34,35
 376 410 376 410 381.5 406.5 c 128,-1,36
 387 403 387 403 389 397 c 257,37,-1
 542 44 l 257,38,-1
 522 44 l 257,39,-1
 669 504 l 257,40,41
 674 517 674 517 687 517 c 257,0,1
EndSplineSet
EndChar

StartChar: x
Encoding: 474 120 474
GlifName: x__1
Width: 483
VWidth: 0
Flags: W
LayerCount: 4
Back
SplineSet
61 510 m 261
 67.6666666667 510 73 507 77 501 c 261
 438 28 l 261
 440.666666667 24.6666666667 442 20.6666666667 442 16 c 261
 442 10.6666666667 440.166666667 6 436.5 2 c 132
 432.833333333 -2 428.333333333 -4 423 -4 c 261
 417 -4 411.333333333 -1 406 5 c 261
 44 477 l 261
 41.3333333333 480.333333333 40 484.333333333 40 489 c 261
 40 495 42.1666666667 500 46.5 504 c 132
 50.8333333333 508 55.6666666667 510 61 510 c 261
61 -4 m 261
 56.3333333333 -4 52 -2.5 48 0.5 c 132
 44 3.5 42 8.33333333333 42 15 c 261
 42 19.6666666667 43.3333333333 23.6666666667 46 27 c 261
 221 254 l 261
 245 223 l 261
 77 4 l 261
 73 -1.33333333333 67.6666666667 -4 61 -4 c 261
423 510 m 261
 429.666666667 510 434.5 508.333333333 437.5 505 c 132
 440.5 501.666666667 442 497.666666667 442 493 c 261
 442 491 441.5 488.833333333 440.5 486.5 c 132
 439.5 484.166666667 438.333333333 482 437 480 c 261
 262 246 l 261
 241 281 l 261
 406 501 l 261
 411.333333333 507 417 510 423 510 c 261
EndSplineSet
Fore
SplineSet
61 510 m 257,0,1
 71 510 71 510 77 501 c 257,2,-1
 438 28 l 257,3,4
 442 23 442 23 442 16 c 257,5,6
 442 8 442 8 436.5 2 c 128,-1,7
 431 -4 431 -4 423 -4 c 257,8,9
 414 -4 414 -4 406 5 c 257,10,-1
 44 477 l 257,11,12
 40 482 40 482 40 489 c 257,13,14
 40 498 40 498 46.5 504 c 128,-1,15
 53 510 53 510 61 510 c 257,0,1
406 501 m 277,16,17
 414 510 414 510 423 510 c 257,18,19
 433 510 433 510 437.5 505 c 128,-1,20
 442 500 442 500 442 493 c 257,21,22
 442 490 442 490 440.5 486.5 c 128,-1,23
 439 483 439 483 437 480 c 257,24,-1
 77 4 l 257,25,26
 71 -4 71 -4 61 -4 c 257,27,28
 54 -4 54 -4 48 0.5 c 128,-1,29
 42 5 42 5 42 15 c 257,30,31
 42 22 42 22 46 27 c 265,32,-1
 406 501 l 277,16,17
EndSplineSet
EndChar

StartChar: y
Encoding: 475 121 475
GlifName: y__1
Width: 518
VWidth: 0
Flags: W
LayerCount: 4
Back
SplineSet
459 515 m 257
 465 515 470 513 474 509 c 128
 478 505 479 500 479 495 c 257
 479 49 l 257
 479 -2 469 -47 448 -84 c 128
 427 -121 399 -150 364 -170 c 128
 329 -190 288 -200 243 -200 c 257
 212 -200 184 -196 160 -189 c 128
 136 -182 116 -173 101 -162 c 257
 96 -159 93 -155 90 -150 c 128
 87 -145 87 -140 90 -135 c 257
 93 -130 97 -126 102 -124 c 128
 107 -122 111 -123 116 -126 c 257
 127 -133 145 -141 168 -150 c 128
 191 -159 216 -164 245 -164 c 257
 284 -164 317 -155 346 -137 c 128
 375 -119 398 -94 414 -62 c 128
 430 -30 439 7 439 49 c 257
 439 123 l 257
 441 98 l 257
 432 78 417 60 398 44 c 128
 379 28 358 14 334 4 c 128
 310 -6 286 -10 261 -10 c 257
 220 -10 186 -2 160 14 c 128
 134 30 114 53 102 82 c 128
 90 111 83 144 83 183 c 257
 83 495 l 257
 83 500 84 505 88 509 c 128
 92 513 97 515 103 515 c 257
 109 515 114 513 118 509 c 128
 122 505 123 500 123 495 c 257
 123 183 l 257
 123 136 133 98 154 70 c 128
 175 42 211 28 261 28 c 257
 291 28 319 35 346 50 c 128
 373 65 396 85 413 109 c 128
 430 133 439 158 439 183 c 257
 439 495 l 257
 439 500 440 505 444 509 c 128
 448 513 453 515 459 515 c 257
EndSplineSet
Fore
SplineSet
237.894736842 18 m 20,0,-1
 40 488 l 257,1,2
 39 490 39 490 38.5 492.5 c 128,-1,3
 38 495 38 495 38 497 c 257,4,5
 38 505 38 505 43 511 c 128,-1,6
 48 517 48 517 59 517 c 257,7,8
 64 517 64 517 69.5 513.5 c 128,-1,9
 75 510 75 510 77 504 c 257,10,-1
 262 61 l 257,11,-1
 252 54 l 257,12,-1
 440 504 l 257,13,14
 445 517 445 517 461 517 c 257,15,16
 466 517 466 517 473 513 c 128,-1,17
 480 509 480 509 480 501 c 257,18,19
 480 496 480 496 479 493.5 c 128,-1,20
 478 491 478 491 477 489 c 257,21,-1
 283.43487395 26 l 0,22,-1
 242 -69 l 256,23,24
 229 -98 229 -98 204 -134 c 0,25,26
 182 -165 182 -165 149 -182 c 0,27,28
 118 -198 118 -198 90 -198 c 0,29,30
 80 -198 80 -198 76 -192 c 0,31,32
 71 -185 71 -185 71 -180 c 2,33,-1
 71 -178 l 258,34,35
 71 -170 71 -170 77 -165 c 0,36,37
 84 -160 84 -160 89 -159 c 0,38,39
 110 -155 110 -155 133 -144 c 0,40,41
 175 -124 175 -124 205 -53 c 8,42,-1
 232 7.5 l 24,43,-1
 237.894736842 18 l 20,0,-1
EndSplineSet
EndChar

StartChar: yacute
Encoding: 476 253 476
GlifName: yacute__1
Width: 518
VWidth: 0
Flags: W
LayerCount: 4
Back
SplineSet
186 555 m 260
 182.666992188 556.333007812 180.666992188 558.333007812 180 561 c 4
 178.666992188 565.666992188 178.666992188 568.666992188 180 570 c 260
 181.333007812 572.666992188 184.666992188 576 190 580 c 262
 333 690 l 4
 344 699 l 262
 348 701.666992188 352.333007812 704 357 706 c 4
 362.333007812 708 368 707.666992188 374 705 c 260
 380.666992188 702.333007812 385.666992188 698.666992188 389 694 c 4
 392.333007812 688.666992188 392.333007812 681.666992188 389 673 c 260
 387.666992188 669.666992188 386.333007812 667.333007812 385 666 c 4
 383.666992188 664 381.333007812 662 378 660 c 261
 216 561 l 262
 210.666992188 557.666992188 206 555.666992188 202 555 c 4
 195.333007812 553.666992188 190 553.666992188 186 555 c 260
EndSplineSet
Fore
Refer: 475 121 N 1 0 0 1 0 0 2
Refer: 740 769 N 1 0 0 1 167 0 2
EndChar

StartChar: ygrave
Encoding: 481 7923 481
GlifName: ygrave__1
Width: 518
VWidth: 0
Flags: W
LayerCount: 4
Back
SplineSet
346 555 m 260
 342.666992188 556.333007812 340.666992188 558.333007812 340 561 c 4
 338.666992188 565.666992188 338.666992188 568.666992188 340 570 c 260
 341.333007812 572.666992188 344.666992188 576 350 580 c 262
 493 690 l 4
 504 699 l 262
 508 701.666992188 512.333007812 704 517 706 c 4
 522.333007812 708 528 707.666992188 534 705 c 260
 540.666992188 702.333007812 545.666992188 698.666992188 549 694 c 4
 552.333007812 688.666992188 552.333007812 681.666992188 549 673 c 260
 547.666992188 669.666992188 546.333007812 667.333007812 545 666 c 4
 543.666992188 664 541.333007812 662 538 660 c 261
 376 561 l 262
 370.666992188 557.666992188 366 555.666992188 362 555 c 4
 355.333007812 553.666992188 350 553.666992188 346 555 c 260
EndSplineSet
Fore
Refer: 475 121 N 1 0 0 1 0 0 2
Refer: 739 768 S 1 0 0 1 128 -1 2
EndChar

StartChar: z
Encoding: 485 122 485
GlifName: z__1
Width: 477
VWidth: 0
Flags: W
LayerCount: 4
Fore
SplineSet
397 38 m 257,0,1
 405 38 405 38 411 32 c 128,-1,2
 417 26 417 26 417 19 c 257,3,4
 417 11 417 11 411 5.5 c 128,-1,5
 405 0 405 0 397 0 c 257,6,-1
 71 0 l 257,7,8
 61 0 61 0 55.5 7.5 c 128,-1,9
 50 15 50 15 50 20 c 257,10,11
 50 24 50 24 51.5 27 c 128,-1,12
 53 30 53 30 55 33 c 257,13,-1
 377 485 l 257,14,-1
 382 477 l 257,15,-1
 101 477 l 257,16,17
 93 477 93 477 87 483 c 128,-1,18
 81 489 81 489 81 496 c 257,19,20
 81 504 81 504 87 509.5 c 128,-1,21
 93 515 93 515 101 515 c 257,22,-1
 407 515 l 257,23,24
 415 515 415 515 420.5 509 c 128,-1,25
 426 503 426 503 427 495 c 257,26,27
 427 491 427 491 425.5 487.5 c 128,-1,28
 424 484 424 484 422 481 c 257,29,-1
 102 33 l 257,30,-1
 87 38 l 257,31,-1
 397 38 l 257,0,1
EndSplineSet
EndChar

StartChar: a.ss01
Encoding: 490 -1 490
GlifName: a.ss01
Width: 529
VWidth: 0
Flags: W
LayerCount: 4
Back
SplineSet
242 28 m 261
 286 28 321.833333333 38.8333333333 349.5 60.5 c 132
 377.166666667 82.1666666667 391 111.333333333 391 148 c 261
 391 185.333333333 377 214.333333333 349 235 c 132
 321 255.666666667 285 266 241 266 c 261
 199 266 163.666666667 255.666666667 135 235 c 132
 106.333333333 214.333333333 92 185.333333333 92 148 c 261
 92 110.666666667 106.333333333 81.3333333333 135 60 c 132
 163.666666667 38.6666666667 199.333333333 28 242 28 c 261
221 -10 m 261
 186.333333333 -10 156.333333333 -2.83333333333 131 11.5 c 132
 105.666666667 25.8333333333 86.1666666667 45 72.5 69 c 132
 58.8333333333 93 52 118.666666667 52 146 c 261
 52 179.333333333 61.3333333333 207.666666667 80 231 c 132
 98.6666666667 254.333333333 122.333333333 272.333333333 151 285 c 132
 179.666666667 297.666666667 209 304 239 304 c 261
 260.333333333 304 281.333333333 300.833333333 302 294.5 c 132
 322.666666667 288.166666667 341.5 279.333333333 358.5 268 c 132
 375.5 256.666666667 388.333333333 243.333333333 397 228 c 261
 388 215 l 261
 388 362 l 261
 388 401.333333333 374.166666667 430.333333333 346.5 449 c 132
 318.833333333 467.666666667 285.333333333 477 246 477 c 261
 215.333333333 477 185.166666667 469.5 155.5 454.5 c 132
 125.833333333 439.5 103.333333333 420.666666667 88 398 c 261
 83.3333333333 392 77.6666666667 389 71 389 c 261
 66.3333333333 389 62.3333333333 390.833333333 59 394.5 c 132
 55.6666666667 398.166666667 54 402.333333333 54 407 c 261
 54 409 54.3333333333 411 55 413 c 132
 55.6666666667 415 56.6666666667 417 58 419 c 261
 71.3333333333 439 88 456.166666667 108 470.5 c 132
 128 484.833333333 150.166666667 495.833333333 174.5 503.5 c 132
 198.833333333 511.166666667 223.666666667 515 249 515 c 261
 283 515 313.5 510.333333333 340.5 501 c 132
 367.5 491.666666667 388.833333333 476.166666667 404.5 454.5 c 132
 420.166666667 432.833333333 428 403 428 365 c 261
 428 85 l 261
 428 68.3333333333 431.833333333 56 439.5 48 c 132
 447.166666667 40 455 36 463 36 c 261
 471.666666667 36 479 38.3333333333 485 43 c 132
 491 47.6666666667 498.333333333 50 507 50 c 261
 512.333333333 50 516.5 48.1666666667 519.5 44.5 c 132
 522.5 40.8333333333 524 36.6666666667 524 32 c 261
 524 23.3333333333 516.166666667 15.8333333333 500.5 9.5 c 132
 484.833333333 3.16666666667 469.333333333 0 454 0 c 261
 437.333333333 0 423.5 6 412.5 18 c 132
 401.5 30 393.333333333 44 388 60 c 261
 406 85 l 261
 394.666666667 63.6666666667 380.166666667 45.8333333333 362.5 31.5 c 132
 344.833333333 17.1666666667 324.166666667 6.66666666667 300.5 0 c 132
 276.833333333 -6.66666666667 250.333333333 -10 221 -10 c 261
EndSplineSet
Fore
SplineSet
230 23 m 256,0,1
 295 23 295 23 341.5 65.5 c 0,2,3
 356 79 356 79 365.532226562 94 c 0,4,5
 383 122 383 122 383 158 c 256,6,7
 383 224 383 224 341 255 c 128,-1,8
 299 286 299 286 233 286 c 256,9,10
 173 286 173 286 130 255 c 132,-1,11
 87 224 87 224 87 158 c 256,12,13
 87 90 87 90 123 60 c 0,14,15
 146 41 146 41 174 31.328125 c 0,16,17
 200 23 200 23 230 23 c 256,0,1
104 481.72265625 m 0,18,19
 131 500 131 500 164.5 510.5 c 0,20,21
 210 525 210 525 249 525 c 256,22,23
 300 525 300 525 340.5 511 c 128,-1,24
 381 497 381 497 404.5 464.5 c 128,-1,25
 428 432 428 432 428 375 c 258,26,-1
 428 85 l 258,27,28
 428 60 428 60 439.5 48 c 128,-1,29
 451 36 451 36 463 36 c 256,30,31
 476 36 476 36 485 43 c 128,-1,32
 494 50 494 50 507 50 c 256,33,34
 515 50 515 50 519.5 44.5 c 128,-1,35
 524 39 524 39 524 32 c 256,36,37
 524 19 524 19 500.5 9.5 c 128,-1,38
 477 0 477 0 454 0 c 256,39,40
 429 0 429 0 412.5 18 c 128,-1,41
 396 36 396 36 388 60 c 257,42,-1
 406 85 l 257,43,44
 389 53 389 53 362.5 31.5 c 128,-1,45
 336 10 336 10 300.5 0 c 128,-1,46
 265 -10 265 -10 221 -10 c 256,47,48
 169 -10 169 -10 131 11.5 c 128,-1,49
 93 33 93 33 72.5 74 c 128,-1,50
 52 115 52 115 52 156 c 256,51,52
 52 216 52 216 80 251 c 128,-1,53
 108 286 108 286 151 305 c 128,-1,54
 194 324 194 324 239 324 c 256,55,56
 271 324 271 324 302 314.5 c 128,-1,57
 333 305 333 305 358.5 288 c 128,-1,58
 384 271 384 271 397 248 c 257,59,-1
 388 235 l 257,60,-1
 388 372 l 258,61,62
 388 431 388 431 346.5 459 c 128,-1,63
 305 487 305 487 246 487 c 256,64,65
 196 487 196 487 145.5 461.5 c 0,66,67
 133 455 133 455 122 447.8203125 c 0,68,69
 106 437 106 437 95.732421875 451 c 0,70,71
 84 468 84 468 104 481.72265625 c 0,18,19
EndSplineSet
Layer: 2
SplineSet
243 514 m 4
 243 502 237 495.917808219 225 495.753424658 c 6
 170 495 l 5
 170 34 l 5
 225 33.2465753425 l 6
 237 33.0821917808 243 27.3333333333 243 16 c 4
 243 5.33333333333 237.333333333 0 226 0 c 6
 76 0 l 6
 69.8311962299 0 65.1645295632 1.42307725591 62 4.26923176773 c 4
 58.6666666667 7.2672071434 57 11.8441298875 57 18 c 4
 57 28 63.3333333333 33.0867579909 76 33.2602739726 c 6
 130 34 l 5
 130 495 l 5
 76 495.739726027 l 6
 63.3333333333 495.913242009 57 502 57 514 c 4
 57 524.666666667 63.6666666667 530 77 530 c 6
 225 530 l 6
 237 530 243 524.666666667 243 514 c 4
EndSplineSet
EndChar

StartChar: aacute.ss01
Encoding: 491 -1 491
GlifName: aacute.ss01
Width: 529
VWidth: 0
Flags: W
LayerCount: 4
Back
SplineSet
197 555 m 260
 193.666992188 556.333007812 191.666992188 558.333007812 191 561 c 4
 189.666992188 565.666992188 189.666992188 568.666992188 191 570 c 260
 192.333007812 572.666992188 195.666992188 576 201 580 c 262
 344 690 l 4
 355 699 l 262
 359 701.666992188 363.333007812 704 368 706 c 4
 373.333007812 708 379 707.666992188 385 705 c 260
 391.666992188 702.333007812 396.666992188 698.666992188 400 694 c 4
 403.333007812 688.666992188 403.333007812 681.666992188 400 673 c 260
 398.666992188 669.666992188 397.333007812 667.333007812 396 666 c 4
 394.666992188 664 392.333007812 662 389 660 c 261
 227 561 l 262
 221.666992188 557.666992188 217 555.666992188 213 555 c 4
 206.333007812 553.666992188 201 553.666992188 197 555 c 260
EndSplineSet
Fore
Refer: 490 -1 N 1 0 0 1 0 0 2
Refer: 740 769 S 1 0 0 1 151 0 2
EndChar

StartChar: agrave.ss01
Encoding: 508 -1 508
GlifName: agrave.ss01
Width: 529
VWidth: 0
Flags: W
LayerCount: 4
Back
SplineSet
197 555 m 260
 193.666992188 556.333007812 191.666992188 558.333007812 191 561 c 4
 189.666992188 565.666992188 189.666992188 568.666992188 191 570 c 260
 192.333007812 572.666992188 195.666992188 576 201 580 c 262
 344 690 l 4
 355 699 l 262
 359 701.666992188 363.333007812 704 368 706 c 4
 373.333007812 708 379 707.666992188 385 705 c 260
 391.666992188 702.333007812 396.666992188 698.666992188 400 694 c 4
 403.333007812 688.666992188 403.333007812 681.666992188 400 673 c 260
 398.666992188 669.666992188 397.333007812 667.333007812 396 666 c 4
 394.666992188 664 392.333007812 662 389 660 c 261
 227 561 l 262
 221.666992188 557.666992188 217 555.666992188 213 555 c 4
 206.333007812 553.666992188 201 553.666992188 197 555 c 260
EndSplineSet
Fore
Refer: 490 -1 N 1 0 0 1 0 0 2
Refer: 739 768 S 1 0 0 1 112 0 2
EndChar

StartChar: aogonek.ss01
Encoding: 512 -1 512
GlifName: aogonek.ss01
Width: 507
VWidth: 0
Flags: W
LayerCount: 4
Fore
SplineSet
250 28 m 257,0,1
 312 28 312 28 350.5 60.5 c 128,-1,2
 389 93 389 93 389 148 c 257,3,4
 389 204 389 204 353 235 c 128,-1,5
 317 266 317 266 255 266 c 257,6,7
 189 266 189 266 149.5 235 c 128,-1,8
 110 204 110 204 110 148 c 257,9,10
 110 93 110 93 147 60.5 c 128,-1,11
 184 28 184 28 250 28 c 257,0,1
433 -195 m 257,12,13
 400 -195 400 -195 372.5 -170 c 128,-1,14
 345 -145 345 -145 345 -103 c 257,15,16
 345 -80 345 -80 352.5 -61.5 c 128,-1,17
 360 -43 360 -43 372.5 -30 c 128,-1,18
 385 -17 385 -17 400 -7.5 c 128,-1,19
 415 2 415 2 431 7 c 257,20,-1
 452 0 l 257,21,22
 417 0 417 0 401.5 17.5 c 128,-1,23
 386 35 386 35 386 66 c 257,24,-1
 404 91 l 257,25,26
 395 57 395 57 370.5 34.5 c 128,-1,27
 346 12 346 12 312 1 c 128,-1,28
 278 -10 278 -10 239 -10 c 257,29,30
 184 -10 184 -10 144.5 10 c 128,-1,31
 105 30 105 30 84 65 c 128,-1,32
 63 100 63 100 63 145 c 257,33,34
 63 195 63 195 90.5 230.5 c 128,-1,35
 118 266 118 266 161.5 285 c 128,-1,36
 205 304 205 304 253 304 c 257,37,38
 283 304 283 304 311.5 295.5 c 128,-1,39
 340 287 340 287 363 271 c 128,-1,40
 386 255 386 255 398 232 c 257,41,-1
 386 215 l 257,42,-1
 386 362 l 257,43,44
 386 412 386 412 366 436.5 c 128,-1,45
 346 461 346 461 314.5 469 c 128,-1,46
 283 477 283 477 246 477 c 257,47,48
 200 477 200 477 159.5 454.5 c 128,-1,49
 119 432 119 432 96 398 c 257,50,51
 89 389 89 389 79 389 c 257,52,53
 72 389 72 389 67 394.5 c 128,-1,54
 62 400 62 400 62 407 c 257,55,56
 62 410 62 410 63 413 c 128,-1,57
 64 416 64 416 66 419 c 257,58,59
 86 449 86 449 114 470.5 c 128,-1,60
 142 492 142 492 176.5 503.5 c 128,-1,61
 211 515 211 515 249 515 c 257,62,63
 297 515 297 515 337.5 503 c 128,-1,64
 378 491 378 491 402 459 c 128,-1,65
 426 427 426 427 426 365 c 257,66,-1
 426 69 l 257,67,68
 426 47 426 47 437.5 41.5 c 128,-1,69
 449 36 449 36 461 36 c 257,70,71
 468 36 468 36 473 38 c 128,-1,72
 478 40 478 40 485 40 c 257,73,74
 493 40 493 40 497.5 34.5 c 128,-1,75
 502 29 502 29 502 22 c 257,76,77
 502 12 502 12 491.5 8 c 128,-1,78
 481 4 481 4 470 -1 c 257,79,80
 452 -10 452 -10 432 -23 c 128,-1,81
 412 -36 412 -36 397.5 -54 c 128,-1,82
 383 -72 383 -72 383 -95 c 257,83,84
 383 -125 383 -125 400 -141.5 c 128,-1,85
 417 -158 417 -158 438 -158 c 257,86,87
 462 -158 462 -158 470 -147 c 257,88,89
 475 -140 475 -140 479.5 -136 c 128,-1,90
 484 -132 484 -132 491 -132 c 257,91,92
 498 -132 498 -132 501.5 -136.5 c 128,-1,93
 505 -141 505 -141 505 -146 c 257,94,95
 505 -159 505 -159 495.5 -170.5 c 128,-1,96
 486 -182 486 -182 470 -188.5 c 128,-1,97
 454 -195 454 -195 433 -195 c 257,12,13
EndSplineSet
EndChar

StartChar: g.ss01
Encoding: 516 -1 516
GlifName: g.ss01
Width: 520
VWidth: 0
Flags: W
LayerCount: 4
Fore
SplineSet
434 327 m 257,0,1
 434 272 434 272 407 230 c 128,-1,2
 380 188 380 188 334.5 164 c 128,-1,3
 289 140 289 140 232 140 c 257,4,5
 175 140 175 140 129.5 164 c 128,-1,6
 84 188 84 188 57 230 c 128,-1,7
 30 272 30 272 30 327 c 257,8,9
 30 382 30 382 57 424.5 c 128,-1,10
 84 467 84 467 129.5 491 c 128,-1,11
 175 515 175 515 232 515 c 257,12,13
 289 515 289 515 334.5 491 c 128,-1,14
 380 467 380 467 407 424.5 c 128,-1,15
 434 382 434 382 434 327 c 257,0,1
396 325 m 257,16,17
 396 395 396 395 349.5 436 c 128,-1,18
 303 477 303 477 232 477 c 257,19,20
 161 477 161 477 115.5 436 c 128,-1,21
 70 395 70 395 70 325 c 257,22,23
 70 256 70 256 115.5 215 c 128,-1,24
 161 174 161 174 232 174 c 257,25,26
 303 174 303 174 349.5 215 c 128,-1,27
 396 256 396 256 396 325 c 257,16,17
211 126 m 257,28,29
 196 126 196 126 184 130 c 128,-1,30
 172 134 172 134 168 145 c 257,31,-1
 159 168 l 257,32,-1
 231 159 l 257,33,34
 354 159 354 159 420.5 110 c 128,-1,35
 487 61 487 61 487 -15 c 257,36,37
 487 -73 487 -73 451 -114.5 c 128,-1,38
 415 -156 415 -156 354.5 -178 c 128,-1,39
 294 -200 294 -200 220 -200 c 257,40,41
 156 -200 156 -200 115 -184 c 128,-1,42
 74 -168 74 -168 54 -149 c 128,-1,43
 34 -130 34 -130 34 -121 c 257,44,45
 34 -110 34 -110 40 -104 c 128,-1,46
 46 -98 46 -98 55 -98 c 257,47,48
 63 -98 63 -98 71.5 -106 c 128,-1,49
 80 -114 80 -114 87 -123 c 257,50,51
 100 -137 100 -137 139.5 -149.5 c 128,-1,52
 179 -162 179 -162 223 -162 c 257,53,54
 288 -162 288 -162 338.5 -145.5 c 128,-1,55
 389 -129 389 -129 418 -96 c 128,-1,56
 447 -63 447 -63 447 -15 c 257,57,58
 447 21 447 21 423.5 53 c 128,-1,59
 400 85 400 85 348 105.5 c 128,-1,60
 296 126 296 126 211 126 c 257,28,29
397 395 m 257,61,-1
 390 429 l 257,62,-1
 446 497 l 257,63,64
 454 507 454 507 460 511 c 128,-1,65
 466 515 466 515 476 515 c 257,66,67
 484 515 484 515 491.5 508.5 c 128,-1,68
 499 502 499 502 499 492 c 257,69,70
 499 485 499 485 495 479.5 c 128,-1,71
 491 474 491 474 483 466 c 257,72,-1
 397 395 l 257,61,-1
EndSplineSet
EndChar

StartChar: ordfeminine
Encoding: 530 170 530
GlifName: ordfeminine
Width: 349
VWidth: 0
Flags: W
LayerCount: 4
Fore
SplineSet
149 391 m 257,0,1
 108 391 108 391 80.5 413.5 c 128,-1,2
 53 436 53 436 39 473 c 128,-1,3
 25 510 25 510 25 555 c 257,4,5
 25 599 25 599 42.5 634 c 128,-1,6
 60 669 60 669 90 689.5 c 128,-1,7
 120 710 120 710 157 710 c 257,8,9
 206 710 206 710 240.5 677.5 c 128,-1,10
 275 645 275 645 275 583 c 257,11,-1
 259 624 l 257,12,-1
 259 674 l 257,13,14
 259 682 259 682 264.5 688 c 128,-1,15
 270 694 270 694 279 694 c 257,16,17
 288 694 288 694 293.5 688 c 128,-1,18
 299 682 299 682 299 674 c 257,19,-1
 299 421 l 257,20,21
 299 412 299 412 293 406.5 c 128,-1,22
 287 401 287 401 279 401 c 257,23,24
 270 401 270 401 264.5 407 c 128,-1,25
 259 413 259 413 259 421 c 257,26,-1
 259 474 l 257,27,-1
 275 503 l 257,28,29
 275 478 275 478 258 452 c 128,-1,30
 241 426 241 426 212.5 408.5 c 128,-1,31
 184 391 184 391 149 391 c 257,0,1
156 429 m 257,32,33
 203 429 203 429 233 462.5 c 128,-1,34
 263 496 263 496 263 555 c 257,35,36
 263 611 263 611 235.5 641.5 c 128,-1,37
 208 672 208 672 164 672 c 257,38,39
 124 672 124 672 94.5 638.5 c 128,-1,40
 65 605 65 605 65 555 c 257,41,42
 65 503 65 503 87.5 466 c 128,-1,43
 110 429 110 429 156 429 c 257,32,33
EndSplineSet
EndChar

StartChar: ordmasculine
Encoding: 531 186 531
GlifName: ordmasculine
Width: 348
VWidth: 0
Flags: W
LayerCount: 4
Fore
SplineSet
323 549 m 261,0,1
 323 504 323 504 303.5 468.5 c 132,-1,2
 284 433 284 433 250 412.5 c 132,-1,3
 216 392 216 392 173 392 c 261,4,5
 131 392 131 392 97.5 412.5 c 132,-1,6
 64 433 64 433 44.5 468.5 c 132,-1,7
 25 504 25 504 25 549 c 261,8,9
 25 595 25 595 44.5 631 c 132,-1,10
 64 667 64 667 97.5 688.5 c 132,-1,11
 131 710 131 710 173 710 c 261,12,13
 216 710 216 710 250 688.5 c 132,-1,14
 284 667 284 667 303.5 631 c 132,-1,15
 323 595 323 595 323 549 c 261,0,1
285 549 m 261,16,17
 285 602 285 602 254.5 637 c 132,-1,18
 224 672 224 672 173 672 c 261,19,20
 123 672 123 672 93 637 c 132,-1,21
 63 602 63 602 63 549 c 261,22,23
 63 499 63 499 93 464 c 132,-1,24
 123 429 123 429 173 429 c 261,25,26
 224 429 224 429 254.5 464 c 132,-1,27
 285 499 285 499 285 549 c 261,16,17
EndSplineSet
EndChar

StartChar: pi
Encoding: 532 960 532
GlifName: pi
Width: 619
VWidth: 0
Flags: W
LayerCount: 4
Fore
SplineSet
149 0 m 257,0,1
 140 0 140 0 134.5 6 c 128,-1,2
 129 12 129 12 129 20 c 257,3,-1
 129 470 l 257,4,5
 129 475 129 475 124 475 c 257,6,-1
 65 475 l 257,7,8
 57 475 57 475 51 480.5 c 128,-1,9
 45 486 45 486 45 495 c 257,10,11
 45 504 45 504 51 509.5 c 128,-1,12
 57 515 57 515 65 515 c 257,13,-1
 554 515 l 257,14,15
 562 515 562 515 568 509.5 c 128,-1,16
 574 504 574 504 574 495 c 257,17,18
 574 486 574 486 568 480.5 c 128,-1,19
 562 475 562 475 554 475 c 257,20,-1
 494 475 l 257,21,22
 489 475 489 475 489 470 c 257,23,-1
 489 20 l 257,24,25
 489 12 489 12 483.5 6 c 128,-1,26
 478 0 478 0 469 0 c 257,27,28
 460 0 460 0 454.5 6 c 128,-1,29
 449 12 449 12 449 20 c 257,30,-1
 449 470 l 257,31,32
 449 475 449 475 444 475 c 257,33,-1
 174 475 l 257,34,35
 169 475 169 475 169 470 c 257,36,-1
 169 20 l 257,37,38
 169 12 169 12 163.5 6 c 128,-1,39
 158 0 158 0 149 0 c 257,0,1
EndSplineSet
EndChar

StartChar: zero
Encoding: 533 48 533
GlifName: zero
Width: 588
VWidth: 0
Flags: W
LayerCount: 4
Fore
SplineSet
294 -10 m 261,0,1
 215 -10 215 -10 163 38.5 c 132,-1,2
 111 87 111 87 85.5 169 c 132,-1,3
 60 251 60 251 60 350 c 261,4,5
 60 450 60 450 85.5 531.5 c 132,-1,6
 111 613 111 613 163 661.5 c 132,-1,7
 215 710 215 710 294 710 c 261,8,9
 374 710 374 710 425.5 661.5 c 132,-1,10
 477 613 477 613 502.5 531.5 c 132,-1,11
 528 450 528 450 528 350 c 261,12,13
 528 251 528 251 502.5 169 c 132,-1,14
 477 87 477 87 425.5 38.5 c 132,-1,15
 374 -10 374 -10 294 -10 c 261,0,1
294 32 m 261,16,17
 358 32 358 32 400.5 73 c 132,-1,18
 443 114 443 114 464.5 186 c 132,-1,19
 486 258 486 258 486 350 c 261,20,21
 486 443 486 443 464.5 515 c 132,-1,22
 443 587 443 587 400.5 627.5 c 132,-1,23
 358 668 358 668 294 668 c 261,24,25
 230 668 230 668 187.5 627.5 c 132,-1,26
 145 587 145 587 123.5 515 c 132,-1,27
 102 443 102 443 102 350 c 261,28,29
 102 258 102 258 123.5 186 c 132,-1,30
 145 114 145 114 187.5 73 c 132,-1,31
 230 32 230 32 294 32 c 261,16,17
EndSplineSet
EndChar

StartChar: one
Encoding: 534 49 534
GlifName: one
Width: 363
VWidth: 0
Flags: W
LayerCount: 4
Back
SplineSet
294 -10 m 261
 241.333333333 -10 197.666666667 6.16666666667 163 38.5 c 132
 128.333333333 70.8333333333 102.5 114.333333333 85.5 169 c 132
 68.5 223.666666667 60 284 60 350 c 261
 60 416.666666667 68.5 477.166666667 85.5 531.5 c 132
 102.5 585.833333333 128.333333333 629.166666667 163 661.5 c 132
 197.666666667 693.833333333 241.333333333 710 294 710 c 261
 347.333333333 710 391.166666667 693.833333333 425.5 661.5 c 132
 459.833333333 629.166666667 485.5 585.833333333 502.5 531.5 c 132
 519.5 477.166666667 528 416.666666667 528 350 c 261
 528 284 519.5 223.666666667 502.5 169 c 132
 485.5 114.333333333 459.833333333 70.8333333333 425.5 38.5 c 132
 391.166666667 6.16666666667 347.333333333 -10 294 -10 c 261
294 32 m 261
 336.666666667 32 372.166666667 45.6666666667 400.5 73 c 132
 428.833333333 100.333333333 450.166666667 138 464.5 186 c 132
 478.833333333 234 486 288.666666667 486 350 c 261
 486 412 478.833333333 467 464.5 515 c 132
 450.166666667 563 428.833333333 600.5 400.5 627.5 c 132
 372.166666667 654.5 336.666666667 668 294 668 c 261
 251.333333333 668 215.833333333 654.5 187.5 627.5 c 132
 159.166666667 600.5 137.833333333 563 123.5 515 c 132
 109.166666667 467 102 412 102 350 c 261
 102 288.666666667 109.166666667 234 123.5 186 c 132
 137.833333333 138 159.166666667 100.333333333 187.5 73 c 132
 215.833333333 45.6666666667 251.333333333 32 294 32 c 261
EndSplineSet
Fore
SplineSet
222 0 m 257,0,1
 213 0 213 0 207 6 c 128,-1,2
 201 12 201 12 201 20 c 257,3,-1
 201 654 l 257,4,-1
 211 648 l 257,5,-1
 58 547 l 257,6,7
 52 543 52 543 47 543 c 257,8,9
 38 543 38 543 31.5 550.5 c 128,-1,10
 25 558 25 558 25 565 c 257,11,12
 25 576 25 576 36 582 c 257,13,-1
 211 697 l 257,14,15
 216 700 216 700 220 700.5 c 128,-1,16
 224 701 224 701 228 700 c 257,17,18
 235 699 235 699 239 693.5 c 128,-1,19
 243 688 243 688 243 680 c 257,20,-1
 243 20 l 257,21,22
 243 12 243 12 237 6 c 128,-1,23
 231 0 231 0 222 0 c 257,0,1
EndSplineSet
EndChar

